Sarala-Bold.ufo
<glyph name="exclam" format="1">
  <advance width="273"/>
  <unicode hex="0021"/>
  <outline>
    <contour>
      <point x="212" y="740" type="line"/>
      <point x="61" y="740" type="line"/>
      <point x="79" y="214" type="line"/>
      <point x="194" y="214" type="line"/>
    </contour>
    <contour>
      <point x="212" y="125" type="line"/>
      <point x="62" y="125" type="line"/>
      <point x="62" y="-7" type="line"/>
      <point x="212" y="-7" type="line"/>
    </contour>
  </outline>
</glyph>
<glyph name="numbersign" format="1">
  <advance width="699"/>
  <unicode hex="0023"/>
  <outline>
    <contour>
      <point x="1" y="170" type="line"/>
      <point x="138" y="170" type="line"/>
      <point x="109" y="0" type="line"/>
      <point x="215" y="0" type="line"/>
      <point x="244" y="170" type="line"/>
      <point x="396" y="170" type="line"/>
      <point x="367" y="0" type="line"/>
      <point x="474" y="0" type="line"/>
      <point x="502" y="170" type="line"/>
      <point x="637" y="170" type="line"/>
      <point x="654" y="271" type="line"/>
      <point x="520" y="271" type="line"/>
      <point x="546" y="422" type="line"/>
      <point x="681" y="422" type="line"/>
      <point x="698" y="523" type="line"/>
      <point x="563" y="523" type="line"/>
      <point x="596" y="709" type="line"/>
      <point x="489" y="709" type="line"/>
      <point x="457" y="523" type="line"/>
      <point x="305" y="523" type="line"/>
      <point x="337" y="709" type="line"/>
      <point x="231" y="709" type="line"/>
      <point x="199" y="523" type="line"/>
      <point x="62" y="523" type="line"/>
      <point x="45" y="422" type="line"/>
      <point x="181" y="422" type="line"/>
      <point x="155" y="271" type="line"/>
      <point x="18" y="271" type="line"/>
    </contour>
    <contour>
      <point x="439" y="422" type="line"/>
      <point x="413" y="271" type="line"/>
      <point x="261" y="271" type="line"/>
      <point x="287" y="422" type="line"/>
    </contour>
  </outline>
</glyph>
<glyph name="ampersand" format="1">
  <advance width="661"/>
  <unicode hex="0026"/>
  <outline>
    <contour>
      <point x="579" y="-2" type="line"/>
      <point x="662" y="93" type="line"/>
      <point x="574" y="168" type="line"/>
      <point x="599" y="228"/>
      <point x="612" y="301"/>
      <point x="612" y="386" type="curve"/>
      <point x="485" y="386" type="line"/>
      <point x="485" y="335"/>
      <point x="481" y="292"/>
      <point x="473" y="255" type="curve"/>
      <point x="313" y="393" type="line" smooth="yes"/>
      <point x="240" y="456"/>
      <point x="216" y="493"/>
      <point x="216" y="538" type="curve" smooth="yes"/>
      <point x="216" y="580"/>
      <point x="255" y="612"/>
      <point x="307" y="612" type="curve" smooth="yes"/>
      <point x="362" y="612"/>
      <point x="400" y="581"/>
      <point x="400" y="531" type="curve"/>
      <point x="538" y="531" type="line"/>
      <point x="538" y="642"/>
      <point x="456" y="716"/>
      <point x="307" y="716" type="curve" smooth="yes"/>
      <point x="157" y="716"/>
      <point x="73" y="638"/>
      <point x="73" y="544" type="curve" smooth="yes"/>
      <point x="73" y="488"/>
      <point x="91" y="445"/>
      <point x="140" y="391" type="curve"/>
      <point x="56" y="346"/>
      <point x="15" y="280"/>
      <point x="15" y="197" type="curve" smooth="yes"/>
      <point x="15" y="68"/>
      <point x="113" y="-11"/>
      <point x="291" y="-11" type="curve" smooth="yes"/>
      <point x="380" y="-11"/>
      <point x="452" y="15"/>
      <point x="504" y="64" type="curve"/>
    </contour>
    <contour>
      <point x="207" y="96"/>
      <point x="154" y="140"/>
      <point x="154" y="199" type="curve" smooth="yes"/>
      <point x="154" y="246"/>
      <point x="175" y="282"/>
      <point x="221" y="314" type="curve"/>
      <point x="418" y="141" type="line"/>
      <point x="387" y="110"/>
      <point x="345" y="96"/>
      <point x="290" y="96" type="curve" smooth="yes"/>
    </contour>
  </outline>
</glyph>
<glyph name="three" format="1">
  <advance width="539"/>
  <unicode hex="0033"/>
  <outline>
    <contour>
      <point x="433" y="388"/>
      <point x="482" y="443"/>
      <point x="482" y="526" type="curve" smooth="yes"/>
      <point x="482" y="645"/>
      <point x="377" y="711"/>
      <point x="234" y="711" type="curve" smooth="yes"/>
      <point x="163" y="711"/>
      <point x="90" y="696"/>
      <point x="26" y="671" type="curve"/>
      <point x="49" y="565" type="line"/>
      <point x="103" y="585"/>
      <point x="163" y="599"/>
      <point x="211" y="599" type="curve" smooth="yes"/>
      <point x="281" y="599"/>
      <point x="328" y="571"/>
      <point x="328" y="514" type="curve" smooth="yes"/>
      <point x="328" y="447"/>
      <point x="277" y="411"/>
      <point x="183" y="411" type="curve" smooth="yes"/>
      <point x="137" y="411" type="line"/>
      <point x="137" y="307" type="line"/>
      <point x="190" y="307" type="line" smooth="yes"/>
      <point x="293" y="307"/>
      <point x="344" y="272"/>
      <point x="344" y="202" type="curve" smooth="yes"/>
      <point x="344" y="139"/>
      <point x="293" y="105"/>
      <point x="199" y="105" type="curve" smooth="yes"/>
      <point x="156" y="105"/>
      <point x="97" y="113"/>
      <point x="48" y="127" type="curve"/>
      <point x="29" y="22" type="line"/>
      <point x="84" y="4"/>
      <point x="152" y="-7"/>
      <point x="213" y="-7" type="curve" smooth="yes"/>
      <point x="394" y="-7"/>
      <point x="498" y="66"/>
      <point x="498" y="194" type="curve" smooth="yes"/>
      <point x="498" y="286"/>
      <point x="443" y="347"/>
      <point x="344" y="368" type="curve"/>
    </contour>
  </outline>
</glyph>
<glyph name="seven" format="1">
  <advance width="527"/>
  <unicode hex="0037"/>
  <outline>
    <contour>
      <point x="13" y="593" type="line"/>
      <point x="359" y="593" type="line"/>
      <point x="79" y="0" type="line"/>
      <point x="226" y="0" type="line"/>
      <point x="511" y="614" type="line"/>
      <point x="489" y="709" type="line"/>
      <point x="13" y="709" type="line"/>
    </contour>
  </outline>
</glyph>
<glyph name="less" format="1">
  <advance width="616"/>
  <unicode hex="003C"/>
  <outline>
    <contour>
      <point x="33" y="351" type="line"/>
      <point x="33" y="254" type="line"/>
      <point x="554" y="57" type="line"/>
      <point x="554" y="170" type="line"/>
      <point x="193" y="302" type="line"/>
      <point x="554" y="435" type="line"/>
      <point x="554" y="547" type="line"/>
    </contour>
  </outline>
</glyph>
<glyph name="B" format="1">
  <advance width="652"/>
  <unicode hex="0042"/>
  <outline>
    <contour>
      <point x="486" y="374" type="line"/>
      <point x="557" y="400"/>
      <point x="593" y="450"/>
      <point x="593" y="522" type="curve" smooth="yes"/>
      <point x="593" y="641"/>
      <point x="498" y="709"/>
      <point x="332" y="709" type="curve" smooth="yes"/>
      <point x="81" y="709" type="line"/>
      <point x="81" y="0" type="line"/>
      <point x="352" y="0" type="line" smooth="yes"/>
      <point x="521" y="0"/>
      <point x="617" y="75"/>
      <point x="617" y="204" type="curve" smooth="yes"/>
      <point x="617" y="284"/>
      <point x="570" y="341"/>
      <point x="486" y="368" type="curve"/>
    </contour>
    <contour>
      <point x="224" y="417" type="line"/>
      <point x="224" y="600" type="line"/>
      <point x="324" y="600" type="line" smooth="yes"/>
      <point x="403" y="600"/>
      <point x="442" y="570"/>
      <point x="442" y="512" type="curve" smooth="yes"/>
      <point x="442" y="449"/>
      <point x="402" y="417"/>
      <point x="324" y="417" type="curve" smooth="yes"/>
    </contour>
    <contour>
      <point x="224" y="109" type="line"/>
      <point x="224" y="311" type="line"/>
      <point x="334" y="311" type="line" smooth="yes"/>
      <point x="419" y="311"/>
      <point x="464" y="278"/>
      <point x="464" y="214" type="curve" smooth="yes"/>
      <point x="464" y="147"/>
      <point x="420" y="109"/>
      <point x="344" y="109" type="curve" smooth="yes"/>
    </contour>
  </outline>
</glyph>
<glyph name="M" format="1">
  <advance width="930"/>
  <unicode hex="004D"/>
  <outline>
    <contour>
      <point x="894" y="0" type="line"/>
      <point x="802" y="709" type="line"/>
      <point x="630" y="709" type="line"/>
      <point x="527" y="400" type="line" smooth="yes"/>
      <point x="505" y="330"/>
      <point x="480" y="231"/>
      <point x="465" y="188" type="curve"/>
      <point x="450" y="231"/>
      <point x="425" y="330"/>
      <point x="403" y="400" type="curve" smooth="yes"/>
      <point x="300" y="709" type="line"/>
      <point x="127" y="709" type="line"/>
      <point x="36" y="0" type="line"/>
      <point x="180" y="0" type="line"/>
      <point x="215" y="297" type="line"/>
      <point x="224" y="374"/>
      <point x="232" y="451"/>
      <point x="241" y="528" type="curve"/>
      <point x="242" y="528"/>
      <point x="278" y="388"/>
      <point x="308" y="297" type="curve" smooth="yes"/>
      <point x="400" y="23" type="line"/>
      <point x="529" y="23" type="line"/>
      <point x="622" y="297" type="line" smooth="yes"/>
      <point x="649" y="381"/>
      <point x="688" y="528"/>
      <point x="688" y="528" type="curve"/>
      <point x="695" y="475"/>
      <point x="705" y="377"/>
      <point x="714" y="297" type="curve" smooth="yes"/>
      <point x="750" y="0" type="line"/>
    </contour>
  </outline>
</glyph>
<glyph name="R" format="1">
  <advance width="645"/>
  <unicode hex="0052"/>
  <outline>
    <contour>
      <point x="460" y="0" type="line"/>
      <point x="623" y="0" type="line"/>
      <point x="468" y="297" type="line"/>
      <point x="552" y="331"/>
      <point x="599" y="398"/>
      <point x="599" y="488" type="curve" smooth="yes"/>
      <point x="599" y="632"/>
      <point x="500" y="709"/>
      <point x="324" y="709" type="curve" smooth="yes"/>
      <point x="81" y="709" type="line"/>
      <point x="81" y="0" type="line"/>
      <point x="232" y="0" type="line"/>
      <point x="232" y="270" type="line"/>
      <point x="312" y="270" type="line"/>
      <point x="330" y="270" type="line"/>
    </contour>
    <contour>
      <point x="232" y="380" type="line"/>
      <point x="232" y="596" type="line"/>
      <point x="318" y="596" type="line" smooth="yes"/>
      <point x="405" y="596"/>
      <point x="447" y="564"/>
      <point x="447" y="488" type="curve" smooth="yes"/>
      <point x="447" y="414"/>
      <point x="405" y="380"/>
      <point x="318" y="380" type="curve" smooth="yes"/>
    </contour>
  </outline>
</glyph>
<glyph name="q" format="1">
  <advance width="611"/>
  <unicode hex="0071"/>
  <outline>
    <contour>
      <point x="137" y="534"/>
      <point x="32" y="430"/>
      <point x="32" y="248" type="curve" smooth="yes"/>
      <point x="32" y="90"/>
      <point x="118" y="-7"/>
      <point x="259" y="-7" type="curve" smooth="yes"/>
      <point x="313" y="-7"/>
      <point x="360" y="12"/>
      <point x="399" y="47" type="curve"/>
      <point x="399" y="-229" type="line"/>
      <point x="549" y="-229" type="line"/>
      <point x="549" y="501" type="line"/>
      <point x="483" y="522"/>
      <point x="407" y="534"/>
      <point x="330" y="534" type="curve" smooth="yes"/>
    </contour>
    <contour>
      <point x="221" y="99"/>
      <point x="182" y="153"/>
      <point x="182" y="253" type="curve" smooth="yes"/>
      <point x="182" y="368"/>
      <point x="235" y="432"/>
      <point x="325" y="432" type="curve" smooth="yes"/>
      <point x="351" y="432"/>
      <point x="374" y="428"/>
      <point x="399" y="421" type="curve"/>
      <point x="399" y="178" type="line"/>
      <point x="376" y="129"/>
      <point x="336" y="99"/>
      <point x="289" y="99" type="curve" smooth="yes"/>
    </contour>
  </outline>
</glyph>
<glyph name="x" format="1">
  <advance width="564"/>
  <unicode hex="0078"/>
  <outline>
    <contour>
      <point x="400" y="-1" type="line"/>
      <point x="561" y="0" type="line"/>
      <point x="379" y="270" type="line"/>
      <point x="547" y="524" type="line"/>
      <point x="392" y="524" type="line"/>
      <point x="282" y="352" type="line"/>
      <point x="172" y="524" type="line"/>
      <point x="17" y="524" type="line"/>
      <point x="185" y="270" type="line"/>
      <point x="3" y="0" type="line"/>
      <point x="164" y="-1" type="line"/>
      <point x="282" y="187" type="line"/>
    </contour>
  </outline>
</glyph>
<glyph name="exclamdown" format="1">
  <advance width="273"/>
  <unicode hex="00A1"/>
  <outline>
    <contour>
      <point x="79" y="302" type="line"/>
      <point x="61" y="-224" type="line"/>
      <point x="212" y="-224" type="line"/>
      <point x="194" y="302" type="line"/>
    </contour>
    <contour>
      <point x="62" y="523" type="line"/>
      <point x="62" y="391" type="line"/>
      <point x="212" y="391" type="line"/>
      <point x="212" y="523" type="line"/>
    </contour>
  </outline>
</glyph>
<glyph name="cent" format="1">
  <advance width="451"/>
  <unicode hex="00A2"/>
  <outline>
    <contour>
      <point x="408" y="218" type="line"/>
      <point x="375" y="204"/>
      <point x="334" y="194"/>
      <point x="299" y="194" type="curve" smooth="yes"/>
      <point x="211" y="194"/>
      <point x="164" y="247"/>
      <point x="164" y="342" type="curve" smooth="yes"/>
      <point x="164" y="436"/>
      <point x="209" y="490"/>
      <point x="294" y="490" type="curve" smooth="yes"/>
      <point x="329" y="490"/>
      <point x="361" y="482"/>
      <point x="397" y="464" type="curve"/>
      <point x="429" y="559" type="line"/>
      <point x="392" y="579"/>
      <point x="352" y="591"/>
      <point x="313" y="595" type="curve"/>
      <point x="313" y="714" type="line"/>
      <point x="233" y="714" type="line"/>
      <point x="233" y="592" type="line"/>
      <point x="102" y="574"/>
      <point x="28" y="485"/>
      <point x="28" y="342" type="curve" smooth="yes"/>
      <point x="28" y="196"/>
      <point x="101" y="106"/>
      <point x="233" y="89" type="curve"/>
      <point x="233" y="-7" type="line"/>
      <point x="313" y="-7" type="line"/>
      <point x="313" y="88" type="line"/>
      <point x="353" y="92"/>
      <point x="396" y="103"/>
      <point x="432" y="119" type="curve"/>
    </contour>
  </outline>
</glyph>
<glyph name="cedilla" format="1">
  <advance width="261"/>
  <unicode hex="00B8"/>
  <outline>
    <contour>
      <point x="165" y="0" type="line"/>
      <point x="117" y="0" type="line"/>
      <point x="75" y="-56" type="line"/>
      <point x="85" y="-82" type="line"/>
      <point x="125" y="-91"/>
      <point x="142" y="-104"/>
      <point x="142" y="-124" type="curve" smooth="yes"/>
      <point x="142" y="-144"/>
      <point x="128" y="-154"/>
      <point x="107" y="-154" type="curve" smooth="yes"/>
      <point x="89" y="-154"/>
      <point x="69" y="-148"/>
      <point x="58" y="-142" type="curve"/>
      <point x="36" y="-189" type="line"/>
      <point x="60" y="-203"/>
      <point x="95" y="-216"/>
      <point x="131" y="-216" type="curve" smooth="yes"/>
      <point x="181" y="-216"/>
      <point x="224" y="-187"/>
      <point x="224" y="-128" type="curve" smooth="yes"/>
      <point x="224" y="-94"/>
      <point x="192" y="-58"/>
      <point x="150" y="-45" type="curve"/>
    </contour>
  </outline>
</glyph>
<glyph name="ordmasculine" format="1">
  <advance width="390"/>
  <unicode hex="00BA"/>
  <outline>
    <contour>
      <point x="16" y="420"/>
      <point x="81" y="355"/>
      <point x="195" y="355" type="curve" smooth="yes"/>
      <point x="309" y="355"/>
      <point x="374" y="420"/>
      <point x="374" y="535" type="curve" smooth="yes"/>
      <point x="374" y="650"/>
      <point x="310" y="715"/>
      <point x="195" y="715" type="curve" smooth="yes"/>
      <point x="81" y="715"/>
      <point x="16" y="650"/>
      <point x="16" y="535" type="curve" smooth="yes"/>
    </contour>
    <contour>
      <point x="266" y="464"/>
      <point x="242" y="431"/>
      <point x="195" y="431" type="curve" smooth="yes"/>
      <point x="148" y="431"/>
      <point x="124" y="464"/>
      <point x="124" y="535" type="curve" smooth="yes"/>
      <point x="124" y="606"/>
      <point x="148" y="638"/>
      <point x="195" y="638" type="curve" smooth="yes"/>
      <point x="243" y="638"/>
      <point x="266" y="606"/>
      <point x="266" y="535" type="curve" smooth="yes"/>
    </contour>
  </outline>
</glyph>
<glyph name="questiondown" format="1">
  <advance width="438"/>
  <unicode hex="00BF"/>
  <outline>
    <contour>
      <point x="197" y="388" type="line"/>
      <point x="351" y="388" type="line"/>
      <point x="351" y="525" type="line"/>
      <point x="197" y="525" type="line"/>
    </contour>
    <contour>
      <point x="159" y="118"/>
      <point x="345" y="58"/>
      <point x="345" y="332" type="curve"/>
      <point x="204" y="332" type="line"/>
      <point x="204" y="106"/>
      <point x="7" y="179"/>
      <point x="7" y="-29" type="curve" smooth="yes"/>
      <point x="7" y="-148"/>
      <point x="101" y="-220"/>
      <point x="242" y="-220" type="curve" smooth="yes"/>
      <point x="311" y="-220"/>
      <point x="387" y="-201"/>
      <point x="447" y="-167" type="curve"/>
      <point x="406" y="-63" type="line"/>
      <point x="349" y="-88"/>
      <point x="303" y="-101"/>
      <point x="263" y="-101" type="curve" smooth="yes"/>
      <point x="201" y="-101"/>
      <point x="159" y="-71"/>
      <point x="159" y="-18" type="curve" smooth="yes"/>
    </contour>
  </outline>
</glyph>
<glyph name="AE" format="1">
  <advance width="984"/>
  <unicode hex="00C6"/>
  <outline>
    <contour>
      <point x="947" y="111" type="line"/>
      <point x="645" y="111" type="line"/>
      <point x="645" y="311" type="line"/>
      <point x="911" y="311" type="line"/>
      <point x="911" y="420" type="line"/>
      <point x="645" y="420" type="line"/>
      <point x="645" y="599" type="line"/>
      <point x="938" y="599" type="line"/>
      <point x="938" y="709" type="line"/>
      <point x="393" y="709" type="line"/>
      <point x="4" y="0" type="line"/>
      <point x="159" y="0" type="line"/>
      <point x="258" y="184" type="line"/>
      <point x="493" y="184" type="line"/>
      <point x="493" y="0" type="line"/>
      <point x="947" y="0" type="line"/>
    </contour>
    <contour>
      <point x="493" y="292" type="line"/>
      <point x="316" y="292" type="line"/>
      <point x="493" y="622" type="line"/>
    </contour>
  </outline>
</glyph>
<glyph name="Iacute" format="1">
  <advance width="314"/>
  <unicode hex="00CD"/>
  <outline>
    <contour>
      <point x="246" y="965" type="line"/>
      <point x="90" y="804" type="line"/>
      <point x="131" y="754" type="line"/>
      <point x="311" y="879" type="line"/>
    </contour>
    <contour>
      <point x="234" y="709" type="line"/>
      <point x="81" y="709" type="line"/>
      <point x="81" y="0" type="line"/>
      <point x="234" y="0" type="line"/>
    </contour>
  </outline>
</glyph>
<glyph name="ccedilla" format="1">
  <advance width="477"/>
  <unicode hex="00E7"/>
  <outline>
    <contour>
      <point x="298" y="-8" type="line"/>
      <point x="351" y="-8"/>
      <point x="409" y="5"/>
      <point x="458" y="26" type="curve"/>
      <point x="434" y="128" type="line"/>
      <point x="400" y="113"/>
      <point x="359" y="104"/>
      <point x="324" y="104" type="curve" smooth="yes"/>
      <point x="234" y="104"/>
      <point x="183" y="161"/>
      <point x="183" y="263" type="curve" smooth="yes"/>
      <point x="183" y="365"/>
      <point x="232" y="424"/>
      <point x="319" y="424" type="curve" smooth="yes"/>
      <point x="353" y="424"/>
      <point x="386" y="415"/>
      <point x="422" y="396" type="curve"/>
      <point x="455" y="495" type="line"/>
      <point x="408" y="519"/>
      <point x="355" y="532"/>
      <point x="303" y="532" type="curve" smooth="yes"/>
      <point x="131" y="532"/>
      <point x="32" y="434"/>
      <point x="32" y="263" type="curve" smooth="yes"/>
      <point x="32" y="107"/>
      <point x="109" y="13"/>
      <point x="249" y="-5" type="curve"/>
      <point x="211" y="-56" type="line"/>
      <point x="221" y="-82" type="line"/>
      <point x="261" y="-91"/>
      <point x="278" y="-104"/>
      <point x="278" y="-124" type="curve" smooth="yes"/>
      <point x="278" y="-144"/>
      <point x="264" y="-154"/>
      <point x="243" y="-154" type="curve" smooth="yes"/>
      <point x="225" y="-154"/>
      <point x="205" y="-148"/>
      <point x="194" y="-142" type="curve"/>
      <point x="172" y="-189" type="line"/>
      <point x="196" y="-203"/>
      <point x="231" y="-216"/>
      <point x="267" y="-216" type="curve" smooth="yes"/>
      <point x="317" y="-216"/>
      <point x="360" y="-187"/>
      <point x="360" y="-128" type="curve" smooth="yes"/>
      <point x="360" y="-94"/>
      <point x="328" y="-58"/>
      <point x="286" y="-45" type="curve"/>
    </contour>
  </outline>
</glyph>
<glyph name="cacute" format="1">
  <advance width="477"/>
  <unicode hex="0107"/>
  <outline>
    <contour>
      <point x="363" y="781" type="line"/>
      <point x="207" y="620" type="line"/>
      <point x="248" y="570" type="line"/>
      <point x="428" y="695" type="line"/>
    </contour>
    <contour>
      <point x="131" y="532"/>
      <point x="32" y="434"/>
      <point x="32" y="263" type="curve" smooth="yes"/>
      <point x="32" y="89"/>
      <point x="127" y="-8"/>
      <point x="300" y="-8" type="curve" smooth="yes"/>
      <point x="351" y="-8"/>
      <point x="410" y="5"/>
      <point x="458" y="26" type="curve"/>
      <point x="434" y="128" type="line"/>
      <point x="400" y="113"/>
      <point x="359" y="104"/>
      <point x="324" y="104" type="curve" smooth="yes"/>
      <point x="234" y="104"/>
      <point x="183" y="161"/>
      <point x="183" y="263" type="curve" smooth="yes"/>
      <point x="183" y="365"/>
      <point x="232" y="424"/>
      <point x="319" y="424" type="curve" smooth="yes"/>
      <point x="353" y="424"/>
      <point x="386" y="415"/>
      <point x="422" y="396" type="curve"/>
      <point x="455" y="495" type="line"/>
      <point x="408" y="519"/>
      <point x="355" y="532"/>
      <point x="303" y="532" type="curve" smooth="yes"/>
    </contour>
  </outline>
</glyph>
<glyph name="Ecaron" format="1">
  <advance width="587"/>
  <unicode hex="011A"/>
  <outline>
    <contour>
      <point x="491" y="899" type="line"/>
      <point x="450" y="949" type="line"/>
      <point x="319" y="862" type="line"/>
      <point x="189" y="949" type="line"/>
      <point x="148" y="899" type="line"/>
      <point x="304" y="758" type="line"/>
      <point x="335" y="758" type="line"/>
    </contour>
    <contour>
      <point x="543" y="709" type="line"/>
      <point x="81" y="709" type="line"/>
      <point x="81" y="0" type="line"/>
      <point x="553" y="0" type="line"/>
      <point x="553" y="113" type="line"/>
      <point x="234" y="113" type="line"/>
      <point x="234" y="310" type="line"/>
      <point x="513" y="310" type="line"/>
      <point x="513" y="421" type="line"/>
      <point x="234" y="421" type="line"/>
      <point x="234" y="596" type="line"/>
      <point x="543" y="596" type="line"/>
    </contour>
  </outline>
</glyph>
<glyph name="hbar" format="1">
  <advance width="630"/>
  <unicode hex="0127"/>
  <outline>
    <contour>
      <point x="224" y="671" type="line"/>
      <point x="224" y="754" type="line"/>
      <point x="74" y="754" type="line"/>
      <point x="74" y="671" type="line"/>
      <point x="12" y="671" type="line"/>
      <point x="12" y="571" type="line"/>
      <point x="74" y="571" type="line"/>
      <point x="74" y="0" type="line"/>
      <point x="224" y="0" type="line"/>
      <point x="224" y="353" type="line"/>
      <point x="249" y="391"/>
      <point x="294" y="414"/>
      <point x="341" y="414" type="curve" smooth="yes"/>
      <point x="395" y="414"/>
      <point x="418" y="388"/>
      <point x="418" y="327" type="curve" smooth="yes"/>
      <point x="418" y="0" type="line"/>
      <point x="568" y="0" type="line"/>
      <point x="568" y="335" type="line" smooth="yes"/>
      <point x="568" y="453"/>
      <point x="507" y="519"/>
      <point x="396" y="519" type="curve" smooth="yes"/>
      <point x="328" y="519"/>
      <point x="268" y="494"/>
      <point x="224" y="447" type="curve"/>
      <point x="224" y="571" type="line"/>
      <point x="345" y="571" type="line"/>
      <point x="345" y="671" type="line"/>
    </contour>
  </outline>
</glyph>
<glyph name="iogonek" format="1">
  <advance width="296"/>
  <unicode hex="012F"/>
  <outline>
    <contour>
      <point x="223" y="735" type="line"/>
      <point x="73" y="735" type="line"/>
      <point x="73" y="598" type="line"/>
      <point x="223" y="598" type="line"/>
    </contour>
    <contour>
      <point x="27" y="-185"/>
      <point x="71" y="-225"/>
      <point x="133" y="-225" type="curve" smooth="yes"/>
      <point x="178" y="-225"/>
      <point x="212" y="-214"/>
      <point x="254" y="-192" type="curve"/>
      <point x="235" y="-141" type="line"/>
      <point x="221" y="-148"/>
      <point x="203" y="-152"/>
      <point x="187" y="-152" type="curve" smooth="yes"/>
      <point x="156" y="-152"/>
      <point x="144" y="-131"/>
      <point x="144" y="-105" type="curve" smooth="yes"/>
      <point x="144" y="-63"/>
      <point x="174" y="-28"/>
      <point x="223" y="0" type="curve"/>
      <point x="223" y="518" type="line"/>
      <point x="73" y="518" type="line"/>
      <point x="73" y="0" type="line"/>
      <point x="112" y="0" type="line"/>
      <point x="70" y="-27"/>
      <point x="27" y="-75"/>
      <point x="27" y="-130" type="curve" smooth="yes"/>
    </contour>
  </outline>
</glyph>
<glyph name="dotlessi" format="1">
  <advance width="295"/>
  <unicode hex="0131"/>
  <outline>
    <contour>
      <point x="222" y="517" type="line"/>
      <point x="73" y="517" type="line"/>
      <point x="73" y="0" type="line"/>
      <point x="222" y="0" type="line"/>
    </contour>
  </outline>
</glyph>
<glyph name="jcircumflex" format="1">
  <advance width="297"/>
  <unicode hex="0135"/>
  <outline>
    <contour>
      <point x="321" y="617" type="line"/>
      <point x="165" y="758" type="line"/>
      <point x="134" y="758" type="line"/>
      <point x="-22" y="617" type="line"/>
      <point x="19" y="567" type="line"/>
      <point x="149" y="654" type="line"/>
      <point x="280" y="567" type="line"/>
    </contour>
    <contour>
      <point x="49" y="-197" type="line"/>
      <point x="164" y="-108"/>
      <point x="226" y="-7"/>
      <point x="226" y="99" type="curve" smooth="yes"/>
      <point x="226" y="517" type="line"/>
      <point x="76" y="517" type="line"/>
      <point x="76" y="99" type="line" smooth="yes"/>
      <point x="76" y="24"/>
      <point x="44" y="-52"/>
      <point x="-27" y="-140" type="curve"/>
    </contour>
  </outline>
</glyph>
<glyph name="kgreenlandic" format="1">
  <advance width="590"/>
  <unicode hex="0138"/>
  <outline>
    <contour>
      <point x="223" y="524" type="line"/>
      <point x="73" y="524" type="line"/>
      <point x="73" y="0" type="line"/>
      <point x="223" y="0" type="line"/>
    </contour>
    <contour>
      <point x="412" y="524" type="line"/>
      <point x="232" y="291" type="line"/>
      <point x="421" y="0" type="line"/>
      <point x="588" y="0" type="line"/>
      <point x="388" y="296" type="line"/>
      <point x="572" y="524" type="line"/>
    </contour>
  </outline>
</glyph>
<glyph name="lacute" format="1">
  <advance width="298"/>
  <unicode hex="013A"/>
  <outline>
    <contour>
      <point x="238" y="978" type="line"/>
      <point x="82" y="817" type="line"/>
      <point x="123" y="767" type="line"/>
      <point x="303" y="892" type="line"/>
    </contour>
    <contour>
      <point x="224" y="752" type="line"/>
      <point x="74" y="752" type="line"/>
      <point x="74" y="0" type="line"/>
      <point x="224" y="0" type="line"/>
    </contour>
  </outline>
</glyph>
<glyph name="Ncaron" format="1">
  <advance width="752"/>
  <unicode hex="0147"/>
  <outline>
    <contour>
      <point x="367" y="758" type="line"/>
      <point x="398" y="758" type="line"/>
      <point x="554" y="899" type="line"/>
      <point x="513" y="949" type="line"/>
      <point x="382" y="862" type="line"/>
      <point x="252" y="949" type="line"/>
      <point x="211" y="899" type="line"/>
    </contour>
    <contour>
      <point x="672" y="709" type="line"/>
      <point x="532" y="709" type="line"/>
      <point x="532" y="221" type="line"/>
      <point x="496" y="281"/>
      <point x="456" y="347"/>
      <point x="418" y="401" type="curve" smooth="yes"/>
      <point x="202" y="709" type="line"/>
      <point x="81" y="709" type="line"/>
      <point x="81" y="0" type="line"/>
      <point x="220" y="0" type="line"/>
      <point x="220" y="491" type="line"/>
      <point x="255" y="432"/>
      <point x="294" y="366"/>
      <point x="330" y="314" type="curve" smooth="yes"/>
      <point x="550" y="0" type="line"/>
      <point x="672" y="0" type="line"/>
    </contour>
  </outline>
</glyph>
<glyph name="Obreve" format="1">
  <advance width="753"/>
  <unicode hex="014E"/>
  <outline>
    <contour>
      <point x="449" y="902" type="line"/>
      <point x="449" y="863"/>
      <point x="420" y="836"/>
      <point x="376" y="836" type="curve" smooth="yes"/>
      <point x="331" y="836"/>
      <point x="304" y="861"/>
      <point x="304" y="902" type="curve"/>
      <point x="219" y="902" type="line"/>
      <point x="219" y="814"/>
      <point x="280" y="757"/>
      <point x="376" y="757" type="curve" smooth="yes"/>
      <point x="472" y="757"/>
      <point x="534" y="814"/>
      <point x="534" y="902" type="curve"/>
    </contour>
    <contour>
      <point x="156" y="719"/>
      <point x="37" y="590"/>
      <point x="37" y="358" type="curve" smooth="yes"/>
      <point x="37" y="120"/>
      <point x="154" y="-9"/>
      <point x="377" y="-9" type="curve" smooth="yes"/>
      <point x="599" y="-9"/>
      <point x="717" y="121"/>
      <point x="717" y="358" type="curve" smooth="yes"/>
      <point x="717" y="589"/>
      <point x="597" y="719"/>
      <point x="377" y="719" type="curve" smooth="yes"/>
    </contour>
    <contour>
      <point x="498" y="599"/>
      <point x="559" y="514"/>
      <point x="559" y="358" type="curve" smooth="yes"/>
      <point x="559" y="198"/>
      <point x="498" y="111"/>
      <point x="377" y="111" type="curve" smooth="yes"/>
      <point x="256" y="111"/>
      <point x="195" y="197"/>
      <point x="195" y="358" type="curve" smooth="yes"/>
      <point x="195" y="515"/>
      <point x="255" y="599"/>
      <point x="377" y="599" type="curve" smooth="yes"/>
    </contour>
  </outline>
</glyph>
<glyph name="racute" format="1">
  <advance width="415"/>
  <unicode hex="0155"/>
  <outline>
    <contour>
      <point x="335" y="781" type="line"/>
      <point x="179" y="620" type="line"/>
      <point x="220" y="570" type="line"/>
      <point x="400" y="695" type="line"/>
    </contour>
    <contour>
      <point x="190" y="524" type="line"/>
      <point x="71" y="524" type="line"/>
      <point x="71" y="0" type="line"/>
      <point x="221" y="0" type="line"/>
      <point x="221" y="354" type="line"/>
      <point x="244" y="390"/>
      <point x="275" y="406"/>
      <point x="322" y="406" type="curve" smooth="yes"/>
      <point x="342" y="406"/>
      <point x="368" y="401"/>
      <point x="396" y="391" type="curve"/>
      <point x="413" y="522" type="line"/>
      <point x="385" y="530"/>
      <point x="372" y="532"/>
      <point x="346" y="532" type="curve" smooth="yes"/>
      <point x="285" y="532"/>
      <point x="240" y="504"/>
      <point x="208" y="451" type="curve"/>
    </contour>
  </outline>
</glyph>
<glyph name="uni0163" format="1">
  <advance width="417"/>
  <unicode hex="0163"/>
  <outline>
    <contour>
      <point x="270" y="-8" type="line"/>
      <point x="315" y="-8"/>
      <point x="355" y="2"/>
      <point x="398" y="20" type="curve"/>
      <point x="376" y="116" type="line"/>
      <point x="353" y="108"/>
      <point x="331" y="104"/>
      <point x="310" y="104" type="curve" smooth="yes"/>
      <point x="262" y="104"/>
      <point x="244" y="125"/>
      <point x="244" y="178" type="curve" smooth="yes"/>
      <point x="244" y="419" type="line"/>
      <point x="387" y="419" type="line"/>
      <point x="387" y="524" type="line"/>
      <point x="244" y="524" type="line"/>
      <point x="244" y="674" type="line"/>
      <point x="134" y="674" type="line"/>
      <point x="105" y="524" type="line"/>
      <point x="9" y="524" type="line"/>
      <point x="9" y="419" type="line"/>
      <point x="95" y="419" type="line"/>
      <point x="95" y="157" type="line" smooth="yes"/>
      <point x="95" y="64"/>
      <point x="137" y="9"/>
      <point x="222" y="-4" type="curve"/>
      <point x="183" y="-56" type="line"/>
      <point x="193" y="-82" type="line"/>
      <point x="233" y="-91"/>
      <point x="250" y="-104"/>
      <point x="250" y="-124" type="curve" smooth="yes"/>
      <point x="250" y="-144"/>
      <point x="236" y="-154"/>
      <point x="215" y="-154" type="curve" smooth="yes"/>
      <point x="197" y="-154"/>
      <point x="177" y="-148"/>
      <point x="166" y="-142" type="curve"/>
      <point x="144" y="-189" type="line"/>
      <point x="168" y="-203"/>
      <point x="203" y="-216"/>
      <point x="239" y="-216" type="curve" smooth="yes"/>
      <point x="289" y="-216"/>
      <point x="332" y="-187"/>
      <point x="332" y="-128" type="curve" smooth="yes"/>
      <point x="332" y="-94"/>
      <point x="300" y="-58"/>
      <point x="258" y="-45" type="curve"/>
    </contour>
  </outline>
</glyph>
<glyph name="tbar" format="1">
  <advance width="417"/>
  <unicode hex="0167"/>
  <outline>
    <contour>
      <point x="377" y="116" type="line"/>
      <point x="353" y="108"/>
      <point x="332" y="104"/>
      <point x="311" y="104" type="curve" smooth="yes"/>
      <point x="263" y="104"/>
      <point x="244" y="125"/>
      <point x="244" y="178" type="curve" smooth="yes"/>
      <point x="244" y="255" type="line"/>
      <point x="387" y="255" type="line"/>
      <point x="387" y="353" type="line"/>
      <point x="244" y="353" type="line"/>
      <point x="244" y="426" type="line"/>
      <point x="388" y="426" type="line"/>
      <point x="388" y="524" type="line"/>
      <point x="244" y="524" type="line"/>
      <point x="244" y="674" type="line"/>
      <point x="134" y="674" type="line"/>
      <point x="105" y="524" type="line"/>
      <point x="9" y="524" type="line"/>
      <point x="9" y="426" type="line"/>
      <point x="95" y="426" type="line"/>
      <point x="95" y="353" type="line"/>
      <point x="9" y="353" type="line"/>
      <point x="9" y="255" type="line"/>
      <point x="95" y="255" type="line"/>
      <point x="95" y="157" type="line" smooth="yes"/>
      <point x="95" y="48"/>
      <point x="154" y="-8"/>
      <point x="269" y="-8" type="curve" smooth="yes"/>
      <point x="315" y="-8"/>
      <point x="355" y="2"/>
      <point x="398" y="20" type="curve"/>
    </contour>
  </outline>
</glyph>
<glyph name="utilde" format="1">
  <advance width="628"/>
  <unicode hex="0169"/>
  <outline>
    <contour>
      <point x="157" y="743"/>
      <point x="108" y="689"/>
      <point x="108" y="601" type="curve"/>
      <point x="193" y="601" type="line"/>
      <point x="193" y="637"/>
      <point x="211" y="658"/>
      <point x="239" y="658" type="curve" smooth="yes"/>
      <point x="285" y="658"/>
      <point x="305" y="590"/>
      <point x="382" y="590" type="curve" smooth="yes"/>
      <point x="457" y="590"/>
      <point x="506" y="646"/>
      <point x="506" y="732" type="curve"/>
      <point x="422" y="732" type="line"/>
      <point x="422" y="698"/>
      <point x="406" y="676"/>
      <point x="381" y="676" type="curve" smooth="yes"/>
      <point x="325" y="676"/>
      <point x="317" y="743"/>
      <point x="235" y="743" type="curve" smooth="yes"/>
    </contour>
    <contour>
      <point x="62" y="176" type="line" smooth="yes"/>
      <point x="62" y="58"/>
      <point x="124" y="-8"/>
      <point x="237" y="-8" type="curve" smooth="yes"/>
      <point x="309" y="-8"/>
      <point x="370" y="20"/>
      <point x="414" y="73" type="curve"/>
      <point x="431" y="0" type="line"/>
      <point x="555" y="0" type="line"/>
      <point x="555" y="524" type="line"/>
      <point x="405" y="524" type="line"/>
      <point x="405" y="158" type="line"/>
      <point x="379" y="120"/>
      <point x="334" y="98"/>
      <point x="288" y="98" type="curve" smooth="yes"/>
      <point x="235" y="98"/>
      <point x="212" y="124"/>
      <point x="212" y="184" type="curve" smooth="yes"/>
      <point x="212" y="524" type="line"/>
      <point x="62" y="524" type="line"/>
    </contour>
  </outline>
</glyph>
<glyph name="Ubreve" format="1">
  <advance width="724"/>
  <unicode hex="016C"/>
  <outline>
    <contour>
      <point x="436" y="902" type="line"/>
      <point x="436" y="863"/>
      <point x="407" y="836"/>
      <point x="363" y="836" type="curve" smooth="yes"/>
      <point x="318" y="836"/>
      <point x="291" y="861"/>
      <point x="291" y="902" type="curve"/>
      <point x="206" y="902" type="line"/>
      <point x="206" y="814"/>
      <point x="267" y="757"/>
      <point x="363" y="757" type="curve" smooth="yes"/>
      <point x="459" y="757"/>
      <point x="521" y="814"/>
      <point x="521" y="902" type="curve"/>
    </contour>
    <contour>
      <point x="658" y="709" type="line"/>
      <point x="505" y="709" type="line"/>
      <point x="505" y="240" type="line" smooth="yes"/>
      <point x="505" y="154"/>
      <point x="456" y="111"/>
      <point x="362" y="111" type="curve" smooth="yes"/>
      <point x="266" y="111"/>
      <point x="219" y="154"/>
      <point x="219" y="240" type="curve" smooth="yes"/>
      <point x="219" y="709" type="line"/>
      <point x="66" y="709" type="line"/>
      <point x="66" y="242" type="line" smooth="yes"/>
      <point x="66" y="76"/>
      <point x="168" y="-10"/>
      <point x="362" y="-10" type="curve" smooth="yes"/>
      <point x="553" y="-10"/>
      <point x="658" y="78"/>
      <point x="658" y="242" type="curve" smooth="yes"/>
    </contour>
  </outline>
</glyph>
<glyph name="ycircumflex" format="1">
  <advance width="541"/>
  <unicode hex="0177"/>
  <outline>
    <contour>
      <point x="150" y="567" type="line"/>
      <point x="280" y="654" type="line"/>
      <point x="411" y="567" type="line"/>
      <point x="452" y="617" type="line"/>
      <point x="296" y="758" type="line"/>
      <point x="265" y="758" type="line"/>
      <point x="109" y="617" type="line"/>
    </contour>
    <contour>
      <point x="540" y="524" type="line"/>
      <point x="396" y="524" type="line"/>
      <point x="339" y="365" type="line" smooth="yes"/>
      <point x="312" y="287"/>
      <point x="293" y="201"/>
      <point x="273" y="124" type="curve"/>
      <point x="252" y="201"/>
      <point x="230" y="290"/>
      <point x="204" y="363" type="curve" smooth="yes"/>
      <point x="145" y="524" type="line"/>
      <point x="2" y="524" type="line"/>
      <point x="200" y="3" type="line"/>
      <point x="116" y="-229" type="line"/>
      <point x="253" y="-229" type="line"/>
    </contour>
  </outline>
</glyph>
<glyph name="caron" format="1">
  <advance width="415"/>
  <unicode hex="02C7"/>
  <outline>
    <contour>
      <point x="379" y="718" type="line"/>
      <point x="338" y="768" type="line"/>
      <point x="207" y="681" type="line"/>
      <point x="77" y="768" type="line"/>
      <point x="36" y="718" type="line"/>
      <point x="192" y="577" type="line"/>
      <point x="223" y="577" type="line"/>
    </contour>
  </outline>
</glyph>
<glyph name="dotaccent" format="1">
  <advance width="194"/>
  <unicode hex="02D9"/>
  <outline>
    <contour>
      <point x="158" y="720" type="line"/>
      <point x="36" y="720" type="line"/>
      <point x="36" y="602" type="line"/>
      <point x="158" y="602" type="line"/>
    </contour>
  </outline>
</glyph>
<glyph name="ring" format="1">
  <advance width="350"/>
  <unicode hex="02DA"/>
  <outline>
    <contour>
      <point x="99" y="838"/>
      <point x="36" y="777"/>
      <point x="36" y="705" type="curve" smooth="yes"/>
      <point x="36" y="633"/>
      <point x="99" y="572"/>
      <point x="175" y="572" type="curve" smooth="yes"/>
      <point x="250" y="572"/>
      <point x="313" y="633"/>
      <point x="313" y="705" type="curve" smooth="yes"/>
      <point x="313" y="777"/>
      <point x="250" y="838"/>
      <point x="175" y="838" type="curve" smooth="yes"/>
    </contour>
    <contour>
      <point x="209" y="762"/>
      <point x="232" y="737"/>
      <point x="232" y="705" type="curve" smooth="yes"/>
      <point x="232" y="673"/>
      <point x="208" y="646"/>
      <point x="175" y="646" type="curve" smooth="yes"/>
      <point x="141" y="646"/>
      <point x="116" y="673"/>
      <point x="116" y="705" type="curve" smooth="yes"/>
      <point x="116" y="737"/>
      <point x="140" y="762"/>
      <point x="175" y="762" type="curve" smooth="yes"/>
    </contour>
  </outline>
</glyph>
<glyph name="tilde" format="1">
  <advance width="470"/>
  <unicode hex="02DC"/>
  <outline>
    <contour>
      <point x="85" y="743"/>
      <point x="36" y="689"/>
      <point x="36" y="601" type="curve"/>
      <point x="121" y="601" type="line"/>
      <point x="121" y="637"/>
      <point x="139" y="658"/>
      <point x="167" y="658" type="curve" smooth="yes"/>
      <point x="213" y="658"/>
      <point x="233" y="590"/>
      <point x="310" y="590" type="curve" smooth="yes"/>
      <point x="385" y="590"/>
      <point x="434" y="646"/>
      <point x="434" y="732" type="curve"/>
      <point x="350" y="732" type="line"/>
      <point x="350" y="698"/>
      <point x="334" y="676"/>
      <point x="309" y="676" type="curve" smooth="yes"/>
      <point x="253" y="676"/>
      <point x="245" y="743"/>
      <point x="163" y="743" type="curve" smooth="yes"/>
    </contour>
  </outline>
</glyph>
<glyph name="candraBindu-deva" format="1">
  <advance width="453"/>
  <unicode hex="0901"/>
  <outline>
    <component base="eCandraMatra-deva" xOffset="17"/>
    <component base="nukta-deva" xOffset="105" yOffset="1074"/>
    <contour>
      <point x="227" y="685" type="move" name="_top"/>
    </contour>
  </outline>
</glyph>
<glyph name="visarga-deva" format="1">
  <advance width="252"/>
  <unicode hex="0903"/>
  <outline>
    <contour>
      <point x="168" y="89"/>
      <point x="202" y="123"/>
      <point x="202" y="165" type="curve" smooth="yes"/>
      <point x="202" y="207"/>
      <point x="168" y="241"/>
      <point x="126" y="241" type="curve" smooth="yes"/>
      <point x="84" y="241"/>
      <point x="50" y="207"/>
      <point x="50" y="165" type="curve" smooth="yes"/>
      <point x="50" y="123"/>
      <point x="84" y="89"/>
      <point x="126" y="89" type="curve" smooth="yes"/>
    </contour>
    <contour>
      <point x="168" y="379"/>
      <point x="202" y="413"/>
      <point x="202" y="455" type="curve" smooth="yes"/>
      <point x="202" y="497"/>
      <point x="168" y="531"/>
      <point x="126" y="531" type="curve" smooth="yes"/>
      <point x="84" y="531"/>
      <point x="50" y="497"/>
      <point x="50" y="455" type="curve" smooth="yes"/>
      <point x="50" y="413"/>
      <point x="84" y="379"/>
      <point x="126" y="379" type="curve" smooth="yes"/>
    </contour>
  </outline>
</glyph>
<glyph name="a-deva" format="1">
  <advance width="859"/>
  <unicode hex="0905"/>
  <outline>
    <contour>
      <point x="245" y="344" type="line"/>
      <point x="302" y="325"/>
      <point x="349" y="280"/>
      <point x="349" y="223" type="curve" smooth="yes"/>
      <point x="349" y="173"/>
      <point x="311" y="142"/>
      <point x="261" y="142" type="curve" smooth="yes"/>
      <point x="199" y="142"/>
      <point x="146" y="173"/>
      <point x="103" y="231" type="curve"/>
      <point x="8" y="168" type="line"/>
      <point x="77" y="64"/>
      <point x="171" y="22"/>
      <point x="269" y="22" type="curve" smooth="yes"/>
      <point x="399" y="22"/>
      <point x="484" y="93"/>
      <point x="484" y="223" type="curve" smooth="yes"/>
      <point x="484" y="309"/>
      <point x="427" y="369"/>
      <point x="333" y="410" type="curve"/>
    </contour>
    <contour>
      <point x="202" y="685"/>
      <point x="147" y="675"/>
      <point x="97" y="649" type="curve"/>
      <point x="132" y="546" type="line"/>
      <point x="175" y="563"/>
      <point x="200" y="575"/>
      <point x="238" y="575" type="curve" smooth="yes"/>
      <point x="295" y="575"/>
      <point x="318" y="549"/>
      <point x="318" y="512" type="curve" smooth="yes"/>
      <point x="318" y="458"/>
      <point x="279" y="430"/>
      <point x="164" y="406" type="curve"/>
      <point x="194" y="298" type="line"/>
      <point x="398" y="330"/>
      <point x="453" y="419"/>
      <point x="453" y="513" type="curve" smooth="yes"/>
      <point x="453" y="593"/>
      <point x="397" y="685"/>
      <point x="254" y="685" type="curve" smooth="yes"/>
    </contour>
    <contour>
      <point x="315" y="342" type="line"/>
      <point x="364" y="304"/>
      <point x="438" y="281"/>
      <point x="511" y="281" type="curve" smooth="yes"/>
      <point x="572" y="281"/>
      <point x="637" y="292"/>
      <point x="683" y="312" type="curve"/>
      <point x="659" y="416" type="line"/>
      <point x="620" y="395"/>
      <point x="572" y="385"/>
      <point x="511" y="385" type="curve" smooth="yes"/>
      <point x="447" y="385"/>
      <point x="388" y="398"/>
      <point x="343" y="422" type="curve"/>
    </contour>
    <contour>
      <point x="619" y="608" type="line"/>
      <point x="619" y="0" type="line"/>
      <point x="754" y="0" type="line"/>
      <point x="754" y="608" type="line"/>
    </contour>
    <contour>
      <point x="494" y="685" type="line"/>
      <point x="494" y="575" type="line"/>
      <point x="879" y="575" type="line"/>
      <point x="879" y="685" type="line"/>
    </contour>
    <contour>
      <point x="687" y="685" type="move" name="top"/>
    </contour>
    <contour>
      <point x="687" y="0" type="move" name="bottom"/>
    </contour>
  </outline>
</glyph>
<glyph name="i-deva" format="1">
  <advance width="599"/>
  <unicode hex="0907"/>
  <outline>
    <contour>
      <point x="208" y="518" type="line"/>
      <point x="117" y="518"/>
      <point x="61" y="474"/>
      <point x="61" y="404" type="curve"/>
      <point x="61" y="299"/>
      <point x="129" y="224"/>
      <point x="224" y="224" type="curve" smooth="yes"/>
      <point x="258" y="224"/>
      <point x="347" y="245"/>
      <point x="372" y="245" type="curve" smooth="yes"/>
      <point x="395" y="245"/>
      <point x="416" y="232"/>
      <point x="416" y="202" type="curve" smooth="yes"/>
      <point x="416" y="120"/>
      <point x="313" y="118"/>
      <point x="246" y="118" type="curve"/>
      <point x="250" y="8" type="line"/>
      <point x="369" y="8"/>
      <point x="551" y="32"/>
      <point x="551" y="214" type="curve" smooth="yes"/>
      <point x="551" y="303"/>
      <point x="499" y="355"/>
      <point x="412" y="355" type="curve" smooth="yes"/>
      <point x="377" y="355"/>
      <point x="266" y="334"/>
      <point x="239" y="334" type="curve" smooth="yes"/>
      <point x="215" y="334"/>
      <point x="196" y="347"/>
      <point x="196" y="386" type="curve"/>
      <point x="196" y="402"/>
      <point x="205" y="408"/>
      <point x="222" y="408" type="curve"/>
      <point x="490" y="407" type="line"/>
      <point x="388" y="518" type="line"/>
    </contour>
    <contour>
      <point x="79" y="204"/>
      <point x="60" y="155"/>
      <point x="60" y="122" type="curve" smooth="yes"/>
      <point x="60" y="33"/>
      <point x="123" y="9"/>
      <point x="269" y="9" type="curve"/>
      <point x="305" y="85" type="line"/>
      <point x="268" y="150"/>
      <point x="200" y="204"/>
      <point x="148" y="204" type="curve" smooth="yes"/>
    </contour>
    <contour>
      <point x="199" y="37" type="line"/>
      <point x="367" y="-163" type="line"/>
      <point x="452" y="-90" type="line"/>
      <point x="296" y="100" type="line"/>
    </contour>
    <contour>
      <point x="355" y="619" type="line"/>
      <point x="355" y="444" type="line"/>
      <point x="490" y="407" type="line"/>
      <point x="490" y="619" type="line"/>
    </contour>
    <contour>
      <point x="-20" y="685" type="line"/>
      <point x="-20" y="575" type="line"/>
      <point x="619" y="575" type="line"/>
      <point x="619" y="685" type="line"/>
    </contour>
    <contour>
      <point x="300" y="685" type="move" name="top"/>
    </contour>
    <contour>
      <point x="300" y="-163" type="move" name="bottom"/>
    </contour>
  </outline>
</glyph>
<glyph name="ii-deva" format="1">
  <advance width="599"/>
  <unicode hex="0908"/>
  <outline>
    <component base="i-deva"/>
    <component base="reph-deva" xOffset="229"/>
    <contour>
      <point x="439" y="944" type="move" name="top"/>
    </contour>
    <contour>
      <point x="300" y="-163" type="move" name="bottom"/>
    </contour>
  </outline>
</glyph>
<glyph name="oShort-deva" format="1">
  <advance width="1182"/>
  <unicode hex="0912"/>
  <outline>
    <component base="aa-deva"/>
    <component base="eShortMatra-deva" xOffset="626"/>
    <contour>
      <point x="1016" y="836" type="move" name="top"/>
    </contour>
    <contour>
      <point x="1016" y="0" type="move" name="bottom"/>
    </contour>
  </outline>
</glyph>
<glyph name="kha-deva" format="1">
  <advance width="975"/>
  <unicode hex="0916"/>
  <outline>
    <component base="kh-deva"/>
    <component base="aaMatra-deva" xOffset="630"/>
    <contour>
      <point x="202" y="-80" type="move" name="nukta"/>
    </contour>
    <contour>
      <point x="803" y="0" type="move" name="bottom"/>
    </contour>
    <contour>
      <point x="803" y="685" type="move" name="top"/>
    </contour>
  </outline>
</glyph>
<glyph name="jha-deva" format="1">
  <advance width="855"/>
  <unicode hex="091D"/>
  <outline>
    <component base="jh-deva"/>
    <component base="aaMatra-deva" xOffset="510"/>
    <contour>
      <point x="683" y="685" type="move" name="top"/>
    </contour>
    <contour>
      <point x="683" y="-163" type="move" name="bottom"/>
    </contour>
  </outline>
</glyph>
<glyph name="nnna-deva" format="1">
  <advance width="651"/>
  <unicode hex="0929"/>
  <outline>
    <component base="nnn-deva"/>
    <component base="aaMatra-deva" xOffset="306"/>
    <contour>
      <point x="478" y="685" type="move" name="top"/>
    </contour>
    <contour>
      <point x="478" y="0" type="move" name="bottom"/>
    </contour>
  </outline>
</glyph>
<glyph name="la-deva" format="1">
  <advance width="802"/>
  <unicode hex="0932"/>
  <outline>
    <component base="l-deva"/>
    <component base="aaMatra-deva" xOffset="457"/>
    <contour>
      <point x="630" y="685" type="move" name="top"/>
    </contour>
    <contour>
      <point x="630" y="0" type="move" name="bottom"/>
    </contour>
  </outline>
</glyph>
<glyph name="lla-deva" format="1">
  <advance width="868"/>
  <unicode hex="0933"/>
  <outline>
    <contour>
      <point x="535" y="609" type="line"/>
      <point x="535" y="450" type="line"/>
      <point x="670" y="450" type="line"/>
      <point x="670" y="609" type="line"/>
    </contour>
    <component base="ll-deva"/>
    <contour>
      <point x="434" y="-30" type="move" name="nukta"/>
    </contour>
    <contour>
      <point x="433" y="0" type="move" name="bottom"/>
    </contour>
    <contour>
      <point x="602" y="685" type="move" name="top"/>
    </contour>
  </outline>
</glyph>
<glyph name="ha-deva" format="1">
  <advance width="560"/>
  <unicode hex="0939"/>
  <outline>
    <contour>
      <point x="386" y="-8" type="line"/>
      <point x="271" y="8"/>
      <point x="211" y="51"/>
      <point x="211" y="122" type="curve" smooth="yes"/>
      <point x="211" y="167"/>
      <point x="246" y="200"/>
      <point x="300" y="200" type="curve" smooth="yes"/>
      <point x="332" y="200"/>
      <point x="360" y="184"/>
      <point x="360" y="161" type="curve" smooth="yes"/>
      <point x="360" y="142"/>
      <point x="351" y="125"/>
      <point x="325" y="98" type="curve"/>
      <point x="394" y="22" type="line"/>
      <point x="466" y="61"/>
      <point x="495" y="109"/>
      <point x="495" y="169" type="curve" smooth="yes"/>
      <point x="495" y="254"/>
      <point x="418" y="310"/>
      <point x="300" y="310" type="curve" smooth="yes"/>
      <point x="273" y="310"/>
      <point x="249" y="307"/>
      <point x="226" y="302" type="curve"/>
      <point x="214" y="317"/>
      <point x="206" y="333"/>
      <point x="206" y="349" type="curve" smooth="yes"/>
      <point x="206" y="370"/>
      <point x="218" y="383"/>
      <point x="242" y="383" type="curve" smooth="yes"/>
      <point x="489" y="383" type="line"/>
      <point x="489" y="599" type="line"/>
      <point x="354" y="599" type="line"/>
      <point x="354" y="493" type="line"/>
      <point x="187" y="493" type="line" smooth="yes"/>
      <point x="109" y="493"/>
      <point x="62" y="455"/>
      <point x="62" y="386" type="curve" smooth="yes"/>
      <point x="62" y="336"/>
      <point x="83" y="286"/>
      <point x="121" y="243" type="curve"/>
      <point x="92" y="211"/>
      <point x="76" y="170"/>
      <point x="76" y="122" type="curve" smooth="yes"/>
      <point x="76" y="-10"/>
      <point x="176" y="-90"/>
      <point x="373" y="-114" type="curve"/>
    </contour>
    <contour>
      <point x="580" y="575" type="line"/>
      <point x="580" y="685" type="line"/>
      <point x="-20" y="685" type="line"/>
      <point x="-20" y="575" type="line"/>
    </contour>
    <contour>
      <point x="429" y="685" type="move" name="top"/>
    </contour>
    <contour>
      <point x="280" y="-85" type="move" name="bottom"/>
    </contour>
  </outline>
</glyph>
<glyph name="avagraha-deva" format="1">
  <advance width="536"/>
  <unicode hex="093D"/>
  <outline>
    <contour>
      <point x="451" y="367"/>
      <point x="350" y="414" type="curve" smooth="yes"/>
      <point x="278" y="445"/>
      <point x="246" y="477"/>
      <point x="246" y="519" type="curve" smooth="yes"/>
      <point x="246" y="554"/>
      <point x="274" y="575"/>
      <point x="321" y="575" type="curve" smooth="yes"/>
      <point x="475" y="575" type="line"/>
      <point x="475" y="685" type="line"/>
      <point x="321" y="685" type="line" smooth="yes"/>
      <point x="184" y="685"/>
      <point x="102" y="622"/>
      <point x="102" y="518" type="curve" smooth="yes"/>
      <point x="102" y="422"/>
      <point x="150" y="363"/>
      <point x="263" y="320" type="curve" smooth="yes"/>
      <point x="331" y="292"/>
      <point x="358" y="262"/>
      <point x="358" y="213" type="curve" smooth="yes"/>
      <point x="358" y="171"/>
      <point x="322" y="142"/>
      <point x="270" y="142" type="curve" smooth="yes"/>
      <point x="209" y="142"/>
      <point x="156" y="172"/>
      <point x="112" y="231" type="curve"/>
      <point x="17" y="163" type="line"/>
      <point x="80" y="73"/>
      <point x="170" y="22"/>
      <point x="278" y="22" type="curve" smooth="yes"/>
      <point x="413" y="22"/>
      <point x="493" y="93"/>
      <point x="493" y="213" type="curve" smooth="yes"/>
      <point x="493" y="308"/>
    </contour>
  </outline>
</glyph>
<glyph name="rVocalicMatra-deva" format="1">
  <advance width="384"/>
  <unicode hex="0943"/>
  <outline>
    <contour>
      <point x="226" y="-162"/>
      <point x="197" y="-162" type="curve" smooth="yes"/>
      <point x="165" y="-162"/>
      <point x="153" y="-143"/>
      <point x="153" y="-122" type="curve" smooth="yes"/>
      <point x="153" y="-74"/>
      <point x="220" y="-69"/>
      <point x="272" y="-69" type="curve"/>
      <point x="241" y="28" type="line"/>
      <point x="99" y="28"/>
      <point x="33" y="-32"/>
      <point x="33" y="-122" type="curve" smooth="yes"/>
      <point x="33" y="-184"/>
      <point x="71" y="-270"/>
      <point x="185" y="-270" type="curve" smooth="yes"/>
      <point x="224" y="-270"/>
      <point x="278" y="-261"/>
      <point x="343" y="-208" type="curve"/>
      <point x="294" y="-120" type="line"/>
      <point x="245" y="-153"/>
    </contour>
    <contour>
      <point x="177" y="0" type="move" name="_bottom"/>
    </contour>
  </outline>
</glyph>
<glyph name="eShortMatra-deva" format="1">
  <advance width="492"/>
  <unicode hex="0946"/>
  <outline>
    <contour>
      <point x="-20" y="929" type="line"/>
      <point x="40" y="810"/>
      <point x="79" y="799"/>
      <point x="203" y="772" type="curve" smooth="yes"/>
      <point x="288" y="751"/>
      <point x="305" y="737"/>
      <point x="322" y="674" type="curve"/>
      <point x="449" y="674" type="line"/>
      <point x="433" y="785"/>
      <point x="380" y="837"/>
      <point x="250" y="868" type="curve" smooth="yes"/>
      <point x="149" y="891"/>
      <point x="143" y="882"/>
      <point x="87" y="974" type="curve"/>
    </contour>
    <contour>
      <point x="385" y="685" type="move" name="_top"/>
    </contour>
  </outline>
</glyph>
<glyph name="oShortMatra-deva" format="1">
  <advance width="345"/>
  <unicode hex="094A"/>
  <outline>
    <component base="aaMatra-deva"/>
    <component base="eShortMatra-deva" xOffset="-212"/>
    <contour>
      <point x="173" y="867" type="move" name="top"/>
    </contour>
  </outline>
</glyph>
<glyph name="auMatra-deva" format="1">
  <advance width="345"/>
  <unicode hex="094C"/>
  <outline>
    <component base="aaMatra-deva"/>
    <component base="aiMatra-deva" xOffset="-224"/>
    <contour>
      <point x="176" y="943" type="move" name="top"/>
    </contour>
  </outline>
</glyph>
<glyph name="awMatra-deva" format="1">
  <advance width="345"/>
  <unicode hex="094F"/>
  <outline>
    <contour>
      <point x="-192" y="975" type="line"/>
      <point x="-151" y="887"/>
      <point x="-110" y="872"/>
      <point x="-3" y="835" type="curve" smooth="yes"/>
      <point x="79" y="805"/>
      <point x="95" y="789"/>
      <point x="105" y="718" type="curve"/>
      <point x="111" y="662" type="line"/>
      <point x="231" y="663" type="line"/>
      <point x="231" y="800"/>
      <point x="180" y="874"/>
      <point x="55" y="919" type="curve" smooth="yes"/>
      <point x="-32" y="949"/>
      <point x="-47" y="946"/>
      <point x="-81" y="1013" type="curve"/>
    </contour>
    <contour>
      <point x="-294" y="795" type="line"/>
      <point x="-227" y="731"/>
      <point x="-188" y="714"/>
      <point x="-126" y="714" type="curve" smooth="yes"/>
      <point x="-85" y="714"/>
      <point x="-20" y="723"/>
      <point x="11" y="723" type="curve" smooth="yes"/>
      <point x="63" y="723"/>
      <point x="82" y="709"/>
      <point x="111" y="662" type="curve"/>
      <point x="169" y="662" type="line"/>
      <point x="124" y="813" type="line"/>
      <point x="-97" y="813" type="line"/>
      <point x="-133" y="813"/>
      <point x="-153" y="825"/>
      <point x="-207" y="871" type="curve"/>
    </contour>
    <component base="aaMatra-deva"/>
    <contour>
      <point x="174" y="923" type="move" name="top"/>
    </contour>
    <contour>
      <point x="173" y="0" type="move" name="bottom"/>
    </contour>
  </outline>
</glyph>
<glyph name="uueMatra-deva" format="1">
  <advance width="460"/>
  <unicode hex="0957"/>
  <outline>
    <component base="ueMatra-deva" yOffset="-158"/>
    <component base="ueMatra-deva" yOffset="20"/>
    <contour>
      <point x="228" y="0" type="move" name="_bottom"/>
    </contour>
  </outline>
</glyph>
<glyph name="za-deva" format="1">
  <advance width="840"/>
  <unicode hex="095B"/>
  <outline>
    <component base="ja-deva"/>
    <component base="nukta-deva" xOffset="175" yOffset="118"/>
    <contour>
      <point x="668" y="685" type="move" name="top"/>
    </contour>
    <contour>
      <point x="668" y="0" type="move" name="bottom"/>
    </contour>
  </outline>
</glyph>
<glyph name="dddha-deva" format="1">
  <advance width="617"/>
  <unicode hex="095C"/>
  <outline>
    <component base="dda-deva"/>
    <component base="nukta-deva" xOffset="489" yOffset="508"/>
    <contour>
      <point x="429" y="685" type="move" name="top"/>
    </contour>
    <contour>
      <point x="310" y="0" type="move" name="bottom"/>
    </contour>
  </outline>
</glyph>
<glyph name="llVocalicMatra-deva" format="1">
  <advance width="471"/>
  <unicode hex="0963"/>
  <outline>
    <contour>
      <point x="53" y="65"/>
      <point x="2" y="20"/>
      <point x="2" y="-58" type="curve" smooth="yes"/>
      <point x="2" y="-112"/>
      <point x="22" y="-182"/>
      <point x="66" y="-266" type="curve"/>
      <point x="159" y="-220" type="line"/>
      <point x="126" y="-166"/>
      <point x="108" y="-111"/>
      <point x="108" y="-65" type="curve" smooth="yes"/>
      <point x="108" y="-40"/>
      <point x="122" y="-25"/>
      <point x="143" y="-25" type="curve" smooth="yes"/>
      <point x="170" y="-25"/>
      <point x="187" y="-59"/>
      <point x="187" y="-101" type="curve"/>
      <point x="264" y="-101" type="line"/>
      <point x="264" y="1"/>
      <point x="216" y="65"/>
      <point x="134" y="65" type="curve" smooth="yes"/>
    </contour>
    <contour>
      <point x="315" y="-219"/>
      <point x="301" y="-245"/>
      <point x="301" y="-273" type="curve" smooth="yes"/>
      <point x="301" y="-322"/>
      <point x="344" y="-353"/>
      <point x="413" y="-353" type="curve" smooth="yes"/>
      <point x="441" y="-353"/>
      <point x="472" y="-346"/>
      <point x="502" y="-334" type="curve"/>
      <point x="488" y="-267" type="line"/>
      <point x="465" y="-277"/>
      <point x="448" y="-281"/>
      <point x="432" y="-281" type="curve" smooth="yes"/>
      <point x="407" y="-281"/>
      <point x="395" y="-273"/>
      <point x="395" y="-258" type="curve" smooth="yes"/>
      <point x="395" y="-245"/>
      <point x="405" y="-230"/>
      <point x="423" y="-219" type="curve"/>
      <point x="346" y="-197" type="line"/>
    </contour>
    <contour>
      <point x="253" y="65"/>
      <point x="197" y="1"/>
      <point x="198" y="-101" type="curve"/>
      <point x="280" y="-101" type="line"/>
      <point x="280" y="-58"/>
      <point x="303" y="-25"/>
      <point x="336" y="-25" type="curve" smooth="yes"/>
      <point x="352" y="-25"/>
      <point x="362" y="-34"/>
      <point x="362" y="-47" type="curve" smooth="yes"/>
      <point x="362" y="-95"/>
      <point x="301" y="-80"/>
      <point x="301" y="-151" type="curve" smooth="yes"/>
      <point x="301" y="-200"/>
      <point x="348" y="-237"/>
      <point x="421" y="-237" type="curve" smooth="yes"/>
      <point x="438" y="-237"/>
      <point x="455" y="-235"/>
      <point x="472" y="-231" type="curve"/>
      <point x="462" y="-162" type="line"/>
      <point x="451" y="-164"/>
      <point x="438" y="-165"/>
      <point x="429" y="-165" type="curve" smooth="yes"/>
      <point x="403" y="-165"/>
      <point x="393" y="-154"/>
      <point x="393" y="-144" type="curve" smooth="yes"/>
      <point x="393" y="-115"/>
      <point x="468" y="-121"/>
      <point x="468" y="-44" type="curve" smooth="yes"/>
      <point x="468" y="20"/>
      <point x="419" y="65"/>
      <point x="342" y="65" type="curve" smooth="yes"/>
    </contour>
    <contour>
      <point x="236" y="0" type="move" name="_bottom"/>
    </contour>
  </outline>
</glyph>
<glyph name="four-deva" format="1">
  <advance width="570"/>
  <unicode hex="096A"/>
  <outline>
    <contour>
      <point x="394" y="652" type="line"/>
      <point x="394" y="624" type="line" smooth="yes"/>
      <point x="394" y="584"/>
      <point x="381" y="543"/>
      <point x="360" y="525" type="curve" smooth="yes"/>
      <point x="156" y="350" type="line" smooth="yes"/>
      <point x="99" y="301"/>
      <point x="88" y="255"/>
      <point x="88" y="208" type="curve" smooth="yes"/>
      <point x="88" y="115"/>
      <point x="171" y="46"/>
      <point x="285" y="46" type="curve" smooth="yes"/>
      <point x="399" y="46"/>
      <point x="482" y="115"/>
      <point x="482" y="208" type="curve" smooth="yes"/>
      <point x="482" y="255"/>
      <point x="471" y="301"/>
      <point x="414" y="350" type="curve" smooth="yes"/>
      <point x="210" y="525" type="line" smooth="yes"/>
      <point x="189" y="543"/>
      <point x="176" y="584"/>
      <point x="176" y="624" type="curve" smooth="yes"/>
      <point x="176" y="652" type="line"/>
      <point x="41" y="662" type="line"/>
      <point x="41" y="626" type="line" smooth="yes"/>
      <point x="42" y="557"/>
      <point x="57" y="509"/>
      <point x="91" y="479" type="curve" smooth="yes"/>
      <point x="320" y="275" type="line" smooth="yes"/>
      <point x="343" y="255"/>
      <point x="347" y="235"/>
      <point x="347" y="218" type="curve" smooth="yes"/>
      <point x="347" y="181"/>
      <point x="322" y="156"/>
      <point x="285" y="156" type="curve" smooth="yes"/>
      <point x="248" y="156"/>
      <point x="223" y="181"/>
      <point x="223" y="218" type="curve" smooth="yes"/>
      <point x="223" y="235"/>
      <point x="227" y="255"/>
      <point x="250" y="275" type="curve" smooth="yes"/>
      <point x="479" y="479" type="line" smooth="yes"/>
      <point x="513" y="509"/>
      <point x="528" y="557"/>
      <point x="529" y="626" type="curve" smooth="yes"/>
      <point x="529" y="662" type="line"/>
    </contour>
  </outline>
</glyph>
<glyph name="six-deva" format="1">
  <advance width="570"/>
  <unicode hex="096C"/>
  <outline>
    <contour>
      <point x="169" y="684"/>
      <point x="76" y="628"/>
      <point x="76" y="526" type="curve"/>
      <point x="76" y="403"/>
      <point x="180" y="341"/>
      <point x="377" y="338" type="curve" smooth="yes"/>
      <point x="424" y="337" type="line"/>
      <point x="408" y="447" type="line"/>
      <point x="385" y="447" type="line" smooth="yes"/>
      <point x="243" y="449"/>
      <point x="210" y="472"/>
      <point x="210" y="526" type="curve"/>
      <point x="210" y="555"/>
      <point x="236" y="575"/>
      <point x="289" y="575" type="curve" smooth="yes"/>
      <point x="318" y="575"/>
      <point x="357" y="569"/>
      <point x="404" y="553" type="curve"/>
      <point x="446" y="657" type="line"/>
      <point x="393" y="675"/>
      <point x="340" y="684"/>
      <point x="291" y="684" type="curve" smooth="yes"/>
    </contour>
    <contour>
      <point x="142" y="417"/>
      <point x="86" y="349"/>
      <point x="86" y="257" type="curve"/>
      <point x="86" y="138"/>
      <point x="188" y="70"/>
      <point x="325" y="70" type="curve" smooth="yes"/>
      <point x="357" y="70"/>
      <point x="391" y="74"/>
      <point x="425" y="81" type="curve"/>
      <point x="397" y="189" type="line"/>
      <point x="368" y="182"/>
      <point x="343" y="180"/>
      <point x="322" y="180" type="curve" smooth="yes"/>
      <point x="253" y="180"/>
      <point x="220" y="209"/>
      <point x="220" y="257" type="curve"/>
      <point x="220" y="304"/>
      <point x="244" y="335"/>
      <point x="296" y="355" type="curve"/>
      <point x="248" y="447" type="line"/>
    </contour>
    <contour>
      <point x="348" y="263"/>
      <point x="311" y="234"/>
      <point x="311" y="179" type="curve" smooth="yes"/>
      <point x="311" y="144"/>
      <point x="326" y="105"/>
      <point x="342" y="83" type="curve" smooth="yes"/>
      <point x="483" y="-119" type="line"/>
      <point x="578" y="-35" type="line"/>
      <point x="466" y="116" type="line"/>
      <point x="451" y="85" type="line"/>
      <point x="496" y="85"/>
      <point x="534" y="112"/>
      <point x="534" y="160" type="curve" smooth="yes"/>
      <point x="534" y="221"/>
      <point x="468" y="263"/>
      <point x="415" y="263" type="curve" smooth="yes"/>
    </contour>
  </outline>
</glyph>
<glyph name="eight-deva" format="1">
  <advance width="570"/>
  <unicode hex="096E"/>
  <outline>
    <contour>
      <point x="230" y="548" type="line" smooth="yes"/>
      <point x="121" y="459"/>
      <point x="70" y="380"/>
      <point x="70" y="300" type="curve" smooth="yes"/>
      <point x="70" y="181"/>
      <point x="171" y="96"/>
      <point x="314" y="96" type="curve" smooth="yes"/>
      <point x="376" y="96"/>
      <point x="445" y="111"/>
      <point x="518" y="140" type="curve"/>
      <point x="480" y="243" type="line"/>
      <point x="421" y="219"/>
      <point x="364" y="207"/>
      <point x="315" y="207" type="curve" smooth="yes"/>
      <point x="247" y="207"/>
      <point x="204" y="243"/>
      <point x="204" y="300" type="curve" smooth="yes"/>
      <point x="204" y="348"/>
      <point x="240" y="401"/>
      <point x="315" y="463" type="curve" smooth="yes"/>
      <point x="476" y="595" type="line"/>
      <point x="392" y="681" type="line"/>
    </contour>
  </outline>
</glyph>
<glyph name="nine-deva" format="1">
  <advance width="570"/>
  <unicode hex="096F"/>
  <outline>
    <contour>
      <point x="483" y="-16" type="line"/>
      <point x="495" y="7"/>
      <point x="502" y="31"/>
      <point x="504" y="55" type="curve" smooth="yes"/>
      <point x="504" y="112"/>
      <point x="488" y="142"/>
      <point x="419" y="213" type="curve" smooth="yes"/>
      <point x="258" y="380" type="line" smooth="yes"/>
      <point x="213" y="426"/>
      <point x="194" y="462"/>
      <point x="194" y="501" type="curve" smooth="yes"/>
      <point x="194" y="546"/>
      <point x="219" y="575"/>
      <point x="259" y="575" type="curve" smooth="yes"/>
      <point x="299" y="575"/>
      <point x="324" y="545"/>
      <point x="324" y="497" type="curve" smooth="yes"/>
      <point x="324" y="433"/>
      <point x="283" y="405"/>
      <point x="192" y="405" type="curve"/>
      <point x="225" y="295" type="line"/>
      <point x="362" y="295"/>
      <point x="459" y="379"/>
      <point x="459" y="497" type="curve" smooth="yes"/>
      <point x="459" y="612"/>
      <point x="382" y="685"/>
      <point x="259" y="685" type="curve" smooth="yes"/>
      <point x="136" y="685"/>
      <point x="59" y="614"/>
      <point x="59" y="501" type="curve" smooth="yes"/>
      <point x="59" y="437"/>
      <point x="88" y="379"/>
      <point x="154" y="311" type="curve" smooth="yes"/>
      <point x="297" y="164" type="line" smooth="yes"/>
      <point x="347" y="112"/>
      <point x="362" y="88"/>
      <point x="362" y="59" type="curve" smooth="yes"/>
      <point x="362" y="47"/>
      <point x="359" y="35"/>
      <point x="348" y="11" type="curve"/>
    </contour>
  </outline>
</glyph>
<glyph name="abbreviation-deva" format="1">
  <advance width="478"/>
  <unicode hex="0970"/>
  <outline>
    <contour>
      <point x="129" y="499"/>
      <point x="42" y="411"/>
      <point x="42" y="301" type="curve" smooth="yes"/>
      <point x="42" y="191"/>
      <point x="129" y="104"/>
      <point x="239" y="104" type="curve" smooth="yes"/>
      <point x="349" y="104"/>
      <point x="437" y="191"/>
      <point x="437" y="301" type="curve" smooth="yes"/>
      <point x="437" y="411"/>
      <point x="349" y="499"/>
      <point x="239" y="499" type="curve" smooth="yes"/>
    </contour>
    <contour>
      <point x="282" y="377"/>
      <point x="316" y="343"/>
      <point x="316" y="301" type="curve" smooth="yes"/>
      <point x="316" y="259"/>
      <point x="282" y="226"/>
      <point x="240" y="226" type="curve" smooth="yes"/>
      <point x="198" y="226"/>
      <point x="164" y="259"/>
      <point x="164" y="301" type="curve" smooth="yes"/>
      <point x="164" y="343"/>
      <point x="198" y="377"/>
      <point x="240" y="377" type="curve" smooth="yes"/>
    </contour>
  </outline>
</glyph>
<glyph name="oe-deva" format="1">
  <advance width="837"/>
  <unicode hex="0973"/>
  <outline>
    <component base="a_compo" xOffset="-1"/>
    <component base="ooeMatra-deva" xOffset="503"/>
    <contour>
      <point x="675" y="799" type="move" name="top"/>
    </contour>
    <contour>
      <point x="675" y="0" type="move" name="bottom"/>
    </contour>
  </outline>
</glyph>
<glyph name="uue-deva" format="1">
  <advance width="859"/>
  <unicode hex="0977"/>
  <outline>
    <component base="a-deva"/>
    <component base="uueMatra-deva" xOffset="459"/>
    <contour>
      <point x="687" y="685" type="move" name="top"/>
    </contour>
    <contour>
      <point x="687" y="0" type="move" name="bottom"/>
    </contour>
  </outline>
</glyph>
<glyph name="quoteleft" format="1">
  <advance width="278"/>
  <unicode hex="2018"/>
  <outline>
    <contour>
      <point x="118" y="729" type="line"/>
      <point x="47" y="562" type="line"/>
      <point x="47" y="445" type="line"/>
      <point x="219" y="445" type="line"/>
      <point x="219" y="586" type="line"/>
      <point x="165" y="586" type="line"/>
      <point x="215" y="729" type="line"/>
    </contour>
  </outline>
</glyph>
<glyph name="ellipsis" format="1">
  <advance width="795"/>
  <unicode hex="2026"/>
  <outline>
    <contour>
      <point x="221" y="149" type="line"/>
      <point x="67" y="149" type="line"/>
      <point x="67" y="0" type="line"/>
      <point x="221" y="0" type="line"/>
    </contour>
    <contour>
      <point x="475" y="149" type="line"/>
      <point x="321" y="149" type="line"/>
      <point x="321" y="0" type="line"/>
      <point x="475" y="0" type="line"/>
    </contour>
    <contour>
      <point x="728" y="149" type="line"/>
      <point x="574" y="149" type="line"/>
      <point x="574" y="0" type="line"/>
      <point x="728" y="0" type="line"/>
    </contour>
  </outline>
</glyph>
<glyph name="uni203E" format="1">
  <advance width="600"/>
  <unicode hex="203E"/>
  <outline>
    <contour>
      <point x="538" y="840" type="line"/>
      <point x="65" y="840" type="line"/>
      <point x="65" y="733" type="line"/>
      <point x="538" y="733" type="line"/>
    </contour>
  </outline>
</glyph>
<glyph name="afii61352" format="1">
  <advance width="1142"/>
  <unicode hex="2116"/>
  <outline>
    <contour>
      <point x="833" y="715"/>
      <point x="769" y="650"/>
      <point x="769" y="535" type="curve" smooth="yes"/>
      <point x="769" y="420"/>
      <point x="834" y="355"/>
      <point x="948" y="355" type="curve" smooth="yes"/>
      <point x="1061" y="355"/>
      <point x="1126" y="420"/>
      <point x="1126" y="535" type="curve" smooth="yes"/>
      <point x="1126" y="650"/>
      <point x="1062" y="715"/>
      <point x="948" y="715" type="curve" smooth="yes"/>
    </contour>
    <contour>
      <point x="532" y="709" type="line"/>
      <point x="532" y="221" type="line"/>
      <point x="496" y="281"/>
      <point x="456" y="347"/>
      <point x="418" y="401" type="curve" smooth="yes"/>
      <point x="202" y="709" type="line"/>
      <point x="81" y="709" type="line"/>
      <point x="81" y="0" type="line"/>
      <point x="220" y="0" type="line"/>
      <point x="220" y="491" type="line"/>
      <point x="255" y="432"/>
      <point x="294" y="366"/>
      <point x="330" y="314" type="curve" smooth="yes"/>
      <point x="550" y="0" type="line"/>
      <point x="672" y="0" type="line"/>
      <point x="672" y="709" type="line"/>
    </contour>
    <contour>
      <point x="901" y="431"/>
      <point x="877" y="464"/>
      <point x="877" y="535" type="curve" smooth="yes"/>
      <point x="877" y="606"/>
      <point x="900" y="638"/>
      <point x="948" y="638" type="curve" smooth="yes"/>
      <point x="995" y="638"/>
      <point x="1019" y="606"/>
      <point x="1019" y="535" type="curve" smooth="yes"/>
      <point x="1019" y="464"/>
      <point x="994" y="431"/>
      <point x="948" y="431" type="curve" smooth="yes"/>
    </contour>
  </outline>
</glyph>
<glyph name="five-deva.comb" format="1">
  <advance width="280"/>
  <unicode hex="A8E5"/>
  <outline>
    <contour>
      <point x="42" y="957"/>
      <point x="9" y="913"/>
      <point x="9" y="871" type="curve" smooth="yes"/>
      <point x="9" y="802"/>
      <point x="48" y="755"/>
      <point x="127" y="755" type="curve" smooth="yes"/>
      <point x="139" y="755"/>
      <point x="150" y="757"/>
      <point x="162" y="759" type="curve"/>
      <point x="203" y="660" type="line"/>
      <point x="271" y="690" type="line"/>
      <point x="224" y="796" type="line"/>
      <point x="234" y="808"/>
      <point x="239" y="822"/>
      <point x="239" y="836" type="curve" smooth="yes"/>
      <point x="239" y="867"/>
      <point x="206" y="895"/>
      <point x="171" y="895" type="curve" smooth="yes"/>
      <point x="144" y="895"/>
      <point x="127" y="879"/>
      <point x="127" y="853" type="curve" smooth="yes"/>
      <point x="127" y="845"/>
      <point x="128" y="840"/>
      <point x="135" y="822" type="curve"/>
      <point x="131" y="822"/>
      <point x="129" y="822"/>
      <point x="125" y="822" type="curve" smooth="yes"/>
      <point x="103" y="822"/>
      <point x="95" y="838"/>
      <point x="95" y="868" type="curve" smooth="yes"/>
      <point x="95" y="896"/>
      <point x="117" y="930"/>
      <point x="151" y="952" type="curve"/>
      <point x="93" y="988" type="line"/>
    </contour>
    <contour>
      <point x="140" y="687" type="move" name="_top"/>
    </contour>
  </outline>
</glyph>
<glyph name="six-deva.comb" format="1">
  <advance width="259"/>
  <unicode hex="A8E6"/>
  <outline>
    <contour>
      <point x="66" y="986"/>
      <point x="9" y="957"/>
      <point x="9" y="902" type="curve" smooth="yes"/>
      <point x="9" y="878"/>
      <point x="20" y="857"/>
      <point x="37" y="844" type="curve"/>
      <point x="24" y="828"/>
      <point x="14" y="804"/>
      <point x="14" y="777" type="curve" smooth="yes"/>
      <point x="14" y="724"/>
      <point x="74" y="690"/>
      <point x="123" y="690" type="curve"/>
      <point x="128" y="690"/>
      <point x="130" y="691"/>
      <point x="131" y="690" type="curve"/>
      <point x="191" y="597" type="line"/>
      <point x="250" y="650" type="line"/>
      <point x="216" y="700" type="line"/>
      <point x="230" y="704"/>
      <point x="242" y="717"/>
      <point x="242" y="739" type="curve" smooth="yes"/>
      <point x="242" y="774"/>
      <point x="210" y="797"/>
      <point x="172" y="797" type="curve" smooth="yes"/>
      <point x="146" y="797"/>
      <point x="112" y="786"/>
      <point x="112" y="758" type="curve"/>
      <point x="104" y="761"/>
      <point x="99" y="770"/>
      <point x="99" y="781" type="curve" smooth="yes"/>
      <point x="99" y="795"/>
      <point x="104" y="809"/>
      <point x="113" y="817" type="curve"/>
      <point x="127" y="815"/>
      <point x="143" y="814"/>
      <point x="160" y="813" type="curve" smooth="yes"/>
      <point x="184" y="813" type="line"/>
      <point x="174" y="880" type="line"/>
      <point x="171" y="880" type="line" smooth="yes"/>
      <point x="101" y="881"/>
      <point x="95" y="894"/>
      <point x="95" y="903" type="curve" smooth="yes"/>
      <point x="95" y="912"/>
      <point x="100" y="920"/>
      <point x="120" y="920" type="curve" smooth="yes"/>
      <point x="130" y="920"/>
      <point x="147" y="918"/>
      <point x="168" y="909" type="curve"/>
      <point x="201" y="972" type="line"/>
      <point x="179" y="982"/>
      <point x="153" y="986"/>
      <point x="126" y="986" type="curve" smooth="yes"/>
    </contour>
    <contour>
      <point x="129" y="687" type="move" name="_top"/>
    </contour>
  </outline>
</glyph>
<glyph name="nine-deva.comb" format="1">
  <advance width="247"/>
  <unicode hex="A8E9"/>
  <outline>
    <contour>
      <point x="43" y="988"/>
      <point x="9" y="953"/>
      <point x="9" y="894" type="curve" smooth="yes"/>
      <point x="9" y="864"/>
      <point x="22" y="837"/>
      <point x="50" y="809" type="curve" smooth="yes"/>
      <point x="115" y="741" type="line" smooth="yes"/>
      <point x="140" y="715"/>
      <point x="144" y="706"/>
      <point x="144" y="695" type="curve" smooth="yes"/>
      <point x="144" y="692"/>
      <point x="145" y="688"/>
      <point x="138" y="673" type="curve"/>
      <point x="228" y="661" type="line"/>
      <point x="234" y="673"/>
      <point x="237" y="684"/>
      <point x="238" y="694" type="curve"/>
      <point x="238" y="717"/>
      <point x="232" y="731"/>
      <point x="199" y="765" type="curve" smooth="yes"/>
      <point x="160" y="806" type="line"/>
      <point x="191" y="822"/>
      <point x="210" y="855"/>
      <point x="210" y="893" type="curve" smooth="yes"/>
      <point x="210" y="949"/>
      <point x="176" y="988"/>
      <point x="111" y="988" type="curve" smooth="yes"/>
    </contour>
    <contour>
      <point x="119" y="921"/>
      <point x="123" y="908"/>
      <point x="123" y="893" type="curve" smooth="yes"/>
      <point x="123" y="875"/>
      <point x="121" y="867"/>
      <point x="104" y="864" type="curve"/>
      <point x="98" y="874"/>
      <point x="95" y="883"/>
      <point x="95" y="894" type="curve" smooth="yes"/>
      <point x="95" y="911"/>
      <point x="99" y="921"/>
      <point x="111" y="921" type="curve" smooth="yes"/>
    </contour>
    <contour>
      <point x="123" y="687" type="move" name="_top"/>
    </contour>
  </outline>
</glyph>
<glyph name="u-deva.comb" format="1">
  <advance width="294"/>
  <unicode hex="A8EB"/>
  <outline>
    <contour>
      <point x="9" y="991" type="line"/>
      <point x="9" y="923" type="line"/>
      <point x="142" y="923" type="line"/>
      <point x="142" y="918"/>
      <point x="147" y="911"/>
      <point x="147" y="904" type="curve" smooth="yes"/>
      <point x="147" y="885"/>
      <point x="132" y="875"/>
      <point x="86" y="866" type="curve"/>
      <point x="105" y="797" type="line"/>
      <point x="128" y="799"/>
      <point x="147" y="804"/>
      <point x="162" y="809" type="curve"/>
      <point x="167" y="804"/>
      <point x="176" y="787"/>
      <point x="176" y="774" type="curve" smooth="yes"/>
      <point x="176" y="756"/>
      <point x="158" y="750"/>
      <point x="150" y="750" type="curve" smooth="yes"/>
      <point x="121" y="750"/>
      <point x="104" y="759"/>
      <point x="80" y="780" type="curve"/>
      <point x="21" y="737" type="line"/>
      <point x="62" y="687"/>
      <point x="109" y="673"/>
      <point x="158" y="673" type="curve" smooth="yes"/>
      <point x="221" y="673"/>
      <point x="263" y="710"/>
      <point x="263" y="773" type="curve" smooth="yes"/>
      <point x="263" y="804"/>
      <point x="244" y="827"/>
      <point x="214" y="843" type="curve"/>
      <point x="230" y="863"/>
      <point x="233" y="886"/>
      <point x="233" y="905" type="curve" smooth="yes"/>
      <point x="233" y="913"/>
      <point x="232" y="919"/>
      <point x="234" y="923" type="curve"/>
      <point x="285" y="923" type="line"/>
      <point x="285" y="991" type="line"/>
    </contour>
    <contour>
      <point x="147" y="687" type="move" name="_top"/>
    </contour>
  </outline>
</glyph>
<glyph name="ra-deva.comb" format="1">
  <advance width="248"/>
  <unicode hex="A8EF"/>
  <outline>
    <contour>
      <point x="9" y="991" type="line"/>
      <point x="9" y="923" type="line"/>
      <point x="97" y="923" type="line"/>
      <point x="113" y="899"/>
      <point x="124" y="876"/>
      <point x="124" y="865" type="curve" smooth="yes"/>
      <point x="124" y="849"/>
      <point x="114" y="835"/>
      <point x="99" y="835" type="curve" smooth="yes"/>
      <point x="87" y="835"/>
      <point x="75" y="840"/>
      <point x="64" y="848" type="curve"/>
      <point x="24" y="802" type="line"/>
      <point x="140" y="642" type="line"/>
      <point x="209" y="692" type="line"/>
      <point x="149" y="775" type="line"/>
      <point x="190" y="789"/>
      <point x="212" y="819"/>
      <point x="212" y="864" type="curve" smooth="yes"/>
      <point x="212" y="880"/>
      <point x="205" y="899"/>
      <point x="193" y="923" type="curve"/>
      <point x="239" y="923" type="line"/>
      <point x="239" y="991" type="line"/>
    </contour>
    <contour>
      <point x="124" y="687" type="move" name="_top"/>
    </contour>
  </outline>
</glyph>
<glyph name="avagraha-deva.comb" format="1">
  <advance width="259"/>
  <unicode hex="A8F1"/>
  <outline>
    <contour>
      <point x="165" y="991" type="line" smooth="yes"/>
      <point x="89" y="991"/>
      <point x="47" y="958"/>
      <point x="47" y="903" type="curve" smooth="yes"/>
      <point x="47" y="852"/>
      <point x="71" y="824"/>
      <point x="132" y="802" type="curve" smooth="yes"/>
      <point x="157" y="793"/>
      <point x="165" y="785"/>
      <point x="165" y="769" type="curve" smooth="yes"/>
      <point x="165" y="759"/>
      <point x="152" y="750"/>
      <point x="139" y="750" type="curve" smooth="yes"/>
      <point x="112" y="750"/>
      <point x="95" y="759"/>
      <point x="69" y="786" type="curve"/>
      <point x="9" y="741" type="line"/>
      <point x="44" y="696"/>
      <point x="89" y="673"/>
      <point x="146" y="673" type="curve" smooth="yes"/>
      <point x="213" y="673"/>
      <point x="250" y="708"/>
      <point x="250" y="769" type="curve" smooth="yes"/>
      <point x="250" y="811"/>
      <point x="231" y="839"/>
      <point x="187" y="861" type="curve" smooth="yes"/>
      <point x="159" y="875"/>
      <point x="141" y="892"/>
      <point x="141" y="903" type="curve" smooth="yes"/>
      <point x="141" y="914"/>
      <point x="152" y="922"/>
      <point x="165" y="922" type="curve" smooth="yes"/>
      <point x="239" y="922" type="line"/>
      <point x="239" y="991" type="line"/>
    </contour>
    <contour>
      <point x="129" y="687" type="move" name="_top"/>
    </contour>
  </outline>
</glyph>
<glyph name="two_candraBindu-deva" format="1">
  <advance width="572"/>
  <unicode hex="A8F5"/>
  <outline>
    <contour>
      <point x="362" y="119"/>
      <point x="314" y="93"/>
      <point x="208" y="106" type="curve"/>
      <point x="366" y="21" type="line"/>
      <point x="284" y="121"/>
      <point x="251" y="155"/>
      <point x="201" y="155" type="curve" smooth="yes"/>
      <point x="154" y="155"/>
      <point x="121" y="128"/>
      <point x="121" y="81" type="curve" smooth="yes"/>
      <point x="121" y="17"/>
      <point x="183" y="-13"/>
      <point x="280" y="-13" type="curve" smooth="yes"/>
      <point x="394" y="-13"/>
      <point x="492" y="78"/>
      <point x="492" y="185" type="curve" smooth="yes"/>
      <point x="492" y="298"/>
      <point x="410" y="375"/>
      <point x="286" y="375" type="curve" smooth="yes"/>
      <point x="225" y="375"/>
      <point x="159" y="360"/>
      <point x="104" y="333" type="curve"/>
      <point x="126" y="226" type="line"/>
      <point x="186" y="252"/>
      <point x="241" y="264"/>
      <point x="283" y="264" type="curve" smooth="yes"/>
      <point x="334" y="264"/>
      <point x="362" y="237"/>
      <point x="362" y="185" type="curve" smooth="yes"/>
    </contour>
    <contour>
      <point x="480" y="-115" type="line"/>
      <point x="330" y="64" type="line"/>
      <point x="208" y="33" type="line"/>
      <point x="387" y="-185" type="line"/>
    </contour>
    <component base="candraBindu-deva" xOffset="60" yOffset="-305"/>
  </outline>
</glyph>
<glyph name="avagraha_candraBindu-deva" format="1">
  <advance width="470"/>
  <unicode hex="A8F7"/>
  <outline>
    <contour>
      <point x="414" y="101"/>
      <point x="358" y="130"/>
      <point x="272" y="180" type="curve"/>
      <point x="210" y="218"/>
      <point x="197" y="220"/>
      <point x="197" y="241" type="curve"/>
      <point x="197" y="259"/>
      <point x="209" y="264"/>
      <point x="242" y="264" type="curve"/>
      <point x="394" y="264" type="line"/>
      <point x="394" y="375" type="line"/>
      <point x="242" y="375" type="line"/>
      <point x="142" y="375"/>
      <point x="81" y="332"/>
      <point x="81" y="245" type="curve"/>
      <point x="81" y="168"/>
      <point x="132" y="131"/>
      <point x="203" y="91" type="curve"/>
      <point x="272" y="52"/>
      <point x="298" y="43"/>
      <point x="298" y="8" type="curve"/>
      <point x="298" y="-24"/>
      <point x="276" y="-42"/>
      <point x="236" y="-42" type="curve"/>
      <point x="182" y="-42"/>
      <point x="129" y="-3"/>
      <point x="101" y="51" type="curve"/>
      <point x="13" y="-6" type="line"/>
      <point x="54" y="-88"/>
      <point x="139" y="-149"/>
      <point x="236" y="-149" type="curve"/>
      <point x="337" y="-149"/>
      <point x="414" y="-99"/>
      <point x="414" y="8" type="curve"/>
    </contour>
    <component base="candraBindu-deva" xOffset="13" yOffset="-305"/>
  </outline>
</glyph>
<glyph name="aiMatra_reph_anusvara-deva" format="1">
  <advance width="270"/>
  <note>
	dMatraAiRephAnusvara
  </note>
  <outline>
    <component base="anusvara-deva" xOffset="211" yOffset="128" xScale="0.8" yScale="0.8"/>
    <component base="aiMatra_reph-deva"/>
    <contour>
      <point x="172" y="685" type="move" name="_top"/>
    </contour>
  </outline>
</glyph>
<glyph name="anusvara-deva.alt" format="1">
  <advance width="252"/>
  <outline>
    <component base="anusvara-deva" yOffset="187"/>
    <contour>
      <point x="125" y="675" type="move" name="_top"/>
    </contour>
  </outline>
</glyph>
<glyph name="b_r-deva" format="1">
  <advance width="305"/>
  <outline>
    <contour>
      <point x="69" y="2" type="line"/>
      <point x="150" y="-85" type="line"/>
      <point x="484" y="197" type="line"/>
      <point x="428" y="298" type="line"/>
    </contour>
    <component base="b-deva"/>
    <contour>
      <point x="482" y="685" type="move" name="top"/>
    </contour>
    <contour>
      <point x="480" y="0" type="move" name="bottom"/>
    </contour>
  </outline>
</glyph>
<glyph name="c_ra-deva" format="1">
  <advance width="714"/>
  <outline>
    <contour>
      <point x="159" y="2" type="line"/>
      <point x="240" y="-85" type="line"/>
      <point x="523" y="154" type="line"/>
      <point x="523" y="300" type="line"/>
    </contour>
    <component base="ca-deva"/>
    <contour>
      <point x="542" y="685" type="move" name="top"/>
    </contour>
    <contour>
      <point x="542" y="0" type="move" name="bottom"/>
    </contour>
  </outline>
</glyph>
<glyph name="ch_va-deva" format="1">
  <advance width="716"/>
  <outline>
    <contour>
      <point x="424" y="549"/>
      <point x="352" y="504"/>
      <point x="352" y="431" type="curve" smooth="yes"/>
      <point x="352" y="379"/>
      <point x="379" y="333"/>
      <point x="429" y="301" type="curve"/>
      <point x="506" y="358" type="line"/>
      <point x="485" y="371"/>
      <point x="473" y="388"/>
      <point x="473" y="405" type="curve" smooth="yes"/>
      <point x="473" y="424"/>
      <point x="488" y="439"/>
      <point x="514" y="439" type="curve" smooth="yes"/>
      <point x="538" y="439"/>
      <point x="556" y="418"/>
      <point x="556" y="394" type="curve" smooth="yes"/>
      <point x="556" y="289"/>
      <point x="447" y="259"/>
      <point x="317" y="259" type="curve" smooth="yes"/>
      <point x="231" y="259"/>
      <point x="182" y="275"/>
      <point x="182" y="316" type="curve" smooth="yes"/>
      <point x="182" y="345"/>
      <point x="206" y="362"/>
      <point x="263" y="362" type="curve" smooth="yes"/>
      <point x="277" y="362"/>
      <point x="301" y="360"/>
      <point x="310" y="359" type="curve"/>
      <point x="291" y="470" type="line"/>
      <point x="281" y="470"/>
      <point x="277" y="470"/>
      <point x="266" y="470" type="curve" smooth="yes"/>
      <point x="129" y="470"/>
      <point x="45" y="404"/>
      <point x="45" y="317" type="curve" smooth="yes"/>
      <point x="45" y="216"/>
      <point x="147" y="149"/>
      <point x="346" y="149" type="curve" smooth="yes"/>
      <point x="553" y="149"/>
      <point x="681" y="247"/>
      <point x="681" y="398" type="curve" smooth="yes"/>
      <point x="681" y="486"/>
      <point x="609" y="549"/>
      <point x="515" y="549" type="curve" smooth="yes"/>
    </contour>
    <contour>
      <point x="210" y="101"/>
      <point x="134" y="50"/>
      <point x="134" y="-45" type="curve" smooth="yes"/>
      <point x="134" y="-137"/>
      <point x="203" y="-193"/>
      <point x="295" y="-193" type="curve" smooth="yes"/>
      <point x="380" y="-193"/>
      <point x="433" y="-153"/>
      <point x="477" y="-95" type="curve"/>
      <point x="423" y="-5" type="line"/>
      <point x="386" y="-68"/>
      <point x="336" y="-90"/>
      <point x="302" y="-90" type="curve" smooth="yes"/>
      <point x="273" y="-90"/>
      <point x="248" y="-72"/>
      <point x="248" y="-41" type="curve" smooth="yes"/>
      <point x="248" y="-3"/>
      <point x="277" y="7"/>
      <point x="306" y="7" type="curve" smooth="yes"/>
      <point x="320" y="7"/>
      <point x="333" y="5"/>
      <point x="342" y="3" type="curve"/>
      <point x="327" y="100" type="line"/>
      <point x="316" y="101"/>
      <point x="310" y="101"/>
      <point x="305" y="101" type="curve" smooth="yes"/>
    </contour>
    <contour>
      <point x="415" y="220" type="line"/>
      <point x="415" y="-232" type="line"/>
      <point x="525" y="-232" type="line"/>
      <point x="525" y="220" type="line"/>
    </contour>
    <contour>
      <point x="61" y="592"/>
      <point x="45" y="556"/>
      <point x="45" y="520" type="curve" smooth="yes"/>
      <point x="45" y="472"/>
      <point x="72" y="424"/>
      <point x="129" y="386" type="curve"/>
      <point x="220" y="438" type="line"/>
      <point x="188" y="458"/>
      <point x="173" y="487"/>
      <point x="173" y="516" type="curve" smooth="yes"/>
      <point x="173" y="547"/>
      <point x="191" y="579"/>
      <point x="224" y="599" type="curve"/>
      <point x="91" y="620" type="line"/>
    </contour>
    <contour>
      <point x="-30" y="685" type="line"/>
      <point x="-30" y="575" type="line"/>
      <point x="746" y="575" type="line"/>
      <point x="746" y="685" type="line"/>
    </contour>
    <contour>
      <point x="516" y="685" type="move" name="top"/>
    </contour>
    <contour>
      <point x="354" y="-232" type="move" name="bottom"/>
    </contour>
  </outline>
</glyph>
<glyph name="d_b_ra-deva" format="1">
  <advance width="624"/>
  <outline>
    <contour>
      <point x="377" y="133" type="line"/>
      <point x="249" y="-158" type="line"/>
      <point x="329" y="-186" type="line"/>
      <point x="449" y="97" type="line"/>
    </contour>
    <component base="d_ba-deva"/>
    <contour>
      <point x="290" y="685" type="move" name="top"/>
    </contour>
    <contour>
      <point x="290" y="0" type="move" name="bottom"/>
    </contour>
  </outline>
</glyph>
<glyph name="d_ba_uMatra-deva" format="1">
  <advance width="624"/>
  <outline>
    <component base="d_ba-deva"/>
    <component base="uMatra-deva" xOffset="298"/>
    <contour>
      <point x="459" y="685" type="move" name="top"/>
    </contour>
    <contour>
      <point x="344" y="38" type="move" name="bottom"/>
    </contour>
  </outline>
</glyph>
<glyph name="d_bh_ya-deva" format="1">
  <advance width="1219"/>
  <outline>
    <component base="d_bha-deva" xOffset="-15"/>
    <component base="ya.connect" xOffset="665"/>
    <contour>
      <point x="1047" y="685" type="move" name="top"/>
    </contour>
    <contour>
      <point x="1047" y="0" type="move" name="bottom"/>
    </contour>
  </outline>
</glyph>
<glyph name="d_bha_uMatra-deva" format="1">
  <advance width="664"/>
  <outline>
    <contour>
      <point x="469" y="-180" type="line"/>
      <point x="510" y="-204"/>
      <point x="558" y="-217"/>
      <point x="604" y="-217" type="curve" smooth="yes"/>
      <point x="699" y="-217"/>
      <point x="760" y="-164"/>
      <point x="760" y="-82" type="curve" smooth="yes"/>
      <point x="760" y="-4"/>
      <point x="691" y="46"/>
      <point x="611" y="46" type="curve" smooth="yes"/>
      <point x="567" y="46"/>
      <point x="523" y="32"/>
      <point x="493" y="3" type="curve"/>
      <point x="560" y="-75" type="line"/>
      <point x="582" y="-58"/>
      <point x="604" y="-51"/>
      <point x="620" y="-51" type="curve" smooth="yes"/>
      <point x="640" y="-51"/>
      <point x="654" y="-59"/>
      <point x="654" y="-80" type="curve" smooth="yes"/>
      <point x="654" y="-105"/>
      <point x="628" y="-121"/>
      <point x="588" y="-121" type="curve" smooth="yes"/>
      <point x="559" y="-121"/>
      <point x="531" y="-113"/>
      <point x="507" y="-98" type="curve"/>
    </contour>
    <component base="d_bha-deva"/>
    <contour>
      <point x="507" y="685" type="move" name="top"/>
    </contour>
    <contour>
      <point x="394" y="38" type="move" name="bottom"/>
    </contour>
  </outline>
</glyph>
<glyph name="d_da_uMatra-deva" format="1">
  <advance width="590"/>
  <outline>
    <contour>
      <point x="306" y="350" type="line" smooth="yes"/>
      <point x="186" y="340"/>
      <point x="75" y="305"/>
      <point x="75" y="185" type="curve" smooth="yes"/>
      <point x="75" y="50"/>
      <point x="215" y="0"/>
      <point x="350" y="0" type="curve" smooth="yes"/>
      <point x="469" y="0"/>
      <point x="563" y="33"/>
      <point x="563" y="101" type="curve" smooth="yes"/>
      <point x="563" y="155"/>
      <point x="498" y="206"/>
      <point x="423" y="206" type="curve" smooth="yes"/>
      <point x="368" y="206"/>
      <point x="347" y="174"/>
      <point x="347" y="139" type="curve" smooth="yes"/>
      <point x="347" y="100"/>
      <point x="371" y="47"/>
      <point x="378" y="35" type="curve"/>
      <point x="497" y="147" type="line"/>
      <point x="448" y="123"/>
      <point x="390" y="108"/>
      <point x="338" y="108" type="curve" smooth="yes"/>
      <point x="276" y="108"/>
      <point x="210" y="123"/>
      <point x="210" y="185" type="curve" smooth="yes"/>
      <point x="210" y="230"/>
      <point x="258" y="240"/>
      <point x="303" y="240" type="curve" smooth="yes"/>
      <point x="443" y="240" type="line"/>
      <point x="423" y="350" type="line"/>
    </contour>
    <contour>
      <point x="432" y="-15"/>
      <point x="380" y="-28"/>
      <point x="340" y="-51" type="curve"/>
      <point x="389" y="-135" type="line"/>
      <point x="416" y="-122"/>
      <point x="437" y="-118"/>
      <point x="462" y="-118" type="curve" smooth="yes"/>
      <point x="484" y="-118"/>
      <point x="512" y="-129"/>
      <point x="512" y="-151" type="curve" smooth="yes"/>
      <point x="512" y="-183"/>
      <point x="465" y="-192"/>
      <point x="433" y="-192" type="curve" smooth="yes"/>
      <point x="362" y="-192"/>
      <point x="298" y="-165"/>
      <point x="234" y="-81" type="curve"/>
      <point x="152" y="-144" type="line"/>
      <point x="220" y="-245"/>
      <point x="331" y="-295"/>
      <point x="436" y="-295" type="curve" smooth="yes"/>
      <point x="541" y="-295"/>
      <point x="631" y="-251"/>
      <point x="631" y="-146" type="curve" smooth="yes"/>
      <point x="631" y="-61"/>
      <point x="551" y="-15"/>
      <point x="466" y="-15" type="curve" smooth="yes"/>
    </contour>
    <contour>
      <point x="378" y="39" type="line"/>
      <point x="477" y="-103" type="line"/>
      <point x="577" y="-57" type="line"/>
      <point x="489" y="79" type="line"/>
    </contour>
    <contour>
      <point x="211" y="517" type="line" smooth="yes"/>
      <point x="124" y="517"/>
      <point x="54" y="469"/>
      <point x="54" y="382" type="curve" smooth="yes"/>
      <point x="54" y="277"/>
      <point x="122" y="240"/>
      <point x="217" y="240" type="curve" smooth="yes"/>
      <point x="309" y="350" type="line"/>
      <point x="225" y="350" type="line" smooth="yes"/>
      <point x="205" y="350"/>
      <point x="189" y="360"/>
      <point x="189" y="380" type="curve" smooth="yes"/>
      <point x="189" y="398"/>
      <point x="203" y="408"/>
      <point x="221" y="408" type="curve" smooth="yes"/>
      <point x="453" y="408" type="line"/>
      <point x="351" y="517" type="line"/>
    </contour>
    <contour>
      <point x="318" y="619" type="line"/>
      <point x="318" y="444" type="line"/>
      <point x="453" y="408" type="line"/>
      <point x="453" y="619" type="line"/>
    </contour>
    <contour>
      <point x="-20" y="685" type="line"/>
      <point x="-20" y="575" type="line"/>
      <point x="610" y="575" type="line"/>
      <point x="610" y="685" type="line"/>
    </contour>
    <contour>
      <point x="387" y="685" type="move" name="top"/>
    </contour>
  </outline>
</glyph>
<glyph name="d_ddh_r_ya-deva" format="1">
  <advance width="1282"/>
  <outline>
    <component base="d_dha-deva"/>
    <component base="ya.connect" xOffset="728"/>
    <contour>
      <point x="1110" y="685" type="move" name="top"/>
    </contour>
    <contour>
      <point x="1110" y="0" type="move" name="bottom"/>
    </contour>
  </outline>
</glyph>
<glyph name="d_dh_ya-deva" format="1">
  <advance width="1275"/>
  <outline>
    <component base="d_dha-deva" xOffset="-15"/>
    <component base="ya.connect" xOffset="721"/>
    <contour>
      <point x="1103" y="685" type="move" name="top"/>
    </contour>
    <contour>
      <point x="1103" y="0" type="move" name="bottom"/>
    </contour>
  </outline>
</glyph>
<glyph name="d_dha_uMatra-deva" format="1">
  <advance width="784"/>
  <outline>
    <component base="d_dha-deva"/>
    <component base="uMatra-deva" xOffset="479"/>
    <contour>
      <point x="611" y="685" type="move" name="top"/>
    </contour>
    <contour>
      <point x="709" y="0" type="move" name="bottom"/>
    </contour>
  </outline>
</glyph>
<glyph name="d_gha-deva" format="1">
  <advance width="763"/>
  <outline>
    <contour>
      <point x="190" y="131"/>
      <point x="162" y="83"/>
      <point x="162" y="37" type="curve" smooth="yes"/>
      <point x="162" y="-56"/>
      <point x="259" y="-107"/>
      <point x="348" y="-107" type="curve" smooth="yes"/>
      <point x="442" y="-107"/>
      <point x="536" y="-44"/>
      <point x="572" y="84" type="curve"/>
      <point x="502" y="185" type="line"/>
      <point x="475" y="81"/>
      <point x="434" y="-8"/>
      <point x="353" y="-8" type="curve" smooth="yes"/>
      <point x="313" y="-8"/>
      <point x="293" y="18"/>
      <point x="293" y="47" type="curve" smooth="yes"/>
      <point x="293" y="66"/>
      <point x="307" y="88"/>
      <point x="336" y="102" type="curve"/>
      <point x="244" y="168" type="line"/>
    </contour>
    <contour>
      <point x="87" y="335"/>
      <point x="29" y="264"/>
      <point x="29" y="194" type="curve" smooth="yes"/>
      <point x="29" y="79"/>
      <point x="122" y="13"/>
      <point x="229" y="13" type="curve"/>
      <point x="228" y="114" type="line"/>
      <point x="178" y="114"/>
      <point x="151" y="143"/>
      <point x="151" y="176" type="curve" smooth="yes"/>
      <point x="151" y="207"/>
      <point x="182" y="244"/>
      <point x="250" y="259" type="curve"/>
      <point x="219" y="368" type="line"/>
    </contour>
    <contour>
      <point x="-30" y="685" type="line"/>
      <point x="-30" y="575" type="line"/>
      <point x="793" y="575" type="line"/>
      <point x="793" y="685" type="line"/>
    </contour>
    <component base="da_small" xOffset="152"/>
    <contour>
      <point x="567" y="685" type="move" name="top"/>
    </contour>
    <contour>
      <point x="700" y="6" type="move" name="bottom"/>
    </contour>
  </outline>
</glyph>
<glyph name="d_gha_uMatra-deva" format="1">
  <advance width="763"/>
  <outline>
    <component base="d_gha-deva"/>
    <component base="uMatra-deva" xOffset="460" yOffset="6"/>
    <contour>
      <point x="558" y="685" type="move" name="top"/>
    </contour>
  </outline>
</glyph>
<glyph name="d_na_uMatra-deva" format="1">
  <advance width="611"/>
  <outline>
    <component base="d_na-deva"/>
    <component base="uMatra-deva" xOffset="305" yOffset="-2"/>
    <contour>
      <point x="446" y="685" type="move" name="top"/>
    </contour>
    <contour>
      <point x="328" y="38" type="move" name="bottom"/>
    </contour>
  </outline>
</glyph>
<glyph name="d_ra_uMatra-deva" format="1">
  <advance width="600"/>
  <outline>
    <contour>
      <point x="186" y="-116" type="line"/>
      <point x="253" y="-203"/>
      <point x="347" y="-245"/>
      <point x="444" y="-245" type="curve" smooth="yes"/>
      <point x="554" y="-245"/>
      <point x="649" y="-199"/>
      <point x="649" y="-89" type="curve" smooth="yes"/>
      <point x="649" y="1"/>
      <point x="564" y="52"/>
      <point x="474" y="52" type="curve" smooth="yes"/>
      <point x="433" y="52"/>
      <point x="379" y="32"/>
      <point x="332" y="0" type="curve"/>
      <point x="382" y="-83" type="line"/>
      <point x="426" y="-56"/>
      <point x="442" y="-51"/>
      <point x="474" y="-51" type="curve" smooth="yes"/>
      <point x="502" y="-51"/>
      <point x="530" y="-66"/>
      <point x="530" y="-94" type="curve" smooth="yes"/>
      <point x="530" y="-132"/>
      <point x="482" y="-142"/>
      <point x="444" y="-142" type="curve" smooth="yes"/>
      <point x="380" y="-142"/>
      <point x="323" y="-119"/>
      <point x="264" y="-47" type="curve"/>
    </contour>
    <component base="d_ra-deva"/>
    <contour>
      <point x="409" y="685" type="move" name="top"/>
    </contour>
  </outline>
</glyph>
<glyph name="d_v_ya-deva" format="1">
  <advance width="1184"/>
  <outline>
    <component base="d_va-deva" xOffset="10"/>
    <component base="ya.connect" xOffset="630"/>
    <contour>
      <point x="1012" y="685" type="move" name="top"/>
    </contour>
    <contour>
      <point x="1012" y="0" type="move" name="bottom"/>
    </contour>
  </outline>
</glyph>
<glyph name="d_va-deva" format="1">
  <advance width="624"/>
  <outline>
    <contour>
      <point x="-30" y="685" type="line"/>
      <point x="-30" y="575" type="line"/>
      <point x="654" y="575" type="line"/>
      <point x="654" y="685" type="line"/>
    </contour>
    <contour>
      <point x="346" y="86"/>
      <point x="305" y="12"/>
      <point x="224" y="12" type="curve" smooth="yes"/>
      <point x="188" y="12"/>
      <point x="158" y="34"/>
      <point x="158" y="81" type="curve" smooth="yes"/>
      <point x="158" y="110"/>
      <point x="177" y="141"/>
      <point x="217" y="162" type="curve"/>
      <point x="123" y="230" type="line"/>
      <point x="61" y="190"/>
      <point x="28" y="126"/>
      <point x="28" y="67" type="curve" smooth="yes"/>
      <point x="28" y="-32"/>
      <point x="125" y="-87"/>
      <point x="219" y="-87" type="curve" smooth="yes"/>
      <point x="313" y="-87"/>
      <point x="407" y="-33"/>
      <point x="443" y="74" type="curve"/>
      <point x="373" y="175" type="line"/>
    </contour>
    <component base="da_small"/>
    <contour>
      <point x="438" y="685" type="move" name="top"/>
    </contour>
    <contour>
      <point x="557" y="0" type="move" name="bottom"/>
    </contour>
  </outline>
</glyph>
<glyph name="da_uMatra-deva" format="1">
  <advance width="569"/>
  <outline>
    <contour>
      <point x="513" y="-265"/>
      <point x="608" y="-216"/>
      <point x="608" y="-106" type="curve" smooth="yes"/>
      <point x="608" y="-16"/>
      <point x="523" y="35"/>
      <point x="433" y="35" type="curve" smooth="yes"/>
      <point x="392" y="35"/>
      <point x="338" y="15"/>
      <point x="291" y="-17" type="curve"/>
      <point x="341" y="-100" type="line"/>
      <point x="385" y="-73"/>
      <point x="401" y="-68"/>
      <point x="433" y="-68" type="curve" smooth="yes"/>
      <point x="461" y="-68"/>
      <point x="489" y="-83"/>
      <point x="489" y="-111" type="curve" smooth="yes"/>
      <point x="489" y="-149"/>
      <point x="441" y="-162"/>
      <point x="403" y="-162" type="curve" smooth="yes"/>
      <point x="323" y="-162"/>
      <point x="275" y="-135"/>
      <point x="211" y="-51" type="curve"/>
      <point x="129" y="-114" type="line"/>
      <point x="197" y="-215"/>
      <point x="288" y="-265"/>
      <point x="403" y="-265" type="curve" smooth="yes"/>
    </contour>
    <contour>
      <point x="328" y="594" type="line"/>
      <point x="328" y="493" type="line"/>
      <point x="287" y="493" type="line" smooth="yes"/>
      <point x="131" y="493"/>
      <point x="45" y="442"/>
      <point x="45" y="286" type="curve" smooth="yes"/>
      <point x="45" y="148"/>
      <point x="161" y="58"/>
      <point x="299" y="58" type="curve" smooth="yes"/>
      <point x="418" y="58"/>
      <point x="512" y="91"/>
      <point x="512" y="159" type="curve" smooth="yes"/>
      <point x="512" y="213"/>
      <point x="447" y="269"/>
      <point x="372" y="269" type="curve" smooth="yes"/>
      <point x="317" y="269"/>
      <point x="296" y="232"/>
      <point x="296" y="197" type="curve" smooth="yes"/>
      <point x="296" y="158"/>
      <point x="313" y="120"/>
      <point x="326" y="93" type="curve" smooth="yes"/>
      <point x="355" y="32"/>
      <point x="391" y="-16"/>
      <point x="437" y="-61" type="curve"/>
      <point x="541" y="7" type="line"/>
      <point x="487" y="56"/>
      <point x="449" y="104"/>
      <point x="426" y="153" type="curve"/>
      <point x="446" y="205" type="line"/>
      <point x="399" y="179"/>
      <point x="347" y="164"/>
      <point x="302" y="164" type="curve" smooth="yes"/>
      <point x="227" y="164"/>
      <point x="180" y="211"/>
      <point x="180" y="286" type="curve" smooth="yes"/>
      <point x="180" y="348"/>
      <point x="222" y="383"/>
      <point x="284" y="383" type="curve" smooth="yes"/>
      <point x="462" y="383" type="line"/>
      <point x="462" y="594" type="line"/>
    </contour>
    <contour>
      <point x="-20" y="685" type="line"/>
      <point x="-20" y="575" type="line"/>
      <point x="589" y="575" type="line"/>
      <point x="589" y="685" type="line"/>
    </contour>
    <contour>
      <point x="384" y="685" type="move" name="top"/>
    </contour>
    <contour>
      <point x="289" y="0" type="move" name="bottom"/>
    </contour>
  </outline>
</glyph>
<glyph name="dd-deva" format="1">
  <advance width="617"/>
  <outline>
    <component base="dda-deva"/>
    <component base="halant-deva" xOffset="216" yOffset="-12"/>
    <contour>
      <point x="616" y="390" type="move" name="nukta"/>
    </contour>
    <contour>
      <point x="337" y="0" type="move" name="bottom"/>
    </contour>
    <contour>
      <point x="436" y="685" type="move" name="top"/>
    </contour>
  </outline>
</glyph>
<glyph name="dd_compo" format="1">
  <advance width="578"/>
  <outline>
    <contour>
      <point x="177" y="537" type="line"/>
      <point x="120" y="537"/>
      <point x="85" y="502"/>
      <point x="85" y="446" type="curve" smooth="yes"/>
      <point x="85" y="369"/>
      <point x="160" y="291"/>
      <point x="243" y="291" type="curve" smooth="yes"/>
      <point x="280" y="291"/>
      <point x="392" y="310"/>
      <point x="407" y="310" type="curve" smooth="yes"/>
      <point x="422" y="310"/>
      <point x="429" y="305"/>
      <point x="429" y="290" type="curve" smooth="yes"/>
      <point x="429" y="262"/>
      <point x="365" y="250"/>
      <point x="304" y="250" type="curve" smooth="yes"/>
      <point x="202" y="250"/>
      <point x="137" y="285"/>
      <point x="68" y="367" type="curve"/>
      <point x="-6" y="308" type="line"/>
      <point x="59" y="209"/>
      <point x="165" y="150"/>
      <point x="316" y="150" type="curve" smooth="yes"/>
      <point x="451" y="150"/>
      <point x="556" y="216"/>
      <point x="556" y="311" type="curve" smooth="yes"/>
      <point x="556" y="376"/>
      <point x="514" y="415"/>
      <point x="444" y="415" type="curve" smooth="yes"/>
      <point x="425" y="415"/>
      <point x="287" y="394"/>
      <point x="251" y="394" type="curve" smooth="yes"/>
      <point x="225" y="394"/>
      <point x="212" y="402"/>
      <point x="212" y="425" type="curve" smooth="yes"/>
      <point x="212" y="437"/>
      <point x="220" y="439"/>
      <point x="232" y="439" type="curve" smooth="yes"/>
      <point x="494" y="439" type="line"/>
      <point x="394" y="537" type="line"/>
    </contour>
    <contour>
      <point x="389" y="640" type="line"/>
      <point x="389" y="467" type="line"/>
      <point x="494" y="439" type="line"/>
      <point x="494" y="640" type="line"/>
    </contour>
  </outline>
</glyph>
<glyph name="eMatra_reph-deva" format="1">
  <advance width="270"/>
  <note>
	dMatraEReph
  </note>
  <outline>
    <contour>
      <point x="183" y="946"/>
      <point x="124" y="888"/>
      <point x="124" y="792" type="curve" smooth="yes"/>
      <point x="124" y="754"/>
      <point x="141" y="712"/>
      <point x="172" y="670" type="curve"/>
      <point x="298" y="670" type="line"/>
      <point x="254" y="716"/>
      <point x="237" y="749"/>
      <point x="237" y="788" type="curve" smooth="yes"/>
      <point x="237" y="825"/>
      <point x="259" y="845"/>
      <point x="299" y="845" type="curve" smooth="yes"/>
      <point x="318" y="845"/>
      <point x="343" y="840"/>
      <point x="369" y="831" type="curve"/>
      <point x="393" y="922" type="line"/>
      <point x="355" y="938"/>
      <point x="317" y="946"/>
      <point x="281" y="946" type="curve" smooth="yes"/>
    </contour>
    <component base="eMatra-deva" xOffset="-9"/>
    <contour>
      <point x="223" y="685" type="move" name="_top"/>
    </contour>
  </outline>
</glyph>
<glyph name="eight-deva.loclNEP" format="1">
  <advance width="570"/>
  <outline>
    <contour>
      <point x="230" y="447" type="line" smooth="yes"/>
      <point x="121" y="358"/>
      <point x="70" y="279"/>
      <point x="70" y="199" type="curve" smooth="yes"/>
      <point x="70" y="80"/>
      <point x="171" y="-5"/>
      <point x="314" y="-5" type="curve" smooth="yes"/>
      <point x="376" y="-5"/>
      <point x="445" y="10"/>
      <point x="518" y="39" type="curve"/>
      <point x="480" y="142" type="line"/>
      <point x="421" y="118"/>
      <point x="364" y="106"/>
      <point x="315" y="106" type="curve" smooth="yes"/>
      <point x="247" y="106"/>
      <point x="204" y="142"/>
      <point x="204" y="199" type="curve" smooth="yes"/>
      <point x="204" y="247"/>
      <point x="240" y="300"/>
      <point x="315" y="362" type="curve" smooth="yes"/>
      <point x="476" y="494" type="line"/>
      <point x="366" y="559" type="line"/>
    </contour>
    <contour>
      <point x="-20" y="584" type="line"/>
      <point x="-20" y="474" type="line"/>
      <point x="590" y="474" type="line"/>
      <point x="590" y="584" type="line"/>
    </contour>
  </outline>
</glyph>
<glyph name="f_i" format="1">
  <advance width="665"/>
  <outline>
    <contour>
      <point x="592" y="524" type="line"/>
      <point x="242" y="524" type="line"/>
      <point x="242" y="568" type="line" smooth="yes"/>
      <point x="242" y="626"/>
      <point x="278" y="657"/>
      <point x="345" y="657" type="curve" smooth="yes"/>
      <point x="392" y="657"/>
      <point x="429" y="636"/>
      <point x="444" y="605" type="curve"/>
      <point x="582" y="634" type="line"/>
      <point x="538" y="712"/>
      <point x="460" y="760"/>
      <point x="345" y="760" type="curve" smooth="yes"/>
      <point x="186" y="760"/>
      <point x="95" y="689"/>
      <point x="95" y="567" type="curve" smooth="yes"/>
      <point x="95" y="524" type="line"/>
      <point x="9" y="524" type="line"/>
      <point x="9" y="419" type="line"/>
      <point x="95" y="419" type="line"/>
      <point x="95" y="-153" type="line"/>
      <point x="190" y="-153" type="line"/>
      <point x="224" y="-91"/>
      <point x="242" y="-27"/>
      <point x="242" y="45" type="curve" smooth="yes"/>
      <point x="242" y="419" type="line"/>
      <point x="442" y="419" type="line"/>
      <point x="442" y="0" type="line"/>
      <point x="592" y="0" type="line"/>
    </contour>
  </outline>
</glyph>
<glyph name="five-deva.loclNEP" format="1">
  <advance width="570"/>
  <outline>
    <contour>
      <point x="83" y="628"/>
      <point x="21" y="531"/>
      <point x="21" y="442" type="curve" smooth="yes"/>
      <point x="21" y="304"/>
      <point x="114" y="218"/>
      <point x="261" y="218" type="curve" smooth="yes"/>
      <point x="381" y="218"/>
      <point x="490" y="291"/>
      <point x="490" y="372" type="curve" smooth="yes"/>
      <point x="490" y="429"/>
      <point x="427" y="482"/>
      <point x="360" y="482" type="curve" smooth="yes"/>
      <point x="314" y="482"/>
      <point x="284" y="454"/>
      <point x="284" y="410" type="curve" smooth="yes"/>
      <point x="284" y="384"/>
      <point x="286" y="368"/>
      <point x="317" y="304" type="curve" smooth="yes"/>
      <point x="364" y="207" type="line" smooth="yes"/>
      <point x="384" y="165"/>
      <point x="390" y="145"/>
      <point x="390" y="125" type="curve" smooth="yes"/>
      <point x="390" y="99"/>
      <point x="375" y="72"/>
      <point x="349" y="53" type="curve"/>
      <point x="415" y="-28" type="line"/>
      <point x="477" y="11"/>
      <point x="516" y="64"/>
      <point x="516" y="123" type="curve" smooth="yes"/>
      <point x="516" y="155"/>
      <point x="509" y="179"/>
      <point x="485" y="232" type="curve" smooth="yes"/>
      <point x="435" y="336" type="line"/>
      <point x="406" y="378" type="line"/>
      <point x="340" y="342"/>
      <point x="297" y="328"/>
      <point x="257" y="328" type="curve" smooth="yes"/>
      <point x="193" y="328"/>
      <point x="156" y="368"/>
      <point x="156" y="440" type="curve" smooth="yes"/>
      <point x="156" y="504"/>
      <point x="202" y="577"/>
      <point x="275" y="630" type="curve"/>
      <point x="182" y="695" type="line"/>
    </contour>
    <contour>
      <point x="242" y="116"/>
      <point x="169" y="90"/>
      <point x="169" y="31" type="curve"/>
      <point x="169" y="-30"/>
      <point x="247" y="-52"/>
      <point x="293" y="-52" type="curve"/>
      <point x="336" y="-52"/>
      <point x="392" y="-26"/>
      <point x="417" y="-10" type="curve"/>
      <point x="341" y="78" type="line"/>
      <point x="290" y="12" type="line"/>
      <point x="335" y="-17"/>
      <point x="368" y="-49"/>
      <point x="436" y="-129" type="curve"/>
      <point x="546" y="-61" type="line"/>
      <point x="475" y="22"/>
      <point x="374" y="116"/>
      <point x="290" y="116" type="curve"/>
    </contour>
  </outline>
</glyph>
<glyph name="g_compo" format="1">
  <advance width="294"/>
  <outline>
    <contour>
      <point x="113" y="450" type="line"/>
      <point x="59" y="450"/>
      <point x="33" y="435"/>
      <point x="33" y="385" type="curve" smooth="yes"/>
      <point x="33" y="324"/>
      <point x="115" y="256"/>
      <point x="165" y="256" type="curve" smooth="yes"/>
      <point x="210" y="256"/>
      <point x="218" y="285"/>
      <point x="218" y="331" type="curve" smooth="yes"/>
      <point x="218" y="585" type="line"/>
      <point x="113" y="605" type="line"/>
    </contour>
  </outline>
</glyph>
<glyph name="g_na-deva" format="1">
  <advance width="649"/>
  <outline>
    <contour>
      <point x="294" y="-120"/>
      <point x="337" y="-97"/>
      <point x="337" y="-62" type="curve" smooth="yes"/>
      <point x="337" y="-35"/>
      <point x="310" y="-2"/>
      <point x="261" y="53" type="curve"/>
      <point x="185" y="-24" type="line"/>
      <point x="244" y="-81" type="line"/>
      <point x="268" y="5" type="line"/>
      <point x="487" y="191" type="line"/>
      <point x="448" y="312" type="line"/>
      <point x="142" y="31" type="line" smooth="yes"/>
      <point x="118" y="9"/>
      <point x="103" y="-10"/>
      <point x="103" y="-31" type="curve" smooth="yes"/>
      <point x="103" y="-76"/>
      <point x="176" y="-120"/>
      <point x="249" y="-120" type="curve" smooth="yes"/>
    </contour>
    <contour>
      <point x="555" y="0" type="line"/>
      <point x="555" y="608" type="line"/>
      <point x="420" y="608" type="line"/>
      <point x="420" y="0" type="line"/>
    </contour>
    <contour>
      <point x="680" y="575" type="line"/>
      <point x="680" y="685" type="line"/>
      <point x="295" y="685" type="line"/>
      <point x="295" y="575" type="line"/>
    </contour>
    <component base="g-deva"/>
    <contour>
      <point x="488" y="685" type="move" name="top"/>
    </contour>
    <contour>
      <point x="488" y="-1" type="move" name="bottom"/>
    </contour>
  </outline>
</glyph>
<glyph name="gh_ra-deva" format="1">
  <advance width="706"/>
  <outline>
    <contour>
      <point x="159" y="2" type="line"/>
      <point x="240" y="-85" type="line"/>
      <point x="523" y="154" type="line"/>
      <point x="523" y="300" type="line"/>
    </contour>
    <component base="gha-deva"/>
    <contour>
      <point x="534" y="685" type="move" name="top"/>
    </contour>
    <contour>
      <point x="534" y="0" type="move" name="bottom"/>
    </contour>
  </outline>
</glyph>
<glyph name="h-deva" format="1">
  <advance width="440"/>
  <outline>
    <contour>
      <point x="188" y="319"/>
      <point x="87" y="240"/>
      <point x="87" y="112" type="curve" smooth="yes"/>
      <point x="87" y="-14"/>
      <point x="187" y="-91"/>
      <point x="384" y="-114" type="curve"/>
      <point x="397" y="-8" type="line"/>
      <point x="282" y="7"/>
      <point x="222" y="46"/>
      <point x="222" y="112" type="curve" smooth="yes"/>
      <point x="222" y="181"/>
      <point x="275" y="209"/>
      <point x="349" y="209" type="curve" smooth="yes"/>
      <point x="418" y="209"/>
      <point x="498" y="182"/>
      <point x="553" y="140" type="curve"/>
      <point x="548" y="272" type="line"/>
      <point x="485" y="301"/>
      <point x="417" y="319"/>
      <point x="341" y="319" type="curve" smooth="yes"/>
    </contour>
    <contour>
      <point x="198" y="493" type="line" smooth="yes"/>
      <point x="120" y="493"/>
      <point x="73" y="455"/>
      <point x="73" y="386" type="curve" smooth="yes"/>
      <point x="73" y="322"/>
      <point x="107" y="258"/>
      <point x="169" y="207" type="curve"/>
      <point x="283" y="258" type="line"/>
      <point x="253" y="281"/>
      <point x="217" y="315"/>
      <point x="217" y="349" type="curve" smooth="yes"/>
      <point x="217" y="370"/>
      <point x="229" y="383"/>
      <point x="253" y="383" type="curve" smooth="yes"/>
      <point x="441" y="383" type="line"/>
      <point x="337" y="493" type="line"/>
    </contour>
    <contour>
      <point x="-10" y="685" type="line"/>
      <point x="-10" y="575" type="line"/>
      <point x="592" y="575" type="line"/>
      <point x="592" y="685" type="line"/>
    </contour>
    <contour>
      <point x="306" y="599" type="line"/>
      <point x="306" y="415" type="line"/>
      <point x="441" y="383" type="line"/>
      <point x="441" y="599" type="line"/>
    </contour>
    <contour>
      <point x="220" y="685" type="move" name="top"/>
    </contour>
    <contour>
      <point x="220" y="0" type="move" name="bottom"/>
    </contour>
  </outline>
</glyph>
<glyph name="h_nna-deva" format="1">
  <advance width="657"/>
  <outline>
    <contour>
      <point x="369" y="272" type="line"/>
      <point x="369" y="118" type="line" smooth="yes"/>
      <point x="369" y="99"/>
      <point x="360" y="88"/>
      <point x="344" y="88" type="curve" smooth="yes"/>
      <point x="327" y="88"/>
      <point x="319" y="98"/>
      <point x="319" y="118" type="curve" smooth="yes"/>
      <point x="319" y="272" type="line"/>
      <point x="229" y="272" type="line"/>
      <point x="229" y="115" type="line" smooth="yes"/>
      <point x="229" y="50"/>
      <point x="272" y="10"/>
      <point x="344" y="10" type="curve" smooth="yes"/>
      <point x="416" y="10"/>
      <point x="459" y="50"/>
      <point x="459" y="115" type="curve" smooth="yes"/>
      <point x="459" y="272" type="line"/>
    </contour>
    <contour>
      <point x="167" y="323"/>
      <point x="57" y="239"/>
      <point x="57" y="98" type="curve" smooth="yes"/>
      <point x="57" y="-57"/>
      <point x="171" y="-141"/>
      <point x="411" y="-176" type="curve"/>
      <point x="427" y="-59" type="line"/>
      <point x="267" y="-40"/>
      <point x="192" y="10"/>
      <point x="192" y="98" type="curve" smooth="yes"/>
      <point x="192" y="168"/>
      <point x="254" y="213"/>
      <point x="351" y="213" type="curve" smooth="yes"/>
      <point x="441" y="213"/>
      <point x="491" y="172"/>
      <point x="491" y="98" type="curve" smooth="yes"/>
      <point x="491" y="33" type="line"/>
      <point x="612" y="31" type="line"/>
      <point x="614" y="104" type="line" smooth="yes"/>
      <point x="614" y="240"/>
      <point x="515" y="323"/>
      <point x="351" y="323" type="curve" smooth="yes"/>
    </contour>
    <contour>
      <point x="235" y="493" type="line" smooth="yes"/>
      <point x="156" y="493"/>
      <point x="110" y="454"/>
      <point x="110" y="386" type="curve" smooth="yes"/>
      <point x="110" y="322"/>
      <point x="144" y="258"/>
      <point x="206" y="207" type="curve"/>
      <point x="320" y="258" type="line"/>
      <point x="277" y="291"/>
      <point x="254" y="323"/>
      <point x="254" y="349" type="curve" smooth="yes"/>
      <point x="254" y="371"/>
      <point x="267" y="383"/>
      <point x="290" y="383" type="curve" smooth="yes"/>
      <point x="537" y="383" type="line"/>
      <point x="433" y="493" type="line"/>
    </contour>
    <contour>
      <point x="402" y="599" type="line"/>
      <point x="402" y="415" type="line"/>
      <point x="537" y="383" type="line"/>
      <point x="537" y="599" type="line"/>
    </contour>
    <contour>
      <point x="-10" y="685" type="line"/>
      <point x="-10" y="575" type="line"/>
      <point x="677" y="575" type="line"/>
      <point x="677" y="685" type="line"/>
    </contour>
    <contour>
      <point x="471" y="685" type="move" name="top"/>
    </contour>
    <contour>
      <point x="366" y="-226" type="move" name="bottom"/>
    </contour>
  </outline>
</glyph>
<glyph name="h_ya-deva" format="1">
  <advance width="824"/>
  <outline>
    <contour>
      <point x="179" y="328"/>
      <point x="86" y="249"/>
      <point x="86" y="130" type="curve" smooth="yes"/>
      <point x="86" y="8"/>
      <point x="143" y="-76"/>
      <point x="266" y="-136" type="curve"/>
      <point x="328" y="-37" type="line"/>
      <point x="253" y="1"/>
      <point x="221" y="51"/>
      <point x="221" y="130" type="curve" smooth="yes"/>
      <point x="221" y="182"/>
      <point x="261" y="218"/>
      <point x="320" y="218" type="curve" smooth="yes"/>
      <point x="347" y="218"/>
      <point x="363" y="210"/>
      <point x="363" y="190" type="curve" smooth="yes"/>
      <point x="363" y="169"/>
      <point x="341" y="152"/>
      <point x="296" y="137" type="curve"/>
      <point x="302" y="37"/>
      <point x="375" y="-27"/>
      <point x="475" y="-27" type="curve" smooth="yes"/>
      <point x="572" y="-27"/>
      <point x="637" y="31"/>
      <point x="684" y="149" type="curve"/>
      <point x="609" y="181" type="line"/>
      <point x="583" y="106"/>
      <point x="529" y="81"/>
      <point x="487" y="81" type="curve" smooth="yes"/>
      <point x="466" y="81"/>
      <point x="447" y="91"/>
      <point x="436" y="113" type="curve"/>
      <point x="484" y="132"/>
      <point x="505" y="166"/>
      <point x="505" y="207" type="curve" smooth="yes"/>
      <point x="505" y="280"/>
      <point x="432" y="328"/>
      <point x="320" y="328" type="curve" smooth="yes"/>
    </contour>
    <contour>
      <point x="197" y="493" type="line" smooth="yes"/>
      <point x="118" y="493"/>
      <point x="72" y="454"/>
      <point x="72" y="386" type="curve" smooth="yes"/>
      <point x="72" y="322"/>
      <point x="106" y="258"/>
      <point x="168" y="207" type="curve"/>
      <point x="282" y="258" type="line"/>
      <point x="239" y="291"/>
      <point x="216" y="323"/>
      <point x="216" y="349" type="curve" smooth="yes"/>
      <point x="216" y="371"/>
      <point x="229" y="383"/>
      <point x="252" y="383" type="curve" smooth="yes"/>
      <point x="488" y="383" type="line"/>
      <point x="384" y="493" type="line"/>
    </contour>
    <contour>
      <point x="353" y="599" type="line"/>
      <point x="353" y="415" type="line"/>
      <point x="488" y="383" type="line"/>
      <point x="488" y="599" type="line"/>
    </contour>
    <contour>
      <point x="597" y="612" type="line"/>
      <point x="597" y="-44" type="line"/>
      <point x="730" y="-44" type="line"/>
      <point x="730" y="612" type="line"/>
    </contour>
    <contour>
      <point x="-20" y="685" type="line"/>
      <point x="-20" y="575" type="line"/>
      <point x="844" y="575" type="line"/>
      <point x="844" y="685" type="line"/>
    </contour>
    <contour>
      <point x="670" y="685" type="move" name="top"/>
    </contour>
    <contour>
      <point x="665" y="-45" type="move" name="bottom"/>
    </contour>
  </outline>
</glyph>
<glyph name="ha-deva.alt" format="1">
  <advance width="647"/>
  <outline>
    <contour>
      <point x="157" y="323"/>
      <point x="47" y="239"/>
      <point x="47" y="98" type="curve" smooth="yes"/>
      <point x="47" y="-57"/>
      <point x="161" y="-141"/>
      <point x="401" y="-176" type="curve"/>
      <point x="417" y="-59" type="line"/>
      <point x="257" y="-40"/>
      <point x="182" y="10"/>
      <point x="182" y="98" type="curve" smooth="yes"/>
      <point x="182" y="168"/>
      <point x="244" y="213"/>
      <point x="341" y="213" type="curve" smooth="yes"/>
      <point x="431" y="213"/>
      <point x="481" y="172"/>
      <point x="481" y="98" type="curve" smooth="yes"/>
      <point x="481" y="33" type="line"/>
      <point x="602" y="31" type="line"/>
      <point x="604" y="104" type="line" smooth="yes"/>
      <point x="604" y="240"/>
      <point x="505" y="323"/>
      <point x="341" y="323" type="curve" smooth="yes"/>
    </contour>
    <contour>
      <point x="225" y="493" type="line" smooth="yes"/>
      <point x="146" y="493"/>
      <point x="100" y="454"/>
      <point x="100" y="386" type="curve" smooth="yes"/>
      <point x="100" y="322"/>
      <point x="134" y="258"/>
      <point x="196" y="207" type="curve"/>
      <point x="310" y="258" type="line"/>
      <point x="267" y="291"/>
      <point x="244" y="323"/>
      <point x="244" y="349" type="curve" smooth="yes"/>
      <point x="244" y="371"/>
      <point x="257" y="383"/>
      <point x="280" y="383" type="curve" smooth="yes"/>
      <point x="527" y="383" type="line"/>
      <point x="423" y="493" type="line"/>
    </contour>
    <contour>
      <point x="392" y="599" type="line"/>
      <point x="392" y="415" type="line"/>
      <point x="527" y="383" type="line"/>
      <point x="527" y="599" type="line"/>
    </contour>
    <contour>
      <point x="-20" y="685" type="line"/>
      <point x="-20" y="575" type="line"/>
      <point x="667" y="575" type="line"/>
      <point x="667" y="685" type="line"/>
    </contour>
    <contour>
      <point x="467" y="685" type="move" name="top"/>
    </contour>
    <contour>
      <point x="318" y="-85" type="move" name="bottom"/>
    </contour>
  </outline>
</glyph>
<glyph name="hookabove" format="1">
  <advance width="278"/>
  <outline>
    <contour>
      <point x="81" y="631" type="line"/>
      <point x="114" y="564" type="line"/>
      <point x="154" y="572" type="line"/>
      <point x="156" y="617" type="line"/>
      <point x="210" y="627"/>
      <point x="242" y="661"/>
      <point x="242" y="708" type="curve" smooth="yes"/>
      <point x="242" y="760"/>
      <point x="202" y="795"/>
      <point x="141" y="795" type="curve" smooth="yes"/>
      <point x="101" y="795"/>
      <point x="66" y="782"/>
      <point x="36" y="755" type="curve"/>
      <point x="66" y="703" type="line"/>
      <point x="83" y="717"/>
      <point x="112" y="727"/>
      <point x="130" y="727" type="curve" smooth="yes"/>
      <point x="149" y="727"/>
      <point x="160" y="718"/>
      <point x="160" y="703" type="curve" smooth="yes"/>
      <point x="160" y="681"/>
      <point x="138" y="666"/>
      <point x="93" y="657" type="curve"/>
    </contour>
  </outline>
</glyph>
<glyph name="iMatra-deva.00" format="1">
  <advance width="323"/>
  <outline>
    <contour>
      <point x="152" y="972"/>
      <point x="69" y="901"/>
      <point x="69" y="794" type="curve" smooth="yes"/>
      <point x="69" y="750"/>
      <point x="81" y="700"/>
      <point x="106" y="648" type="curve"/>
      <point x="240" y="648" type="line"/>
      <point x="214" y="688"/>
      <point x="204" y="728"/>
      <point x="204" y="778" type="curve" smooth="yes"/>
      <point x="204" y="828"/>
      <point x="235" y="857"/>
      <point x="290" y="857" type="curve" smooth="yes"/>
      <point x="353" y="857"/>
      <point x="391" y="828"/>
      <point x="446" y="738" type="curve"/>
      <point x="552" y="798" type="line"/>
      <point x="473" y="922"/>
      <point x="395" y="972"/>
      <point x="281" y="972" type="curve" smooth="yes"/>
    </contour>
    <contour>
      <point x="94" y="608" type="line"/>
      <point x="94" y="0" type="line"/>
      <point x="229" y="0" type="line"/>
      <point x="229" y="608" type="line"/>
    </contour>
    <contour>
      <point x="-31" y="685" type="line"/>
      <point x="-31" y="575" type="line"/>
      <point x="354" y="575" type="line"/>
      <point x="354" y="685" type="line"/>
    </contour>
    <contour>
      <point x="552" y="798" type="move" name="imatra"/>
    </contour>
    <contour>
      <point x="161" y="0" type="move" name="bottom"/>
    </contour>
    <contour>
      <point x="552" y="848" type="move" name="top"/>
    </contour>
  </outline>
</glyph>
<glyph name="iMatra-deva.11" format="1">
  <advance width="323"/>
  <outline>
    <contour>
      <point x="251" y="972"/>
      <point x="69" y="905"/>
      <point x="69" y="762" type="curve" smooth="yes"/>
      <point x="69" y="732"/>
      <point x="78" y="693"/>
      <point x="96" y="648" type="curve"/>
      <point x="230" y="648" type="line"/>
      <point x="213" y="677"/>
      <point x="204" y="710"/>
      <point x="204" y="749" type="curve" smooth="yes"/>
      <point x="204" y="827"/>
      <point x="340" y="861"/>
      <point x="662" y="861" type="curve" smooth="yes"/>
      <point x="917" y="861"/>
      <point x="1315" y="823"/>
      <point x="1826" y="740" type="curve"/>
      <point x="1865" y="841" type="line"/>
      <point x="1260" y="937"/>
      <point x="976" y="972"/>
      <point x="662" y="972" type="curve" smooth="yes"/>
    </contour>
    <contour>
      <point x="94" y="608" type="line"/>
      <point x="94" y="0" type="line"/>
      <point x="229" y="0" type="line"/>
      <point x="229" y="608" type="line"/>
    </contour>
    <contour>
      <point x="-31" y="685" type="line"/>
      <point x="-31" y="575" type="line"/>
      <point x="354" y="575" type="line"/>
      <point x="354" y="685" type="line"/>
    </contour>
    <contour>
      <point x="1865" y="841" type="move" name="imatra"/>
    </contour>
    <contour>
      <point x="161" y="0" type="move" name="bottom"/>
    </contour>
    <contour>
      <point x="1865" y="891" type="move" name="top"/>
    </contour>
  </outline>
</glyph>
<glyph name="iMatra_reph-deva.02" format="1">
  <advance width="323"/>
  <outline>
    <component base="iMatra-deva.02"/>
    <component base="reph-deva.imatra" xOffset="566" yOffset="146"/>
    <contour>
      <point x="791" y="806" type="move" name="imatra"/>
    </contour>
    <contour>
      <point x="161" y="0" type="move" name="bottom"/>
    </contour>
    <contour>
      <point x="777" y="1121" type="move" name="top"/>
    </contour>
  </outline>
</glyph>
<glyph name="iMatra_reph_anusvara-deva.00" format="1">
  <advance width="323"/>
  <outline>
    <component base="iMatra-deva.00"/>
    <component base="reph_anusvara-deva.imatra" xOffset="364" yOffset="138"/>
    <contour>
      <point x="552" y="798" type="move" name="imatra"/>
    </contour>
    <contour>
      <point x="161" y="0" type="move" name="bottom"/>
    </contour>
    <contour>
      <point x="661" y="1136" type="move" name="top"/>
    </contour>
  </outline>
</glyph>
<glyph name="iMatra_reph_anusvara-deva.03" format="1">
  <advance width="323"/>
  <outline>
    <component base="iMatra-deva.03"/>
    <component base="reph_anusvara-deva.imatra" xOffset="722" yOffset="150"/>
    <contour>
      <point x="910" y="810" type="move" name="imatra"/>
    </contour>
    <contour>
      <point x="161" y="0" type="move" name="bottom"/>
    </contour>
    <contour>
      <point x="1019" y="1148" type="move" name="top"/>
    </contour>
  </outline>
</glyph>
<glyph name="iMatra_reph_anusvara-deva.06" format="1">
  <advance width="323"/>
  <outline>
    <component base="iMatra-deva.06"/>
    <component base="reph_anusvara-deva.imatra" xOffset="1080" yOffset="161"/>
    <contour>
      <point x="1268" y="821" type="move" name="imatra"/>
    </contour>
    <contour>
      <point x="161" y="0" type="move" name="bottom"/>
    </contour>
    <contour>
      <point x="1377" y="1159" type="move" name="top"/>
    </contour>
  </outline>
</glyph>
<glyph name="iMatra_reph_anusvara-deva.07" format="1">
  <advance width="323"/>
  <outline>
    <component base="iMatra-deva.07"/>
    <component base="reph_anusvara-deva.imatra" xOffset="1199" yOffset="165"/>
    <contour>
      <point x="1387" y="825" type="move" name="imatra"/>
    </contour>
    <contour>
      <point x="161" y="0" type="move" name="bottom"/>
    </contour>
    <contour>
      <point x="1496" y="1163" type="move" name="top"/>
    </contour>
  </outline>
</glyph>
<glyph name="iiMatra-deva.01" format="1">
  <advance width="345"/>
  <outline>
    <contour>
      <point x="-444" y="968"/>
      <point x="-539" y="924"/>
      <point x="-539" y="835" type="curve" smooth="yes"/>
      <point x="-539" y="802"/>
      <point x="-521" y="761"/>
      <point x="-503" y="736" type="curve"/>
      <point x="-370" y="767" type="line"/>
      <point x="-380" y="782"/>
      <point x="-386" y="795"/>
      <point x="-386" y="810" type="curve" smooth="yes"/>
      <point x="-386" y="829"/>
      <point x="-371" y="856"/>
      <point x="-296" y="856" type="curve" smooth="yes"/>
      <point x="-122" y="856"/>
      <point x="27" y="780"/>
      <point x="110" y="648" type="curve"/>
      <point x="252" y="648" type="line"/>
      <point x="158" y="861"/>
      <point x="-64" y="968"/>
      <point x="-328" y="968" type="curve" smooth="yes"/>
    </contour>
    <component base="aaMatra-deva"/>
    <contour>
      <point x="229" y="685" type="move" name="imatra"/>
    </contour>
    <contour>
      <point x="172" y="0" type="move" name="bottom"/>
    </contour>
    <contour>
      <point x="264" y="770" type="move" name="top"/>
    </contour>
  </outline>
</glyph>
<glyph name="j-deva" format="1">
  <advance width="495"/>
  <outline>
    <contour>
      <point x="29" y="438" type="line"/>
      <point x="94" y="202"/>
      <point x="167" y="102"/>
      <point x="331" y="102" type="curve" smooth="yes"/>
      <point x="436" y="102"/>
      <point x="506" y="165"/>
      <point x="506" y="261" type="curve" smooth="yes"/>
      <point x="506" y="319"/>
      <point x="475" y="374"/>
      <point x="399" y="450" type="curve"/>
      <point x="301" y="383" type="line"/>
      <point x="364" y="312"/>
      <point x="372" y="282"/>
      <point x="372" y="256" type="curve" smooth="yes"/>
      <point x="372" y="225"/>
      <point x="347" y="212"/>
      <point x="326" y="212" type="curve" smooth="yes"/>
      <point x="263" y="212"/>
      <point x="209" y="297"/>
      <point x="158" y="470" type="curve"/>
    </contour>
    <contour>
      <point x="348" y="493" type="line"/>
      <point x="301" y="383" type="line"/>
      <point x="611" y="383" type="line"/>
      <point x="611" y="493" type="line"/>
    </contour>
    <contour>
      <point x="-20" y="685" type="line"/>
      <point x="-20" y="575" type="line"/>
      <point x="515" y="575" type="line"/>
      <point x="515" y="685" type="line"/>
    </contour>
    <contour>
      <point x="317" y="0" type="move" name="nukta"/>
    </contour>
    <contour>
      <point x="298" y="0" type="move" name="bottom"/>
    </contour>
    <contour>
      <point x="248" y="685" type="move" name="top"/>
    </contour>
  </outline>
</glyph>
<glyph name="j_compo_down" format="1">
  <advance width="575"/>
  <outline>
    <contour>
      <point x="-7" y="-58" type="line"/>
      <point x="85" y="-177"/>
      <point x="180" y="-232"/>
      <point x="290" y="-232" type="curve" smooth="yes"/>
      <point x="400" y="-232"/>
      <point x="475" y="-176"/>
      <point x="475" y="-66" type="curve" smooth="yes"/>
      <point x="475" y="0"/>
      <point x="413" y="71"/>
      <point x="327" y="100" type="curve"/>
      <point x="266" y="-3" type="line"/>
      <point x="319" y="-17"/>
      <point x="341" y="-36"/>
      <point x="341" y="-68" type="curve" smooth="yes"/>
      <point x="341" y="-101"/>
      <point x="309" y="-111"/>
      <point x="284" y="-111" type="curve" smooth="yes"/>
      <point x="237" y="-111"/>
      <point x="167" y="-80"/>
      <point x="94" y="23" type="curve"/>
    </contour>
    <contour>
      <point x="249" y="110" type="line"/>
      <point x="266" y="-3" type="line"/>
      <point x="574" y="140" type="line"/>
      <point x="553" y="253" type="line"/>
    </contour>
  </outline>
</glyph>
<glyph name="j_ny_ra-deva" format="1">
  <advance width="838"/>
  <outline>
    <contour>
      <point x="204" y="383" type="line"/>
      <point x="257" y="383"/>
      <point x="291" y="350"/>
      <point x="291" y="298" type="curve" smooth="yes"/>
      <point x="291" y="244"/>
      <point x="261" y="212"/>
      <point x="209" y="212" type="curve" smooth="yes"/>
      <point x="169" y="212"/>
      <point x="137" y="229"/>
      <point x="111" y="264" type="curve"/>
      <point x="44" y="196" type="line"/>
      <point x="92" y="130"/>
      <point x="145" y="102"/>
      <point x="219" y="102" type="curve" smooth="yes"/>
      <point x="349" y="102"/>
      <point x="426" y="175"/>
      <point x="426" y="298" type="curve" smooth="yes"/>
      <point x="426" y="420"/>
      <point x="349" y="493"/>
      <point x="219" y="493" type="curve"/>
    </contour>
    <contour>
      <point x="16" y="282"/>
      <point x="-20" y="252"/>
      <point x="-20" y="207" type="curve" smooth="yes"/>
      <point x="-20" y="136"/>
      <point x="25" y="102"/>
      <point x="119" y="102" type="curve" smooth="yes"/>
      <point x="142" y="102"/>
      <point x="180" y="104"/>
      <point x="199" y="107" type="curve"/>
      <point x="226" y="180" type="line"/>
      <point x="166" y="252"/>
      <point x="120" y="282"/>
      <point x="68" y="282" type="curve" smooth="yes"/>
    </contour>
    <contour>
      <point x="129" y="148" type="line"/>
      <point x="312" y="-69" type="line"/>
      <point x="398" y="1" type="line"/>
      <point x="232" y="196" type="line"/>
    </contour>
    <contour>
      <point x="209" y="493" type="line"/>
      <point x="161" y="383" type="line"/>
      <point x="692" y="383" type="line"/>
      <point x="682" y="493" type="line"/>
    </contour>
    <contour>
      <point x="2" y="685" type="line"/>
      <point x="2" y="575" type="line"/>
      <point x="552" y="575" type="line"/>
      <point x="552" y="685" type="line"/>
    </contour>
    <contour>
      <point x="598" y="608" type="line"/>
      <point x="598" y="0" type="line"/>
      <point x="733" y="0" type="line"/>
      <point x="733" y="608" type="line"/>
    </contour>
    <contour>
      <point x="473" y="685" type="line"/>
      <point x="473" y="575" type="line"/>
      <point x="858" y="575" type="line"/>
      <point x="858" y="685" type="line"/>
    </contour>
    <contour>
      <point x="402" y="105" type="line"/>
      <point x="466" y="8" type="line"/>
      <point x="660" y="171" type="line"/>
      <point x="598" y="266" type="line"/>
    </contour>
    <contour>
      <point x="732" y="685" type="move" name="imatra"/>
    </contour>
    <contour>
      <point x="666" y="0" type="move" name="bottom"/>
    </contour>
    <contour>
      <point x="666" y="685" type="move" name="top"/>
    </contour>
  </outline>
</glyph>
<glyph name="jh_compo" format="1">
  <advance width="660"/>
  <outline>
    <contour>
      <point x="225" y="518" type="line"/>
      <point x="134" y="518"/>
      <point x="78" y="474"/>
      <point x="78" y="404" type="curve"/>
      <point x="78" y="299"/>
      <point x="146" y="224"/>
      <point x="241" y="224" type="curve" smooth="yes"/>
      <point x="281" y="224"/>
      <point x="336" y="241"/>
      <point x="350" y="241" type="curve" smooth="yes"/>
      <point x="371" y="241"/>
      <point x="383" y="228"/>
      <point x="383" y="202" type="curve" smooth="yes"/>
      <point x="383" y="120"/>
      <point x="300" y="118"/>
      <point x="233" y="118" type="curve"/>
      <point x="237" y="8" type="line"/>
      <point x="356" y="8"/>
      <point x="508" y="62"/>
      <point x="508" y="214" type="curve" smooth="yes"/>
      <point x="508" y="295"/>
      <point x="473" y="354"/>
      <point x="401" y="354" type="curve" smooth="yes"/>
      <point x="382" y="354"/>
      <point x="283" y="334"/>
      <point x="256" y="334" type="curve" smooth="yes"/>
      <point x="232" y="334"/>
      <point x="213" y="347"/>
      <point x="213" y="386" type="curve"/>
      <point x="213" y="402"/>
      <point x="222" y="408"/>
      <point x="239" y="408" type="curve"/>
      <point x="487" y="407" type="line"/>
      <point x="385" y="518" type="line"/>
    </contour>
    <contour>
      <point x="76" y="204"/>
      <point x="57" y="155"/>
      <point x="57" y="122" type="curve" smooth="yes"/>
      <point x="57" y="33"/>
      <point x="120" y="9"/>
      <point x="266" y="9" type="curve"/>
      <point x="302" y="85" type="line"/>
      <point x="265" y="150"/>
      <point x="197" y="204"/>
      <point x="145" y="204" type="curve" smooth="yes"/>
    </contour>
    <contour>
      <point x="405" y="251" type="line"/>
      <point x="447" y="231"/>
      <point x="508" y="219"/>
      <point x="570" y="219" type="curve" smooth="yes"/>
      <point x="604" y="219"/>
      <point x="635" y="221"/>
      <point x="664" y="225" type="curve"/>
      <point x="664" y="338" type="line"/>
      <point x="631" y="335"/>
      <point x="596" y="333"/>
      <point x="566" y="333" type="curve" smooth="yes"/>
      <point x="517" y="333"/>
      <point x="470" y="339"/>
      <point x="438" y="348" type="curve"/>
    </contour>
    <contour>
      <point x="352" y="619" type="line"/>
      <point x="352" y="444" type="line"/>
      <point x="487" y="407" type="line"/>
      <point x="487" y="619" type="line"/>
    </contour>
    <contour>
      <point x="-3" y="685" type="line"/>
      <point x="-3" y="575" type="line"/>
      <point x="623" y="575" type="line"/>
      <point x="623" y="685" type="line"/>
    </contour>
    <contour>
      <point x="192" y="43" type="line"/>
      <point x="346" y="-167" type="line"/>
      <point x="436" y="-100" type="line"/>
      <point x="293" y="100" type="line"/>
    </contour>
  </outline>
</glyph>
<glyph name="jh_ra-deva" format="1">
  <advance width="896"/>
  <outline>
    <contour>
      <point x="419" y="2" type="line"/>
      <point x="500" y="-85" type="line"/>
      <point x="783" y="154" type="line"/>
      <point x="783" y="300" type="line"/>
    </contour>
    <contour>
      <point x="656" y="10" type="line"/>
      <point x="656" y="-55" type="line"/>
      <point x="791" y="-55" type="line"/>
      <point x="791" y="10" type="line"/>
    </contour>
    <component base="aaMatra-deva" xOffset="551"/>
    <component base="jh_compo" xOffset="-6"/>
    <contour>
      <point x="724" y="685" type="move" name="top"/>
    </contour>
    <contour>
      <point x="724" y="-55" type="move" name="bottom"/>
    </contour>
  </outline>
</glyph>
<glyph name="k_la-deva.loclMAR" format="1">
  <advance width="898"/>
  <outline>
    <contour>
      <point x="125" y="493"/>
      <point x="43" y="421"/>
      <point x="43" y="298" type="curve" smooth="yes"/>
      <point x="43" y="175"/>
      <point x="120" y="102"/>
      <point x="250" y="102" type="curve" smooth="yes"/>
      <point x="344" y="102"/>
      <point x="405" y="148"/>
      <point x="463" y="258" type="curve"/>
      <point x="389" y="317" type="line"/>
      <point x="358" y="250"/>
      <point x="320" y="212"/>
      <point x="260" y="212" type="curve" smooth="yes"/>
      <point x="208" y="212"/>
      <point x="178" y="244"/>
      <point x="178" y="298" type="curve" smooth="yes"/>
      <point x="178" y="351"/>
      <point x="213" y="383"/>
      <point x="271" y="383" type="curve" smooth="yes"/>
      <point x="279" y="383"/>
      <point x="288" y="382"/>
      <point x="297" y="381" type="curve"/>
      <point x="284" y="492" type="line"/>
      <point x="277" y="493"/>
      <point x="270" y="493"/>
      <point x="263" y="493" type="curve" smooth="yes"/>
    </contour>
    <contour>
      <point x="381" y="610" type="line"/>
      <point x="381" y="0" type="line"/>
      <point x="516" y="0" type="line"/>
      <point x="516" y="610" type="line"/>
    </contour>
    <contour>
      <point x="555" y="493"/>
      <point x="494" y="448"/>
      <point x="435" y="337" type="curve"/>
      <point x="509" y="278" type="line"/>
      <point x="543" y="351"/>
      <point x="582" y="383"/>
      <point x="638" y="383" type="curve" smooth="yes"/>
      <point x="690" y="383"/>
      <point x="720" y="351"/>
      <point x="720" y="297" type="curve" smooth="yes"/>
      <point x="720" y="244"/>
      <point x="685" y="212"/>
      <point x="627" y="212" type="curve" smooth="yes"/>
      <point x="619" y="212"/>
      <point x="609" y="213"/>
      <point x="599" y="215" type="curve"/>
      <point x="609" y="103" type="line"/>
      <point x="618" y="103"/>
      <point x="626" y="102"/>
      <point x="635" y="102" type="curve" smooth="yes"/>
      <point x="773" y="102"/>
      <point x="855" y="174"/>
      <point x="855" y="297" type="curve" smooth="yes"/>
      <point x="855" y="420"/>
      <point x="778" y="493"/>
      <point x="648" y="493" type="curve" smooth="yes"/>
    </contour>
    <contour>
      <point x="-20" y="685" type="line"/>
      <point x="-20" y="575" type="line"/>
      <point x="918" y="575" type="line"/>
      <point x="918" y="685" type="line"/>
    </contour>
    <contour>
      <point x="448" y="67"/>
      <point x="379" y="-6"/>
      <point x="357" y="-140" type="curve"/>
      <point x="470" y="-161" type="line"/>
      <point x="481" y="-77"/>
      <point x="510" y="-37"/>
      <point x="557" y="-37" type="curve" smooth="yes"/>
      <point x="595" y="-37"/>
      <point x="616" y="-54"/>
      <point x="616" y="-94" type="curve" smooth="yes"/>
      <point x="616" y="-129"/>
      <point x="606" y="-157"/>
      <point x="587" y="-188" type="curve"/>
      <point x="692" y="-244" type="line"/>
      <point x="725" y="-193"/>
      <point x="742" y="-142"/>
      <point x="742" y="-94" type="curve" smooth="yes"/>
      <point x="742" y="9"/>
      <point x="675" y="67"/>
      <point x="557" y="67" type="curve" smooth="yes"/>
    </contour>
    <contour>
      <point x="186" y="68"/>
      <point x="126" y="2"/>
      <point x="126" y="-94" type="curve" smooth="yes"/>
      <point x="126" y="-144"/>
      <point x="145" y="-193"/>
      <point x="175" y="-244" type="curve"/>
      <point x="280" y="-188" type="line"/>
      <point x="261" y="-156"/>
      <point x="252" y="-136"/>
      <point x="252" y="-102" type="curve" smooth="yes"/>
      <point x="252" y="-64"/>
      <point x="277" y="-36"/>
      <point x="313" y="-36" type="curve" smooth="yes"/>
      <point x="339" y="-36"/>
      <point x="367" y="-47"/>
      <point x="411" y="-102" type="curve"/>
      <point x="470" y="-12" type="line"/>
      <point x="417" y="55"/>
      <point x="340" y="68"/>
      <point x="292" y="68" type="curve" smooth="yes"/>
    </contour>
    <contour>
      <point x="240" y="-10" type="move" name="nukta"/>
    </contour>
    <contour>
      <point x="449" y="0" type="move" name="bottom"/>
    </contour>
    <contour>
      <point x="449" y="685" type="move" name="top"/>
    </contour>
  </outline>
</glyph>
<glyph name="k_ra-deva.loclNEP" format="1">
  <advance width="929"/>
  <outline>
    <contour>
      <point x="586" y="503"/>
      <point x="525" y="458"/>
      <point x="466" y="347" type="curve"/>
      <point x="540" y="288" type="line"/>
      <point x="574" y="361"/>
      <point x="613" y="393"/>
      <point x="669" y="393" type="curve" smooth="yes"/>
      <point x="721" y="393"/>
      <point x="751" y="361"/>
      <point x="751" y="307" type="curve" smooth="yes"/>
      <point x="751" y="254"/>
      <point x="716" y="222"/>
      <point x="658" y="222" type="curve" smooth="yes"/>
      <point x="650" y="222"/>
      <point x="640" y="223"/>
      <point x="630" y="225" type="curve"/>
      <point x="640" y="113" type="line"/>
      <point x="649" y="113"/>
      <point x="657" y="112"/>
      <point x="666" y="112" type="curve" smooth="yes"/>
      <point x="804" y="112"/>
      <point x="886" y="184"/>
      <point x="886" y="307" type="curve" smooth="yes"/>
      <point x="886" y="430"/>
      <point x="809" y="503"/>
      <point x="679" y="503" type="curve" smooth="yes"/>
    </contour>
    <contour>
      <point x="468" y="266" type="line"/>
      <point x="436" y="312"/>
      <point x="401" y="358"/>
      <point x="369" y="396" type="curve" smooth="yes"/>
      <point x="343" y="426"/>
      <point x="298" y="467"/>
      <point x="219" y="467" type="curve" smooth="yes"/>
      <point x="161" y="467"/>
      <point x="85" y="439"/>
      <point x="26" y="412" type="curve"/>
      <point x="71" y="307" type="line"/>
      <point x="128" y="334"/>
      <point x="178" y="352"/>
      <point x="210" y="352" type="curve" smooth="yes"/>
      <point x="267" y="352"/>
      <point x="288" y="330"/>
      <point x="312" y="301" type="curve" smooth="yes"/>
      <point x="332" y="277"/>
      <point x="361" y="240"/>
      <point x="387" y="208" type="curve"/>
    </contour>
    <contour>
      <point x="66" y="32" type="line"/>
      <point x="147" y="-55" type="line"/>
      <point x="430" y="184" type="line"/>
      <point x="430" y="330" type="line"/>
    </contour>
    <contour>
      <point x="424" y="608" type="line"/>
      <point x="424" y="0" type="line"/>
      <point x="559" y="0" type="line"/>
      <point x="559" y="608" type="line"/>
    </contour>
    <contour>
      <point x="-20" y="685" type="line"/>
      <point x="-20" y="575" type="line"/>
      <point x="949" y="575" type="line"/>
      <point x="949" y="685" type="line"/>
    </contour>
    <contour>
      <point x="305" y="-65" type="move" name="nukta"/>
    </contour>
    <contour>
      <point x="450" y="0" type="move" name="bottom"/>
    </contour>
    <contour>
      <point x="450" y="685" type="move" name="top"/>
    </contour>
  </outline>
</glyph>
<glyph name="k_ta-deva" format="1">
  <advance width="949"/>
  <outline>
    <contour>
      <point x="315" y="493" type="line" smooth="yes"/>
      <point x="187" y="493"/>
      <point x="109" y="423"/>
      <point x="109" y="299" type="curve" smooth="yes"/>
      <point x="109" y="238"/>
      <point x="128" y="177"/>
      <point x="170" y="107" type="curve" smooth="yes"/>
      <point x="240" y="-10" type="line"/>
      <point x="345" y="57" type="line"/>
      <point x="287" y="150" type="line" smooth="yes"/>
      <point x="252" y="206"/>
      <point x="244" y="240"/>
      <point x="244" y="292" type="curve" smooth="yes"/>
      <point x="244" y="350"/>
      <point x="283" y="383"/>
      <point x="351" y="383" type="curve" smooth="yes"/>
      <point x="471" y="383" type="line"/>
      <point x="471" y="493" type="line"/>
    </contour>
    <contour>
      <point x="32" y="493" type="line"/>
      <point x="32" y="383" type="line"/>
      <point x="471" y="383" type="line"/>
      <point x="471" y="493" type="line"/>
    </contour>
    <contour>
      <point x="432" y="610" type="line"/>
      <point x="432" y="0" type="line"/>
      <point x="567" y="0" type="line"/>
      <point x="567" y="610" type="line"/>
    </contour>
    <contour>
      <point x="606" y="493"/>
      <point x="545" y="448"/>
      <point x="486" y="337" type="curve"/>
      <point x="560" y="278" type="line"/>
      <point x="594" y="351"/>
      <point x="633" y="383"/>
      <point x="689" y="383" type="curve" smooth="yes"/>
      <point x="741" y="383"/>
      <point x="771" y="351"/>
      <point x="771" y="297" type="curve" smooth="yes"/>
      <point x="771" y="244"/>
      <point x="736" y="212"/>
      <point x="678" y="212" type="curve" smooth="yes"/>
      <point x="670" y="212"/>
      <point x="660" y="213"/>
      <point x="650" y="215" type="curve"/>
      <point x="660" y="103" type="line"/>
      <point x="669" y="103"/>
      <point x="677" y="102"/>
      <point x="686" y="102" type="curve" smooth="yes"/>
      <point x="824" y="102"/>
      <point x="906" y="174"/>
      <point x="906" y="297" type="curve" smooth="yes"/>
      <point x="906" y="420"/>
      <point x="829" y="493"/>
      <point x="699" y="493" type="curve" smooth="yes"/>
    </contour>
    <contour>
      <point x="-20" y="685" type="line"/>
      <point x="-20" y="575" type="line"/>
      <point x="969" y="575" type="line"/>
      <point x="969" y="685" type="line"/>
    </contour>
    <contour>
      <point x="502" y="685" type="move" name="top"/>
    </contour>
    <contour>
      <point x="502" y="0" type="move" name="bottom"/>
    </contour>
  </outline>
</glyph>
<glyph name="kh-deva" format="1">
  <advance width="630"/>
  <outline>
    <contour>
      <point x="460" y="112" type="line"/>
      <point x="333" y="112"/>
      <point x="258" y="147"/>
      <point x="197" y="241" type="curve"/>
      <point x="204" y="239"/>
      <point x="208" y="239"/>
      <point x="211" y="239" type="curve" smooth="yes"/>
      <point x="275" y="239"/>
      <point x="380" y="296"/>
      <point x="380" y="433" type="curve" smooth="yes"/>
      <point x="380" y="501"/>
      <point x="339" y="581"/>
      <point x="259" y="670" type="curve"/>
      <point x="149" y="613" type="line"/>
      <point x="207" y="553"/>
      <point x="245" y="482"/>
      <point x="245" y="435" type="curve" smooth="yes"/>
      <point x="245" y="381"/>
      <point x="218" y="347"/>
      <point x="171" y="347" type="curve" smooth="yes"/>
      <point x="146" y="347"/>
      <point x="119" y="358"/>
      <point x="92" y="376" type="curve"/>
      <point x="27" y="295" type="line"/>
      <point x="121" y="75"/>
      <point x="243" y="-4"/>
      <point x="486" y="-4" type="curve"/>
    </contour>
    <contour>
      <point x="683" y="122"/>
      <point x="759" y="166"/>
      <point x="815" y="245" type="curve"/>
      <point x="760" y="341" type="line"/>
      <point x="724" y="271"/>
      <point x="671" y="232"/>
      <point x="614" y="232" type="curve" smooth="yes"/>
      <point x="557" y="232"/>
      <point x="522" y="260"/>
      <point x="522" y="305" type="curve" smooth="yes"/>
      <point x="522" y="355"/>
      <point x="565" y="384"/>
      <point x="621" y="384" type="curve" smooth="yes"/>
      <point x="641" y="384"/>
      <point x="663" y="383"/>
      <point x="689" y="377" type="curve"/>
      <point x="676" y="488" type="line"/>
      <point x="655" y="490"/>
      <point x="633" y="493"/>
      <point x="609" y="493" type="curve" smooth="yes"/>
      <point x="483" y="493"/>
      <point x="387" y="435"/>
      <point x="387" y="305" type="curve" smooth="yes"/>
      <point x="387" y="198"/>
      <point x="477" y="122"/>
      <point x="604" y="122" type="curve" smooth="yes"/>
    </contour>
    <contour>
      <point x="664" y="575" type="line"/>
      <point x="664" y="685" type="line"/>
      <point x="-19" y="685" type="line"/>
      <point x="-19" y="575" type="line"/>
    </contour>
    <contour>
      <point x="202" y="-80" type="move" name="nukta"/>
    </contour>
    <contour>
      <point x="411" y="0" type="move" name="bottom"/>
    </contour>
    <contour>
      <point x="393" y="685" type="move" name="top"/>
    </contour>
  </outline>
</glyph>
<glyph name="kh_ra-deva" format="1">
  <advance width="971"/>
  <outline>
    <contour>
      <point x="742" y="685" type="line"/>
      <point x="742" y="0" type="line"/>
      <point x="877" y="0" type="line"/>
      <point x="877" y="575" type="line"/>
      <point x="991" y="575" type="line"/>
      <point x="991" y="685" type="line"/>
    </contour>
    <contour>
      <point x="25" y="295" type="line"/>
      <point x="137" y="87"/>
      <point x="269" y="-4"/>
      <point x="404" y="-4" type="curve"/>
      <point x="429" y="-4"/>
      <point x="452" y="-2"/>
      <point x="476" y="1" type="curve"/>
      <point x="441" y="113" type="line"/>
      <point x="304" y="119"/>
      <point x="251" y="170"/>
      <point x="154" y="325" type="curve"/>
    </contour>
    <contour>
      <point x="147" y="613" type="line"/>
      <point x="205" y="553"/>
      <point x="243" y="482"/>
      <point x="243" y="435" type="curve" smooth="yes"/>
      <point x="243" y="381"/>
      <point x="216" y="347"/>
      <point x="169" y="347" type="curve" smooth="yes"/>
      <point x="144" y="347"/>
      <point x="117" y="358"/>
      <point x="90" y="376" type="curve"/>
      <point x="24" y="295" type="line"/>
      <point x="54" y="257"/>
      <point x="112" y="238"/>
      <point x="171" y="238" type="curve" smooth="yes"/>
      <point x="300" y="238"/>
      <point x="378" y="309"/>
      <point x="378" y="433" type="curve" smooth="yes"/>
      <point x="378" y="501"/>
      <point x="337" y="581"/>
      <point x="257" y="670" type="curve"/>
    </contour>
    <contour>
      <point x="471" y="118" type="line"/>
      <point x="549" y="28" type="line"/>
      <point x="790" y="216" type="line"/>
      <point x="790" y="358" type="line"/>
    </contour>
    <contour>
      <point x="505" y="512"/>
      <point x="425" y="442"/>
      <point x="425" y="337" type="curve" smooth="yes"/>
      <point x="425" y="231"/>
      <point x="500" y="161"/>
      <point x="612" y="161" type="curve" smooth="yes"/>
      <point x="671" y="161"/>
      <point x="716" y="178"/>
      <point x="752" y="211" type="curve"/>
      <point x="752" y="346" type="line"/>
      <point x="721" y="296"/>
      <point x="682" y="271"/>
      <point x="626" y="271" type="curve" smooth="yes"/>
      <point x="585" y="271"/>
      <point x="560" y="296"/>
      <point x="560" y="337" type="curve" smooth="yes"/>
      <point x="560" y="378"/>
      <point x="587" y="402"/>
      <point x="633" y="402" type="curve" smooth="yes"/>
      <point x="648" y="402"/>
      <point x="664" y="400"/>
      <point x="675" y="398" type="curve"/>
      <point x="662" y="510" type="line"/>
      <point x="648" y="512"/>
      <point x="635" y="512"/>
      <point x="625" y="512" type="curve" smooth="yes"/>
    </contour>
    <contour>
      <point x="-20" y="685" type="line"/>
      <point x="-20" y="575" type="line"/>
      <point x="752" y="575" type="line"/>
      <point x="752" y="685" type="line"/>
    </contour>
    <contour>
      <point x="202" y="-80" type="move" name="nukta"/>
    </contour>
    <contour>
      <point x="486" y="0" type="move" name="bottom"/>
    </contour>
    <contour>
      <point x="814" y="685" type="move" name="top"/>
    </contour>
  </outline>
</glyph>
<glyph name="la-deva.loclMAR" format="1">
  <advance width="799"/>
  <outline>
    <contour>
      <point x="441" y="493"/>
      <point x="387" y="449"/>
      <point x="299" y="275" type="curve"/>
      <point x="404" y="219" type="line"/>
      <point x="476" y="355"/>
      <point x="503" y="383"/>
      <point x="557" y="383" type="curve" smooth="yes"/>
      <point x="594" y="383"/>
      <point x="618" y="352"/>
      <point x="618" y="311" type="curve" smooth="yes"/>
      <point x="618" y="237"/>
      <point x="575" y="166"/>
      <point x="464" y="57" type="curve"/>
      <point x="553" y="-32" type="line"/>
      <point x="704" y="117"/>
      <point x="752" y="202"/>
      <point x="752" y="319" type="curve" smooth="yes"/>
      <point x="752" y="421"/>
      <point x="674" y="493"/>
      <point x="564" y="493" type="curve" smooth="yes"/>
    </contour>
    <contour>
      <point x="126" y="493"/>
      <point x="47" y="420"/>
      <point x="47" y="319" type="curve" smooth="yes"/>
      <point x="47" y="202"/>
      <point x="95" y="117"/>
      <point x="246" y="-32" type="curve"/>
      <point x="335" y="57" type="line"/>
      <point x="224" y="166"/>
      <point x="181" y="237"/>
      <point x="181" y="311" type="curve" smooth="yes"/>
      <point x="181" y="351"/>
      <point x="206" y="383"/>
      <point x="238" y="383" type="curve" smooth="yes"/>
      <point x="288" y="383"/>
      <point x="313" y="359"/>
      <point x="343" y="281" type="curve"/>
      <point x="434" y="344" type="line"/>
      <point x="386" y="453"/>
      <point x="332" y="493"/>
      <point x="235" y="493" type="curve" smooth="yes"/>
    </contour>
    <contour>
      <point x="-20" y="685" type="line"/>
      <point x="-20" y="575" type="line"/>
      <point x="819" y="575" type="line"/>
      <point x="819" y="685" type="line"/>
    </contour>
    <contour>
      <point x="487" y="609" type="line"/>
      <point x="487" y="450" type="line"/>
      <point x="622" y="450" type="line"/>
      <point x="622" y="609" type="line"/>
    </contour>
    <contour>
      <point x="559" y="685" type="move" name="top"/>
    </contour>
    <contour>
      <point x="401" y="0" type="move" name="bottom"/>
    </contour>
  </outline>
</glyph>
<glyph name="m_ra-deva" format="1">
  <advance width="684"/>
  <outline>
    <contour>
      <point x="124" y="32" type="line"/>
      <point x="205" y="-55" type="line"/>
      <point x="488" y="184" type="line"/>
      <point x="488" y="330" type="line"/>
    </contour>
    <component base="ma-deva"/>
    <contour>
      <point x="508" y="685" type="move" name="top"/>
    </contour>
    <contour>
      <point x="508" y="0" type="move" name="bottom"/>
    </contour>
  </outline>
</glyph>
<glyph name="ma_compo" format="1">
  <advance width="600"/>
  <outline>
    <contour>
      <point x="44" y="473"/>
      <point x="23" y="463"/>
      <point x="23" y="419" type="curve" smooth="yes"/>
      <point x="23" y="346"/>
      <point x="81" y="288"/>
      <point x="145" y="288" type="curve" smooth="yes"/>
      <point x="193" y="288"/>
      <point x="207" y="335"/>
      <point x="207" y="440" type="curve"/>
      <point x="184" y="366" type="line"/>
      <point x="431" y="366" type="line"/>
      <point x="417" y="466" type="line"/>
      <point x="197" y="466" type="line"/>
      <point x="114" y="473" type="line"/>
    </contour>
    <contour>
      <point x="104" y="660" type="line"/>
      <point x="104" y="421" type="line"/>
      <point x="207" y="421" type="line"/>
      <point x="207" y="660" type="line"/>
    </contour>
    <contour>
      <point x="369" y="660" type="line"/>
      <point x="369" y="221" type="line"/>
      <point x="477" y="221" type="line"/>
      <point x="477" y="660" type="line"/>
    </contour>
  </outline>
</glyph>
<glyph name="n_na-deva" format="1">
  <advance width="698"/>
  <outline>
    <contour>
      <point x="49" y="467"/>
      <point x="38" y="422"/>
      <point x="38" y="381" type="curve" smooth="yes"/>
      <point x="38" y="298"/>
      <point x="76" y="225"/>
      <point x="129" y="225" type="curve" smooth="yes"/>
      <point x="168" y="225"/>
      <point x="189" y="276"/>
      <point x="221" y="364" type="curve"/>
      <point x="119" y="394" type="line"/>
      <point x="180" y="333" type="line"/>
      <point x="480" y="246" type="line"/>
      <point x="498" y="356" type="line"/>
      <point x="143" y="458" type="line" smooth="yes"/>
      <point x="124" y="463"/>
      <point x="108" y="467"/>
      <point x="94" y="467" type="curve" smooth="yes"/>
    </contour>
    <contour>
      <point x="-20" y="685" type="line"/>
      <point x="-20" y="575" type="line"/>
      <point x="718" y="575" type="line"/>
      <point x="718" y="685" type="line"/>
    </contour>
    <contour>
      <point x="150" y="31" type="line" smooth="yes"/>
      <point x="126" y="9"/>
      <point x="111" y="-10"/>
      <point x="111" y="-31" type="curve" smooth="yes"/>
      <point x="111" y="-76"/>
      <point x="184" y="-120"/>
      <point x="257" y="-120" type="curve" smooth="yes"/>
      <point x="302" y="-120"/>
      <point x="345" y="-97"/>
      <point x="345" y="-62" type="curve" smooth="yes"/>
      <point x="345" y="-35"/>
      <point x="318" y="-2"/>
      <point x="269" y="53" type="curve"/>
      <point x="193" y="-24" type="line"/>
      <point x="252" y="-81" type="line"/>
      <point x="276" y="5" type="line"/>
      <point x="495" y="191" type="line"/>
      <point x="456" y="312" type="line"/>
    </contour>
    <contour>
      <point x="469" y="608" type="line"/>
      <point x="469" y="0" type="line"/>
      <point x="604" y="0" type="line"/>
      <point x="604" y="608" type="line"/>
    </contour>
    <contour>
      <point x="344" y="685" type="line"/>
      <point x="344" y="575" type="line"/>
      <point x="729" y="575" type="line"/>
      <point x="729" y="685" type="line"/>
    </contour>
    <contour>
      <point x="603" y="685" type="move" name="imatra"/>
    </contour>
    <contour>
      <point x="537" y="0" type="move" name="bottom"/>
    </contour>
    <contour>
      <point x="537" y="685" type="move" name="top"/>
    </contour>
  </outline>
</glyph>
<glyph name="n_ra-deva" format="1">
  <advance width="698"/>
  <outline>
    <contour>
      <point x="124" y="32" type="line"/>
      <point x="205" y="-55" type="line"/>
      <point x="488" y="184" type="line"/>
      <point x="488" y="330" type="line"/>
    </contour>
    <contour>
      <point x="49" y="467"/>
      <point x="38" y="422"/>
      <point x="38" y="381" type="curve" smooth="yes"/>
      <point x="38" y="298"/>
      <point x="76" y="225"/>
      <point x="129" y="225" type="curve" smooth="yes"/>
      <point x="168" y="225"/>
      <point x="189" y="276"/>
      <point x="221" y="364" type="curve"/>
      <point x="119" y="394" type="line"/>
      <point x="180" y="333" type="line"/>
      <point x="480" y="246" type="line"/>
      <point x="498" y="356" type="line"/>
      <point x="143" y="458" type="line" smooth="yes"/>
      <point x="124" y="463"/>
      <point x="108" y="467"/>
      <point x="94" y="467" type="curve" smooth="yes"/>
    </contour>
    <contour>
      <point x="-5" y="685" type="line"/>
      <point x="-5" y="575" type="line"/>
      <point x="703" y="575" type="line"/>
      <point x="703" y="685" type="line"/>
    </contour>
    <component base="aaMatra-deva" xOffset="364"/>
    <contour>
      <point x="47" y="124" type="move" name="nukta"/>
    </contour>
    <contour>
      <point x="537" y="0" type="move" name="bottom"/>
    </contour>
    <contour>
      <point x="526" y="685" type="move" name="top"/>
    </contour>
  </outline>
</glyph>
<glyph name="na_compo_down" format="1">
  <advance width="446"/>
  <outline>
    <contour>
      <point x="66" y="101" type="line" smooth="yes"/>
      <point x="42" y="79"/>
      <point x="27" y="60"/>
      <point x="27" y="39" type="curve" smooth="yes"/>
      <point x="27" y="-6"/>
      <point x="100" y="-50"/>
      <point x="173" y="-50" type="curve" smooth="yes"/>
      <point x="218" y="-50"/>
      <point x="261" y="-27"/>
      <point x="261" y="8" type="curve" smooth="yes"/>
      <point x="261" y="35"/>
      <point x="234" y="68"/>
      <point x="185" y="123" type="curve"/>
      <point x="109" y="46" type="line"/>
      <point x="168" y="-11" type="line"/>
      <point x="192" y="75" type="line"/>
      <point x="411" y="261" type="line"/>
      <point x="372" y="382" type="line"/>
    </contour>
    <contour>
      <point x="328" y="685" type="move" name="top"/>
    </contour>
    <contour>
      <point x="328" y="0" type="move" name="bottom"/>
    </contour>
  </outline>
</glyph>
<glyph name="ng_k-deva" format="1">
  <advance width="786"/>
  <outline>
    <contour>
      <point x="-20" y="685" type="line"/>
      <point x="-20" y="575" type="line"/>
      <point x="806" y="575" type="line"/>
      <point x="806" y="685" type="line"/>
    </contour>
    <contour>
      <point x="649" y="102" type="line"/>
      <point x="616" y="118"/>
      <point x="578" y="126"/>
      <point x="537" y="126" type="curve" smooth="yes"/>
      <point x="490" y="126"/>
      <point x="451" y="114"/>
      <point x="417" y="90" type="curve"/>
      <point x="417" y="220" type="line"/>
      <point x="307" y="220" type="line"/>
      <point x="307" y="-3" type="line"/>
      <point x="277" y="-48"/>
      <point x="234" y="-75"/>
      <point x="194" y="-75" type="curve" smooth="yes"/>
      <point x="163" y="-75"/>
      <point x="140" y="-53"/>
      <point x="140" y="-24" type="curve" smooth="yes"/>
      <point x="140" y="11"/>
      <point x="162" y="32"/>
      <point x="198" y="32" type="curve" smooth="yes"/>
      <point x="212" y="32"/>
      <point x="224" y="31"/>
      <point x="234" y="28" type="curve"/>
      <point x="219" y="125" type="line"/>
      <point x="213" y="126"/>
      <point x="208" y="126"/>
      <point x="197" y="126" type="curve" smooth="yes"/>
      <point x="96" y="126"/>
      <point x="26" y="64"/>
      <point x="26" y="-25" type="curve" smooth="yes"/>
      <point x="26" y="-115"/>
      <point x="93" y="-178"/>
      <point x="187" y="-178" type="curve" smooth="yes"/>
      <point x="234" y="-178"/>
      <point x="273" y="-166"/>
      <point x="307" y="-142" type="curve"/>
      <point x="307" y="-232" type="line"/>
      <point x="417" y="-232" type="line"/>
      <point x="417" y="-49" type="line"/>
      <point x="447" y="-4"/>
      <point x="490" y="23"/>
      <point x="530" y="23" type="curve" smooth="yes"/>
      <point x="557" y="23"/>
      <point x="582" y="16"/>
      <point x="603" y="3" type="curve"/>
    </contour>
    <component base="dd_compo" xOffset="42"/>
    <component base="nukta-deva" xOffset="556" yOffset="558"/>
    <contour>
      <point x="485" y="685" type="move" name="top"/>
    </contour>
    <contour>
      <point x="360" y="-232" type="move" name="bottom"/>
    </contour>
  </outline>
</glyph>
<glyph name="nn_ra-deva" format="1">
  <advance width="765"/>
  <outline>
    <contour>
      <point x="219" y="32" type="line"/>
      <point x="300" y="-55" type="line"/>
      <point x="583" y="184" type="line"/>
      <point x="583" y="330" type="line"/>
    </contour>
    <component base="nna-deva"/>
    <contour>
      <point x="598" y="685" type="move" name="top"/>
    </contour>
    <contour>
      <point x="598" y="0" type="move" name="bottom"/>
    </contour>
  </outline>
</glyph>
<glyph name="nuktathree-deva" format="1">
  <advance width="252"/>
  <outline>
    <contour>
      <point x="168" y="-193"/>
      <point x="202" y="-159"/>
      <point x="202" y="-117" type="curve" smooth="yes"/>
      <point x="202" y="-75"/>
      <point x="168" y="-41"/>
      <point x="126" y="-41" type="curve" smooth="yes"/>
      <point x="84" y="-41"/>
      <point x="50" y="-75"/>
      <point x="50" y="-117" type="curve" smooth="yes"/>
      <point x="50" y="-159"/>
      <point x="84" y="-193"/>
      <point x="126" y="-193" type="curve" smooth="yes"/>
    </contour>
    <contour>
      <point x="127" y="0" type="move" name="_bottom"/>
    </contour>
    <contour>
      <point x="127" y="-118" type="move" name="_nukta"/>
    </contour>
  </outline>
</glyph>
<glyph name="ny_ra-deva" format="1">
  <advance width="741"/>
  <outline>
    <contour>
      <point x="123" y="397" type="line"/>
      <point x="152" y="407"/>
      <point x="168" y="413"/>
      <point x="190" y="413" type="curve" smooth="yes"/>
      <point x="232" y="413"/>
      <point x="268" y="397"/>
      <point x="268" y="355" type="curve" smooth="yes"/>
      <point x="268" y="310"/>
      <point x="235" y="290"/>
      <point x="190" y="290" type="curve" smooth="yes"/>
      <point x="148" y="290"/>
      <point x="116" y="310"/>
      <point x="88" y="342" type="curve"/>
      <point x="21" y="274" type="line"/>
      <point x="64" y="214"/>
      <point x="145" y="180"/>
      <point x="219" y="180" type="curve" smooth="yes"/>
      <point x="329" y="180"/>
      <point x="403" y="245"/>
      <point x="403" y="355" type="curve" smooth="yes"/>
      <point x="403" y="469"/>
      <point x="315" y="523"/>
      <point x="217" y="523" type="curve" smooth="yes"/>
      <point x="168" y="523"/>
      <point x="117" y="510"/>
      <point x="88" y="496" type="curve"/>
    </contour>
    <contour>
      <point x="355" y="328" type="line"/>
      <point x="380" y="316"/>
      <point x="415" y="311"/>
      <point x="450" y="311" type="curve" smooth="yes"/>
      <point x="488" y="311"/>
      <point x="525" y="317"/>
      <point x="551" y="329" type="curve"/>
      <point x="536" y="431" type="line"/>
      <point x="506" y="425"/>
      <point x="475" y="421"/>
      <point x="443" y="421" type="curve" smooth="yes"/>
      <point x="413" y="421"/>
      <point x="383" y="425"/>
      <point x="356" y="433" type="curve"/>
    </contour>
    <contour>
      <point x="-5" y="575" type="line"/>
      <point x="746" y="575" type="line"/>
      <point x="746" y="685" type="line"/>
      <point x="-5" y="685" type="line"/>
    </contour>
    <contour>
      <point x="209" y="32" type="line"/>
      <point x="290" y="-55" type="line"/>
      <point x="573" y="184" type="line"/>
      <point x="573" y="330" type="line"/>
    </contour>
    <component base="aaMatra-deva" xOffset="407"/>
    <contour>
      <point x="569" y="685" type="move" name="top"/>
    </contour>
    <contour>
      <point x="569" y="0" type="move" name="bottom"/>
    </contour>
  </outline>
</glyph>
<glyph name="ph_ra-deva" format="1">
  <advance width="898"/>
  <outline>
    <contour>
      <point x="68" y="74" type="line"/>
      <point x="149" y="-13" type="line"/>
      <point x="432" y="226" type="line"/>
      <point x="432" y="372" type="line"/>
    </contour>
    <component base="pha-deva"/>
    <contour>
      <point x="250" y="-91" type="move" name="nukta"/>
    </contour>
    <contour>
      <point x="454" y="0" type="move" name="bottom"/>
    </contour>
    <contour>
      <point x="454" y="685" type="move" name="top"/>
    </contour>
  </outline>
</glyph>
<glyph name="rakar-deva" format="1">
  <advance width="459"/>
  <note>
	dRakar
  </note>
  <outline>
    <contour>
      <point x="10" y="-143" type="line"/>
      <point x="71" y="-235" type="line"/>
      <point x="262" y="-94" type="line"/>
      <point x="230" y="4" type="line"/>
    </contour>
    <contour>
      <point x="194" y="-94" type="line"/>
      <point x="388" y="-235" type="line"/>
      <point x="449" y="-143" type="line"/>
      <point x="230" y="4" type="line"/>
    </contour>
    <contour>
      <point x="230" y="0" type="move" name="_bottom"/>
    </contour>
    <contour>
      <point x="230" y="-186" type="move" name="bottom"/>
    </contour>
  </outline>
</glyph>
<glyph name="rakar_uMatra-deva" format="1">
  <advance width="459"/>
  <note>
	dRakarMatraU
  </note>
  <outline>
    <component base="rakar-deva"/>
    <component base="uMatra-deva" xOffset="-10" yOffset="-186"/>
    <contour>
      <point x="229" y="0" type="move" name="_bottom"/>
    </contour>
  </outline>
</glyph>
<glyph name="rakar_uuMatra-deva" format="1">
  <advance width="459"/>
  <note>
	dRakarMatraUu
  </note>
  <outline>
    <component base="rakar-deva"/>
    <component base="uuMatra-deva" xOffset="75" yOffset="-186"/>
    <contour>
      <point x="232" y="0" type="move" name="_bottom"/>
    </contour>
  </outline>
</glyph>
<glyph name="rr-deva" format="1">
  <advance width="337"/>
  <outline>
    <contour>
      <point x="17" y="313" type="line"/>
      <point x="73" y="227"/>
      <point x="162" y="183"/>
      <point x="252" y="183" type="curve" smooth="yes"/>
      <point x="317" y="183"/>
      <point x="393" y="212"/>
      <point x="448" y="258" type="curve"/>
      <point x="412" y="370" type="line"/>
      <point x="342" y="301"/>
      <point x="293" y="294"/>
      <point x="247" y="294" type="curve" smooth="yes"/>
      <point x="200" y="294"/>
      <point x="157" y="322"/>
      <point x="99" y="383" type="curve"/>
    </contour>
    <contour>
      <point x="-24" y="684" type="line"/>
      <point x="-24" y="574" type="line"/>
      <point x="360" y="574" type="line"/>
      <point x="360" y="684" type="line"/>
    </contour>
    <contour>
      <point x="219" y="685" type="move" name="top"/>
    </contour>
    <contour>
      <point x="169" y="0" type="move" name="bottom"/>
    </contour>
  </outline>
</glyph>
<glyph name="s_ra-deva" format="1">
  <advance width="776"/>
  <outline>
    <contour>
      <point x="345" y="134" type="line"/>
      <point x="416" y="41" type="line"/>
      <point x="576" y="176" type="line"/>
      <point x="576" y="322" type="line"/>
    </contour>
    <component base="sa-deva"/>
    <contour>
      <point x="603" y="685" type="move" name="top"/>
    </contour>
    <contour>
      <point x="603" y="0" type="move" name="bottom"/>
    </contour>
  </outline>
</glyph>
<glyph name="s_t_ra-deva" format="1">
  <advance width="1095"/>
  <outline>
    <contour>
      <point x="-20" y="685" type="line"/>
      <point x="-20" y="575" type="line"/>
      <point x="178" y="575" type="line"/>
      <point x="217" y="525"/>
      <point x="241" y="472"/>
      <point x="241" y="435" type="curve" smooth="yes"/>
      <point x="241" y="380"/>
      <point x="213" y="347"/>
      <point x="167" y="347" type="curve" smooth="yes"/>
      <point x="144" y="347"/>
      <point x="118" y="356"/>
      <point x="88" y="376" type="curve"/>
      <point x="22" y="295" type="line"/>
      <point x="266" y="-34" type="line"/>
      <point x="374" y="41" type="line"/>
      <point x="228" y="244" type="line"/>
      <point x="527" y="318"/>
      <point x="246" y="248"/>
      <point x="250" y="250" type="curve"/>
      <point x="309" y="230"/>
      <point x="352" y="222"/>
      <point x="392" y="222" type="curve" smooth="yes"/>
      <point x="439" y="222"/>
      <point x="478" y="241"/>
      <point x="543" y="295" type="curve" smooth="yes"/>
      <point x="600" y="341"/>
      <point x="620" y="352"/>
      <point x="646" y="352" type="curve" smooth="yes"/>
      <point x="687" y="352"/>
      <point x="710" y="340"/>
      <point x="743" y="301" type="curve" smooth="yes"/>
      <point x="776" y="260" type="line"/>
      <point x="497" y="32" type="line"/>
      <point x="578" y="-55" type="line"/>
      <point x="855" y="179" type="line"/>
      <point x="855" y="0" type="line"/>
      <point x="990" y="0" type="line"/>
      <point x="990" y="575" type="line"/>
      <point x="1115" y="575" type="line"/>
      <point x="1115" y="685" type="line"/>
    </contour>
    <contour>
      <point x="855" y="325" type="line"/>
      <point x="800" y="396" type="line" smooth="yes"/>
      <point x="765" y="442"/>
      <point x="712" y="467"/>
      <point x="650" y="467" type="curve" smooth="yes"/>
      <point x="605" y="467"/>
      <point x="574" y="450"/>
      <point x="496" y="383" type="curve" smooth="yes"/>
      <point x="454" y="347"/>
      <point x="428" y="334"/>
      <point x="401" y="334" type="curve" smooth="yes"/>
      <point x="390" y="334"/>
      <point x="377" y="336"/>
      <point x="357" y="339" type="curve"/>
      <point x="370" y="366"/>
      <point x="376" y="397"/>
      <point x="376" y="433" type="curve" smooth="yes"/>
      <point x="376" y="476"/>
      <point x="360" y="523"/>
      <point x="328" y="575" type="curve"/>
      <point x="855" y="575" type="line"/>
    </contour>
    <contour>
      <point x="989" y="685" type="move" name="imatra"/>
    </contour>
    <contour>
      <point x="76" y="-20" type="move" name="nukta"/>
    </contour>
    <contour>
      <point x="923" y="685" type="move" name="top"/>
    </contour>
    <contour>
      <point x="923" y="0" type="move" name="bottom"/>
    </contour>
  </outline>
</glyph>
<glyph name="sh-deva" format="1">
  <advance width="521"/>
  <outline>
    <contour>
      <point x="171" y="194" type="line"/>
      <point x="354" y="-23" type="line"/>
      <point x="440" y="47" type="line"/>
      <point x="274" y="242" type="line"/>
    </contour>
    <contour>
      <point x="470" y="606"/>
      <point x="391" y="688"/>
      <point x="257" y="688" type="curve" smooth="yes"/>
      <point x="134" y="688"/>
      <point x="63" y="632"/>
      <point x="63" y="533" type="curve" smooth="yes"/>
      <point x="63" y="450"/>
      <point x="124" y="386"/>
      <point x="222" y="363" type="curve"/>
      <point x="259" y="461" type="line"/>
      <point x="219" y="474"/>
      <point x="198" y="495"/>
      <point x="198" y="527" type="curve" smooth="yes"/>
      <point x="198" y="558"/>
      <point x="220" y="578"/>
      <point x="257" y="578" type="curve" smooth="yes"/>
      <point x="306" y="578"/>
      <point x="335" y="538"/>
      <point x="335" y="468" type="curve" smooth="yes"/>
      <point x="335" y="367"/>
      <point x="280" y="294"/>
      <point x="181" y="262" type="curve"/>
      <point x="147" y="215" type="line"/>
      <point x="286" y="226" type="line"/>
      <point x="226" y="298"/>
      <point x="180" y="328"/>
      <point x="128" y="328" type="curve" smooth="yes"/>
      <point x="76" y="328"/>
      <point x="40" y="298"/>
      <point x="40" y="253" type="curve" smooth="yes"/>
      <point x="40" y="182"/>
      <point x="85" y="148"/>
      <point x="179" y="148" type="curve" smooth="yes"/>
      <point x="337" y="148"/>
      <point x="470" y="294"/>
      <point x="470" y="466" type="curve" smooth="yes"/>
    </contour>
    <contour>
      <point x="261" y="685" type="move" name="top"/>
    </contour>
    <contour>
      <point x="261" y="0" type="move" name="bottom"/>
    </contour>
  </outline>
</glyph>
<glyph name="sh-deva.loclMAR" format="1">
  <advance width="453"/>
  <outline>
    <contour>
      <point x="153" y="136" type="line"/>
      <point x="304" y="-22" type="line"/>
      <point x="379" y="37" type="line"/>
      <point x="242" y="178" type="line"/>
    </contour>
    <contour>
      <point x="404" y="444"/>
      <point x="337" y="508"/>
      <point x="225" y="508" type="curve" smooth="yes"/>
      <point x="122" y="508"/>
      <point x="61" y="460"/>
      <point x="61" y="379" type="curve" smooth="yes"/>
      <point x="61" y="319"/>
      <point x="115" y="271"/>
      <point x="199" y="254" type="curve"/>
      <point x="230" y="339" type="line"/>
      <point x="198" y="348"/>
      <point x="182" y="359"/>
      <point x="182" y="383" type="curve" smooth="yes"/>
      <point x="182" y="401"/>
      <point x="198" y="413"/>
      <point x="225" y="413" type="curve" smooth="yes"/>
      <point x="262" y="413"/>
      <point x="284" y="386"/>
      <point x="284" y="337" type="curve" smooth="yes"/>
      <point x="284" y="270"/>
      <point x="239" y="220"/>
      <point x="158" y="199" type="curve"/>
      <point x="134" y="155" type="line"/>
      <point x="253" y="163" type="line"/>
      <point x="202" y="218"/>
      <point x="163" y="241"/>
      <point x="119" y="241" type="curve" smooth="yes"/>
      <point x="74" y="241"/>
      <point x="44" y="218"/>
      <point x="44" y="183" type="curve" smooth="yes"/>
      <point x="44" y="126"/>
      <point x="82" y="99"/>
      <point x="161" y="99" type="curve" smooth="yes"/>
      <point x="293" y="99"/>
      <point x="404" y="209"/>
      <point x="404" y="337" type="curve" smooth="yes"/>
    </contour>
    <contour>
      <point x="-20" y="575" type="line"/>
      <point x="473" y="575" type="line"/>
      <point x="473" y="685" type="line"/>
      <point x="-20" y="685" type="line"/>
    </contour>
    <contour>
      <point x="176" y="460" type="line"/>
      <point x="296" y="460" type="line"/>
      <point x="296" y="606" type="line"/>
      <point x="176" y="606" type="line"/>
    </contour>
    <contour>
      <point x="234" y="685" type="move" name="top"/>
    </contour>
    <contour>
      <point x="229" y="0" type="move" name="bottom"/>
    </contour>
  </outline>
</glyph>
<glyph name="sh-deva.ss02" format="1">
  <advance width="477"/>
  <outline>
    <contour>
      <point x="143" y="676"/>
      <point x="72" y="621"/>
      <point x="72" y="489" type="curve" smooth="yes"/>
      <point x="72" y="354"/>
      <point x="222" y="232"/>
      <point x="431" y="232" type="curve" smooth="yes"/>
      <point x="498" y="232"/>
      <point x="571" y="246"/>
      <point x="647" y="278" type="curve"/>
      <point x="606" y="377" type="line"/>
      <point x="546" y="351"/>
      <point x="489" y="341"/>
      <point x="439" y="341" type="curve" smooth="yes"/>
      <point x="297" y="341"/>
      <point x="203" y="414"/>
      <point x="203" y="494" type="curve" smooth="yes"/>
      <point x="203" y="535"/>
      <point x="216" y="566"/>
      <point x="257" y="566" type="curve" smooth="yes"/>
      <point x="291" y="566"/>
      <point x="313" y="540"/>
      <point x="313" y="500" type="curve" smooth="yes"/>
      <point x="313" y="395"/>
      <point x="174" y="323"/>
      <point x="30" y="294" type="curve"/>
      <point x="56" y="188" type="line"/>
      <point x="263" y="223"/>
      <point x="438" y="327"/>
      <point x="438" y="477" type="curve" smooth="yes"/>
      <point x="438" y="595"/>
      <point x="367" y="676"/>
      <point x="263" y="676" type="curve" smooth="yes"/>
    </contour>
    <contour>
      <point x="229" y="685" type="move" name="top"/>
    </contour>
    <contour>
      <point x="277" y="166" type="move" name="bottom"/>
    </contour>
  </outline>
</glyph>
<glyph name="sh_la-deva" format="1">
  <advance width="826"/>
  <outline>
    <contour>
      <point x="181" y="177"/>
      <point x="121" y="111"/>
      <point x="121" y="15" type="curve" smooth="yes"/>
      <point x="121" y="-35"/>
      <point x="140" y="-84"/>
      <point x="170" y="-135" type="curve"/>
      <point x="275" y="-79" type="line"/>
      <point x="256" y="-47"/>
      <point x="247" y="-27"/>
      <point x="247" y="7" type="curve" smooth="yes"/>
      <point x="247" y="45"/>
      <point x="272" y="73"/>
      <point x="308" y="73" type="curve" smooth="yes"/>
      <point x="334" y="73"/>
      <point x="362" y="62"/>
      <point x="406" y="7" type="curve"/>
      <point x="465" y="97" type="line"/>
      <point x="412" y="164"/>
      <point x="335" y="177"/>
      <point x="287" y="177" type="curve" smooth="yes"/>
    </contour>
    <contour>
      <point x="641" y="162" type="line"/>
      <point x="616" y="171"/>
      <point x="586" y="176"/>
      <point x="552" y="176" type="curve" smooth="yes"/>
      <point x="443" y="176"/>
      <point x="374" y="103"/>
      <point x="352" y="-31" type="curve"/>
      <point x="465" y="-52" type="line"/>
      <point x="476" y="32"/>
      <point x="505" y="72"/>
      <point x="552" y="72" type="curve" smooth="yes"/>
      <point x="578" y="72"/>
      <point x="595" y="64"/>
      <point x="604" y="47" type="curve"/>
    </contour>
    <contour>
      <point x="143" y="676"/>
      <point x="72" y="621"/>
      <point x="72" y="489" type="curve" smooth="yes"/>
      <point x="72" y="354"/>
      <point x="222" y="232"/>
      <point x="431" y="232" type="curve" smooth="yes"/>
      <point x="498" y="232"/>
      <point x="571" y="246"/>
      <point x="647" y="278" type="curve"/>
      <point x="606" y="377" type="line"/>
      <point x="546" y="351"/>
      <point x="489" y="341"/>
      <point x="439" y="341" type="curve" smooth="yes"/>
      <point x="297" y="341"/>
      <point x="203" y="414"/>
      <point x="203" y="494" type="curve" smooth="yes"/>
      <point x="203" y="535"/>
      <point x="216" y="566"/>
      <point x="257" y="566" type="curve" smooth="yes"/>
      <point x="291" y="566"/>
      <point x="313" y="540"/>
      <point x="313" y="500" type="curve" smooth="yes"/>
      <point x="313" y="395"/>
      <point x="174" y="323"/>
      <point x="30" y="294" type="curve"/>
      <point x="56" y="188" type="line"/>
      <point x="263" y="223"/>
      <point x="438" y="327"/>
      <point x="438" y="477" type="curve" smooth="yes"/>
      <point x="438" y="595"/>
      <point x="367" y="676"/>
      <point x="263" y="676" type="curve" smooth="yes"/>
    </contour>
    <contour>
      <point x="586" y="608" type="line"/>
      <point x="586" y="0" type="line"/>
      <point x="721" y="0" type="line"/>
      <point x="721" y="608" type="line"/>
    </contour>
    <contour>
      <point x="461" y="685" type="line"/>
      <point x="461" y="575" type="line"/>
      <point x="846" y="575" type="line"/>
      <point x="846" y="685" type="line"/>
    </contour>
    <contour>
      <point x="720" y="685" type="move" name="imatra"/>
    </contour>
    <contour>
      <point x="654" y="0" type="move" name="bottom"/>
    </contour>
    <contour>
      <point x="654" y="685" type="move" name="top"/>
    </contour>
  </outline>
</glyph>
<glyph name="sh_r-deva" format="1">
  <advance width="479"/>
  <outline>
    <contour>
      <point x="459" y="685" type="line"/>
      <point x="459" y="575" type="line"/>
      <point x="627" y="575" type="line"/>
      <point x="627" y="685" type="line"/>
    </contour>
    <contour>
      <point x="546" y="278" type="line"/>
      <point x="245" y="32" type="line"/>
      <point x="326" y="-55" type="line"/>
      <point x="627" y="199" type="line"/>
      <point x="627" y="278" type="line"/>
    </contour>
    <component base="sha_comp"/>
  </outline>
</glyph>
<glyph name="sh_ra-deva" format="1">
  <advance width="827"/>
  <outline>
    <contour>
      <point x="244" y="32" type="line"/>
      <point x="325" y="-55" type="line"/>
      <point x="608" y="184" type="line"/>
      <point x="608" y="330" type="line"/>
    </contour>
    <component base="sh-deva.ss02" xOffset="18"/>
    <component base="aaMatra-deva" xOffset="493"/>
    <contour>
      <point x="666" y="685" type="move" name="top"/>
    </contour>
    <contour>
      <point x="666" y="0" type="move" name="bottom"/>
    </contour>
  </outline>
</glyph>
